<?xml version="1.0" encoding="UTF-8"?>
<!DOCTYPE svg PUBLIC "-//W3C//DTD SVG 1.1//EN" "http://www.w3.org/Graphics/SVG/1.1/DTD/svg11.dtd">
<svg xmlns="http://www.w3.org/2000/svg" version="1.1" width="502px" height="300px" style="shape-rendering:geometricPrecision; text-rendering:geometricPrecision; image-rendering:optimizeQuality; fill-rule:evenodd; clip-rule:evenodd" xmlns:xlink="http://www.w3.org/1999/xlink">
<g><path style="opacity:0.994" fill="#9a4993" d="M 371.5,75.5 C 353.201,85.316 335.201,95.6493 317.5,106.5C 307.721,87.5646 292.721,74.3979 272.5,67C 226.421,53.8054 190.587,67.3054 165,107.5C 150.736,136.414 151.236,165.081 166.5,193.5C 148.5,203.5 130.5,213.5 112.5,223.5C 111.16,219.629 110.327,215.629 110,211.5C 109.333,169.833 109.333,128.167 110,86.5C 110.676,76.3125 115.51,68.8125 124.5,64C 160.671,43.0803 197.004,22.4136 233.5,2C 239.5,0 245.5,0 251.5,2C 287.996,22.4136 324.329,43.0803 360.5,64C 365.741,66.4062 369.408,70.2395 371.5,75.5 Z"/></g>
<g><path style="opacity:1" fill="#fefdfe" d="M 317.5,106.5 C 304.833,113.5 292.167,120.5 279.5,127.5C 269.538,111.103 254.872,103.937 235.5,106C 209.871,112.622 197.705,129.122 199,155.5C 200.166,160.841 202,165.841 204.5,170.5C 212.829,184.915 225.329,192.249 242,192.5C 258.634,192.606 271.134,185.606 279.5,171.5C 282.016,171.755 284.35,172.589 286.5,174C 297.397,180.274 308.064,186.774 318.5,193.5C 294.498,229.315 261.164,242.815 218.5,234C 196.042,226.954 178.708,213.454 166.5,193.5C 151.236,165.081 150.736,136.414 165,107.5C 190.587,67.3054 226.421,53.8054 272.5,67C 292.721,74.3979 307.721,87.5646 317.5,106.5 Z"/></g>
<g><path style="opacity:1" fill="#813084" d="M 371.5,75.5 C 373.898,78.6548 375.064,82.3215 375,86.5C 375.667,128.167 375.667,169.833 375,211.5C 374.972,216.747 373.472,221.414 370.5,225.5C 370.489,223.983 369.823,222.816 368.5,222C 351.969,212.235 335.302,202.735 318.5,193.5C 308.064,186.774 297.397,180.274 286.5,174C 284.35,172.589 282.016,171.755 279.5,171.5C 277.599,169.204 275.266,167.371 272.5,166C 262.606,160.222 252.606,154.722 242.5,149.5C 254.833,142.167 267.167,134.833 279.5,127.5C 292.167,120.5 304.833,113.5 317.5,106.5C 335.201,95.6493 353.201,85.316 371.5,75.5 Z"/></g>
<g><path style="opacity:1" fill="#9a4a93" d="M 279.5,127.5 C 267.167,134.833 254.833,142.167 242.5,149.5C 229.85,156.472 217.184,163.472 204.5,170.5C 202,165.841 200.166,160.841 199,155.5C 197.705,129.122 209.871,112.622 235.5,106C 254.872,103.937 269.538,111.103 279.5,127.5 Z"/></g>
<g><path style="opacity:1" fill="#fcfafc" d="M 320.5,128.5 C 323.167,128.5 325.833,128.5 328.5,128.5C 328.5,130.833 328.5,133.167 328.5,135.5C 332.167,135.5 335.833,135.5 339.5,135.5C 339.5,133.167 339.5,130.833 339.5,128.5C 342.5,128.5 345.5,128.5 348.5,128.5C 348.5,130.833 348.5,133.167 348.5,135.5C 350.833,135.5 353.167,135.5 355.5,135.5C 355.5,138.5 355.5,141.5 355.5,144.5C 353.167,144.5 350.833,144.5 348.5,144.5C 348.5,147.833 348.5,151.167 348.5,154.5C 350.265,155.461 352.265,155.795 354.5,155.5C 354.5,158.167 354.5,160.833 354.5,163.5C 352.5,163.5 350.5,163.5 348.5,163.5C 347.532,165.607 347.198,167.941 347.5,170.5C 344.833,170.5 342.167,170.5 339.5,170.5C 339.5,168.167 339.5,165.833 339.5,163.5C 335.833,163.5 332.167,163.5 328.5,163.5C 328.5,165.833 328.5,168.167 328.5,170.5C 325.833,170.5 323.167,170.5 320.5,170.5C 320.5,168.167 320.5,165.833 320.5,163.5C 318.167,163.5 315.833,163.5 313.5,163.5C 313.5,160.833 313.5,158.167 313.5,155.5C 315.833,155.5 318.167,155.5 320.5,155.5C 320.815,151.629 320.482,147.962 319.5,144.5C 317.5,144.5 315.5,144.5 313.5,144.5C 313.5,141.833 313.5,139.167 313.5,136.5C 315.833,136.5 318.167,136.5 320.5,136.5C 320.5,133.833 320.5,131.167 320.5,128.5 Z"/></g>
<g><path style="opacity:1" fill="#cfafcf" d="M 320.5,128.5 C 320.5,131.167 320.5,133.833 320.5,136.5C 318.167,136.5 315.833,136.5 313.5,136.5C 313.5,139.167 313.5,141.833 313.5,144.5C 312.523,141.713 312.19,138.713 312.5,135.5C 314.833,135.5 317.167,135.5 319.5,135.5C 319.198,132.941 319.532,130.607 320.5,128.5 Z"/></g>
<g><path style="opacity:1" fill="#be94bf" d="M 319.5,144.5 C 320.482,147.962 320.815,151.629 320.5,155.5C 318.167,155.5 315.833,155.5 313.5,155.5C 313.5,158.167 313.5,160.833 313.5,163.5C 312.523,160.713 312.19,157.713 312.5,154.5C 314.833,154.5 317.167,154.5 319.5,154.5C 319.5,151.167 319.5,147.833 319.5,144.5 Z"/></g>
<g><path style="opacity:1" fill="#853788" d="M 328.5,144.5 C 332.167,144.5 335.833,144.5 339.5,144.5C 339.5,147.833 339.5,151.167 339.5,154.5C 335.833,154.5 332.167,154.5 328.5,154.5C 328.5,151.167 328.5,147.833 328.5,144.5 Z"/></g>
<g><path style="opacity:1" fill="#6a1677" d="M 242.5,149.5 C 252.606,154.722 262.606,160.222 272.5,166C 275.266,167.371 277.599,169.204 279.5,171.5C 271.134,185.606 258.634,192.606 242,192.5C 225.329,192.249 212.829,184.915 204.5,170.5C 217.184,163.472 229.85,156.472 242.5,149.5 Z"/></g>
<g><path style="opacity:1" fill="#ccabcd" d="M 348.5,154.5 C 350.833,154.5 353.167,154.5 355.5,154.5C 355.81,157.713 355.477,160.713 354.5,163.5C 354.5,160.833 354.5,158.167 354.5,155.5C 352.265,155.795 350.265,155.461 348.5,154.5 Z"/></g>
<g><path style="opacity:1" fill="#a66da8" d="M 348.5,163.5 C 348.5,166.167 348.5,168.833 348.5,171.5C 345.287,171.81 342.287,171.477 339.5,170.5C 342.167,170.5 344.833,170.5 347.5,170.5C 347.198,167.941 347.532,165.607 348.5,163.5 Z"/></g>
<g><path style="opacity:1" fill="#6a1677" d="M 166.5,193.5 C 178.708,213.454 196.042,226.954 218.5,234C 261.164,242.815 294.498,229.315 318.5,193.5C 335.302,202.735 351.969,212.235 368.5,222C 369.823,222.816 370.489,223.983 370.5,225.5C 369.073,228.764 366.739,231.264 363.5,233C 326.167,254.333 288.833,275.667 251.5,297C 241.404,299.812 232.07,298.145 223.5,292C 188.664,271.414 153.664,251.081 118.5,231C 115.906,228.914 113.906,226.414 112.5,223.5C 130.5,213.5 148.5,203.5 166.5,193.5 Z"/></g>
</svg>
