<?xml version="1.0" encoding="UTF-8"?>
<!DOCTYPE svg PUBLIC "-//W3C//DTD SVG 1.1//EN" "http://www.w3.org/Graphics/SVG/1.1/DTD/svg11.dtd">
<svg xmlns="http://www.w3.org/2000/svg" version="1.1" width="550px" height="634px" style="shape-rendering:geometricPrecision; text-rendering:geometricPrecision; image-rendering:optimizeQuality; fill-rule:evenodd; clip-rule:evenodd" xmlns:xlink="http://www.w3.org/1999/xlink">
<g><path style="opacity:0.012" fill="#eeefee" d="M 247.5,44.5 C 248.833,45.1667 248.833,45.1667 247.5,44.5 Z"/></g>
<g><path style="opacity:0.368" fill="#979797" d="M 236.5,69.5 C 236.5,62.1667 236.5,54.8333 236.5,47.5C 217.5,47.5 198.5,47.5 179.5,47.5C 179.5,47.1667 179.5,46.8333 179.5,46.5C 198.861,46.4779 218.527,46.4779 238.5,46.5C 239.132,54.5729 238.465,62.2395 236.5,69.5 Z"/></g>
<g><path style="opacity:0.368" fill="#999999" d="M 393.5,46.5 C 393.5,46.8333 393.5,47.1667 393.5,47.5C 371.833,47.5 350.167,47.5 328.5,47.5C 328.5,47.1667 328.5,46.8333 328.5,46.5C 350.473,46.48 372.139,46.48 393.5,46.5 Z"/></g>
<g><path style="opacity:1" fill="#2d2d2d" d="M 248.5,47.5 C 270.5,47.5 292.5,47.5 314.5,47.5C 314.5,53.8333 314.5,60.1667 314.5,66.5C 304.5,66.5 294.5,66.5 284.5,66.5C 293.986,65.5062 303.652,65.1729 313.5,65.5C 313.5,59.8333 313.5,54.1667 313.5,48.5C 292.497,48.3334 271.497,48.5 250.5,49C 249.525,54.7412 249.192,60.5746 249.5,66.5C 249.167,66.5 248.833,66.5 248.5,66.5C 248.5,60.1667 248.5,53.8333 248.5,47.5 Z"/></g>
<g><path style="opacity:1" fill="#2e2e2e" d="M 328.5,48.5 C 328.5,48.1667 328.5,47.8333 328.5,47.5C 350.167,47.5 371.833,47.5 393.5,47.5C 393.5,48.1667 393.5,48.8333 393.5,49.5C 371.909,48.5116 350.242,48.1783 328.5,48.5 Z"/></g>
<g><path style="opacity:1" fill="#040404" d="M 328.5,48.5 C 350.242,48.1783 371.909,48.5116 393.5,49.5C 393.5,55.1667 393.5,60.8333 393.5,66.5C 383.833,66.5 374.167,66.5 364.5,66.5C 364.263,67.791 364.596,68.791 365.5,69.5C 365.833,69.5 366.167,69.5 366.5,69.5C 367.523,71.8458 368.523,74.1791 369.5,76.5C 370.5,76.5 371.5,76.5 372.5,76.5C 373.167,78.5 374.5,79.8333 376.5,80.5C 376.281,81.675 376.614,82.675 377.5,83.5C 378.642,84.8262 379.976,85.8262 381.5,86.5C 381.5,87.8333 382.167,88.5 383.5,88.5C 384.167,91.1667 385.833,92.8333 388.5,93.5C 388.5,94.8333 389.167,95.5 390.5,95.5C 390.685,97.1958 391.519,98.5291 393,99.5C 393.5,106.158 393.666,112.825 393.5,119.5C 371.833,119.5 350.167,119.5 328.5,119.5C 328.5,113.167 328.5,106.833 328.5,100.5C 338.506,100.666 348.506,100.5 358.5,100C 357.944,99.6174 357.611,99.1174 357.5,98.5C 356.71,97.5987 355.71,96.9321 354.5,96.5C 354.5,96.1667 354.5,95.8333 354.5,95.5C 353.721,93.323 352.387,91.6563 350.5,90.5C 350.5,89.1667 349.833,88.5 348.5,88.5C 346.948,86.6575 345.282,84.9908 343.5,83.5C 342.167,80.1667 339.833,77.8333 336.5,76.5C 335.167,74.5 333.5,72.8333 331.5,71.5C 331.5,70.1667 330.833,69.5 329.5,69.5C 328.573,62.557 328.24,55.557 328.5,48.5 Z"/></g>
<g><path style="opacity:1" fill="#030303" d="M 179.5,48.5 C 198.167,48.5 216.833,48.5 235.5,48.5C 235.5,54.8333 235.5,61.1667 235.5,67.5C 224.448,66.8572 213.781,67.5238 203.5,69.5C 203.5,78.8333 203.5,88.1667 203.5,97.5C 213.992,98.3304 224.659,98.8304 235.5,99C 236.479,105.744 236.812,112.578 236.5,119.5C 217.5,119.5 198.5,119.5 179.5,119.5C 179.5,95.8333 179.5,72.1667 179.5,48.5 Z"/></g>
<g><path style="opacity:1" fill="#030303" d="M 284.5,66.5 C 284.285,68.1788 284.952,69.1788 286.5,69.5C 288.5,72.1667 290.833,74.5 293.5,76.5C 294.167,79.1667 295.833,80.8333 298.5,81.5C 299.468,86.7836 302.468,90.1169 307.5,91.5C 307.5,92.8333 308.167,93.5 309.5,93.5C 309.554,95.632 310.554,96.9653 312.5,97.5C 314.345,104.628 315.012,111.961 314.5,119.5C 292.66,119.831 270.994,119.497 249.5,118.5C 249.5,112.833 249.5,107.167 249.5,101.5C 260.187,101.832 270.854,101.499 281.5,100.5C 281.145,99.4777 280.478,98.811 279.5,98.5C 279.158,97.6618 278.492,97.3284 277.5,97.5C 277.5,96.1667 276.833,95.5 275.5,95.5C 275.5,93.5 274.5,92.5 272.5,92.5C 272.262,90.5956 271.262,89.2623 269.5,88.5C 268.508,88.6716 267.842,88.3382 267.5,87.5C 267.5,86.1667 266.833,85.5 265.5,85.5C 264.903,82.5726 263.236,80.5726 260.5,79.5C 260.631,78.7611 260.464,78.0944 260,77.5C 257.939,75.5937 255.772,73.927 253.5,72.5C 252.255,70.5117 250.922,68.5117 249.5,66.5C 249.192,60.5746 249.525,54.7412 250.5,49C 271.497,48.5 292.497,48.3334 313.5,48.5C 313.5,54.1667 313.5,59.8333 313.5,65.5C 303.652,65.1729 293.986,65.5062 284.5,66.5 Z"/></g>
<g><path style="opacity:0.838" fill="#d0d0d0" d="M 328.5,46.5 C 328.5,46.8333 328.5,47.1667 328.5,47.5C 327.509,53.979 327.176,60.6457 327.5,67.5C 325.193,61.7654 324.859,55.7654 326.5,49.5C 326.64,47.9704 327.307,46.9704 328.5,46.5 Z"/></g>
<g><path style="opacity:0.029" fill="#c6c6c6" d="M 248.5,47.5 C 270.994,46.5025 293.661,46.1692 316.5,46.5C 316.824,53.3543 316.491,60.021 315.5,66.5C 315.823,59.9779 315.49,53.6446 314.5,47.5C 292.5,47.5 270.5,47.5 248.5,47.5 Z"/></g>
<g><path style="opacity:1" fill="#707070" d="M 328.5,47.5 C 328.5,47.8333 328.5,48.1667 328.5,48.5C 328.24,55.557 328.573,62.557 329.5,69.5C 328.167,69.5 327.5,68.8333 327.5,67.5C 327.176,60.6457 327.509,53.979 328.5,47.5 Z"/></g>
<g><path style="opacity:0.314" fill="#c2c2c2" d="M 179.5,46.5 C 179.5,46.8333 179.5,47.1667 179.5,47.5C 179.5,47.8333 179.5,48.1667 179.5,48.5C 179.5,72.1667 179.5,95.8333 179.5,119.5C 178.783,98.4918 178.116,77.3252 177.5,56C 177.991,53.7942 177.991,51.7942 177.5,50C 178.085,48.6976 178.751,47.531 179.5,46.5 Z"/></g>
<g><path style="opacity:0.843" fill="#cecece" d="M 393.5,46.5 C 394.249,47.531 394.915,48.6976 395.5,50C 395.375,54.5618 395.375,59.2285 395.5,64C 395.192,65.4595 394.525,66.6261 393.5,67.5C 393.5,67.1667 393.5,66.8333 393.5,66.5C 393.5,60.8333 393.5,55.1667 393.5,49.5C 393.5,48.8333 393.5,48.1667 393.5,47.5C 393.5,47.1667 393.5,46.8333 393.5,46.5 Z"/></g>
<g><path style="opacity:1" fill="#b1b1b1" d="M 314.5,47.5 C 315.49,53.6446 315.823,59.9779 315.5,66.5C 315.389,67.1174 315.056,67.6174 314.5,68C 304.991,68.1701 295.658,68.6701 286.5,69.5C 284.952,69.1788 284.285,68.1788 284.5,66.5C 294.5,66.5 304.5,66.5 314.5,66.5C 314.5,60.1667 314.5,53.8333 314.5,47.5 Z"/></g>
<g><path style="opacity:1" fill="#a1a1a1" d="M 393.5,66.5 C 393.5,66.8333 393.5,67.1667 393.5,67.5C 383.773,66.8611 374.44,67.5278 365.5,69.5C 364.596,68.791 364.263,67.791 364.5,66.5C 374.167,66.5 383.833,66.5 393.5,66.5 Z"/></g>
<g><path style="opacity:0.039" fill="#e7e7e7" d="M 393.5,67.5 C 384.5,68.1667 375.5,68.8333 366.5,69.5C 366.167,69.5 365.833,69.5 365.5,69.5C 374.44,67.5278 383.773,66.8611 393.5,67.5 Z"/></g>
<g><path style="opacity:0.855" fill="#242424" d="M 179.5,48.5 C 179.5,48.1667 179.5,47.8333 179.5,47.5C 198.5,47.5 217.5,47.5 236.5,47.5C 236.5,54.8333 236.5,62.1667 236.5,69.5C 225.833,69.5 215.167,69.5 204.5,69.5C 204.167,69.5 203.833,69.5 203.5,69.5C 213.781,67.5238 224.448,66.8572 235.5,67.5C 235.5,61.1667 235.5,54.8333 235.5,48.5C 216.833,48.5 198.167,48.5 179.5,48.5 Z"/></g>
<g><path style="opacity:0.101" fill="#d4d4d4" d="M 329.5,69.5 C 330.833,69.5 331.5,70.1667 331.5,71.5C 330.167,71.5 329.5,70.8333 329.5,69.5 Z"/></g>
<g><path style="opacity:0.006" fill="#f0f0f0" d="M 372.5,70.5 C 372.897,69.475 373.563,69.3083 374.5,70C 373.906,70.4643 373.239,70.631 372.5,70.5 Z"/></g>
<g><path style="opacity:0.027" fill="#eaebea" d="M 246.5,70.5 C 247.833,71.1667 247.833,71.1667 246.5,70.5 Z"/></g>
<g><path style="opacity:0.027" fill="#c5c5c5" d="M 248.5,66.5 C 248.833,66.5 249.167,66.5 249.5,66.5C 250.922,68.5117 252.255,70.5117 253.5,72.5C 252.417,72.4606 251.417,72.1272 250.5,71.5C 249.772,69.8068 248.772,68.3068 247.5,67C 247.728,66.6012 248.062,66.4346 248.5,66.5 Z"/></g>
<g><path style="opacity:0.043" fill="#b0b0b0" d="M 366.5,69.5 C 369.534,70.8724 371.534,73.2057 372.5,76.5C 371.5,76.5 370.5,76.5 369.5,76.5C 368.523,74.1791 367.523,71.8458 366.5,69.5 Z"/></g>
<g><path style="opacity:0.008" fill="#eff0ef" d="M 370.5,70.5 C 371.833,71.1667 371.833,71.1667 370.5,70.5 Z"/></g>
<g><path style="opacity:0.149" fill="#b0b0b0" d="M 286.5,69.5 C 289.396,70.398 291.729,72.0647 293.5,74.5C 293.5,75.1667 293.5,75.8333 293.5,76.5C 290.833,74.5 288.5,72.1667 286.5,69.5 Z"/></g>
<g><path style="opacity:1" fill="#bbbbbb" d="M 331.5,71.5 C 333.5,72.8333 335.167,74.5 336.5,76.5C 333.833,75.8333 332.167,74.1667 331.5,71.5 Z"/></g>
<g><path style="opacity:0.016" fill="#edeeed" d="M 251.5,73.5 C 252.833,74.1667 252.833,74.1667 251.5,73.5 Z"/></g>
<g><path style="opacity:0.02" fill="#ecedec" d="M 293.5,73.5 C 294.833,74.1667 294.833,74.1667 293.5,73.5 Z"/></g>
<g><path style="opacity:0.008" fill="#eff0ef" d="M 249.5,74.5 C 250.833,75.1667 250.833,75.1667 249.5,74.5 Z"/></g>
<g><path style="opacity:0.039" fill="#b6b6b6" d="M 253.5,72.5 C 255.772,73.927 257.939,75.5937 260,77.5C 260.464,78.0944 260.631,78.7611 260.5,79.5C 259.833,79.5 259.167,79.5 258.5,79.5C 255.972,77.2793 254.305,74.946 253.5,72.5 Z"/></g>
<g><path style="opacity:0.043" fill="#e6e7e6" d="M 331.5,75.5 C 332.833,76.1667 332.833,76.1667 331.5,75.5 Z"/></g>
<g><path style="opacity:0.947" fill="#dfdfdf" d="M 203.5,69.5 C 203.833,69.5 204.167,69.5 204.5,69.5C 206.744,70.6116 206.744,72.1116 204.5,74C 205.833,81.3333 205.833,88.6667 204.5,96C 215.674,96.1695 226.674,96.6695 237.5,97.5C 226.167,97.5 214.833,97.5 203.5,97.5C 203.5,88.1667 203.5,78.8333 203.5,69.5 Z"/></g>
<g><path style="opacity:0.004" fill="#f0f1f0" d="M 298.5,77.5 C 299.833,78.1667 299.833,78.1667 298.5,77.5 Z"/></g>
<g><path style="opacity:1" fill="#b6b6b6" d="M 372.5,76.5 C 374.833,76.8333 376.167,78.1667 376.5,80.5C 374.5,79.8333 373.167,78.5 372.5,76.5 Z"/></g>
<g><path style="opacity:0.016" fill="#edeeed" d="M 378.5,78.5 C 379.833,79.1667 379.833,79.1667 378.5,78.5 Z"/></g>
<g><path style="opacity:0.004" fill="#f0f1f0" d="M 258.5,79.5 C 257.833,80.1667 257.833,80.1667 258.5,79.5 Z"/></g>
<g><path style="opacity:1" fill="#c0c0c0" d="M 293.5,76.5 C 296.167,77.1667 297.833,78.8333 298.5,81.5C 297.833,78.8333 296.167,77.1667 293.5,76.5 Z"/></g>
<g><path style="opacity:0.192" fill="#a8a8a8" d="M 336.5,76.5 C 339.833,77.8333 342.167,80.1667 343.5,83.5C 342.325,83.719 341.325,83.3857 340.5,82.5C 338.364,81.0312 337.03,79.0312 336.5,76.5 Z"/></g>
<g><path style="opacity:1" fill="#a0a0a0" d="M 260.5,79.5 C 263.236,80.5726 264.903,82.5726 265.5,85.5C 263.14,84.135 261.473,82.135 260.5,79.5 Z"/></g>
<g><path style="opacity:0.024" fill="#ebeceb" d="M 334.5,80.5 C 335.833,81.1667 335.833,81.1667 334.5,80.5 Z"/></g>
<g><path style="opacity:0.008" fill="#eff0ef" d="M 337.5,81.5 C 338.833,82.1667 338.833,82.1667 337.5,81.5 Z"/></g>
<g><path style="opacity:0.016" fill="#edeeed" d="M 259.5,82.5 C 260.833,83.1667 260.833,83.1667 259.5,82.5 Z"/></g>
<g><path style="opacity:0.004" fill="#f0f1f0" d="M 334.5,82.5 C 335.833,83.1667 335.833,83.1667 334.5,82.5 Z"/></g>
<g><path style="opacity:1" fill="#a2a2a2" d="M 376.5,80.5 C 378.86,81.865 380.527,83.865 381.5,86.5C 379.976,85.8262 378.642,84.8262 377.5,83.5C 376.614,82.675 376.281,81.675 376.5,80.5 Z"/></g>
<g><path style="opacity:0.024" fill="#ebeceb" d="M 383.5,84.5 C 384.833,85.1667 384.833,85.1667 383.5,84.5 Z"/></g>
<g><path style="opacity:0.067" fill="#d2d2d2" d="M 265.5,85.5 C 266.833,85.5 267.5,86.1667 267.5,87.5C 265.007,87.8693 264.34,87.2027 265.5,85.5 Z"/></g>
<g><path style="opacity:0.004" fill="#f0f1f0" d="M 305.5,86.5 C 306.833,87.1667 306.833,87.1667 305.5,86.5 Z"/></g>
<g><path style="opacity:0.235" fill="#9f9f9f" d="M 343.5,83.5 C 345.282,84.9908 346.948,86.6575 348.5,88.5C 345.5,88.1667 343.833,86.5 343.5,83.5 Z"/></g>
<g><path style="opacity:0.243" fill="#b0b0b0" d="M 381.5,86.5 C 382.833,86.5 383.5,87.1667 383.5,88.5C 383.5,87.1667 382.833,86.5 381.5,86.5 Z"/></g>
<g><path style="opacity:0.004" fill="#f0f1f0" d="M 386.5,87.5 C 387.833,88.1667 387.833,88.1667 386.5,87.5 Z"/></g>
<g><path style="opacity:0.016" fill="#edeeed" d="M 265.5,88.5 C 266.833,89.1667 266.833,89.1667 265.5,88.5 Z"/></g>
<g><path style="opacity:1" fill="#818181" d="M 298.5,81.5 C 300.514,83.845 302.847,85.845 305.5,87.5C 306.167,88.8333 306.833,90.1667 307.5,91.5C 302.468,90.1169 299.468,86.7836 298.5,81.5 Z"/></g>
<g><path style="opacity:0.012" fill="#eeeeee" d="M 308.5,88.5 C 309.525,88.8966 309.692,89.5632 309,90.5C 308.536,89.9056 308.369,89.2389 308.5,88.5 Z"/></g>
<g><path style="opacity:0.02" fill="#ecedec" d="M 345.5,89.5 C 346.833,90.1667 346.833,90.1667 345.5,89.5 Z"/></g>
<g><path style="opacity:0.451" fill="#8d8d8d" d="M 348.5,88.5 C 349.833,88.5 350.5,89.1667 350.5,90.5C 348.797,91.6602 348.131,90.9935 348.5,88.5 Z"/></g>
<g><path style="opacity:0.208" fill="#b7b7b7" d="M 269.5,88.5 C 271.262,89.2623 272.262,90.5956 272.5,92.5C 271.069,91.9181 269.736,91.0848 268.5,90C 269.056,89.6174 269.389,89.1174 269.5,88.5 Z"/></g>
<g><path style="opacity:1" fill="#b0b0b0" d="M 383.5,88.5 C 386.167,89.1667 387.833,90.8333 388.5,93.5C 387.833,90.8333 386.167,89.1667 383.5,88.5 Z"/></g>
<g><path style="opacity:0.133" fill="#bfbfbf" d="M 307.5,91.5 C 308.833,91.5 309.5,92.1667 309.5,93.5C 309.5,92.1667 308.833,91.5 307.5,91.5 Z"/></g>
<g><path style="opacity:1" fill="#adadad" d="M 272.5,92.5 C 274.5,92.5 275.5,93.5 275.5,95.5C 273.5,95.5 272.5,94.5 272.5,92.5 Z"/></g>
<g><path style="opacity:0.314" fill="#a5a5a5" d="M 350.5,90.5 C 352.387,91.6563 353.721,93.323 354.5,95.5C 352.065,94.7298 350.731,93.0632 350.5,90.5 Z"/></g>
<g><path style="opacity:0.043" fill="#e4e4e4" d="M 388.5,93.5 C 389.833,93.5 390.5,94.1667 390.5,95.5C 390.5,94.1667 389.833,93.5 388.5,93.5 Z"/></g>
<g><path style="opacity:0.035" fill="#e8e9e8" d="M 350.5,95.5 C 351.833,96.1667 351.833,96.1667 350.5,95.5 Z"/></g>
<g><path style="opacity:0.349" fill="#a2a2a2" d="M 275.5,95.5 C 276.833,95.5 277.5,96.1667 277.5,97.5C 276.167,97.5 275.5,96.8333 275.5,95.5 Z"/></g>
<g><path style="opacity:0.482" fill="#9d9d9d" d="M 309.5,93.5 C 311.446,94.0347 312.446,95.368 312.5,97.5C 310.554,96.9653 309.554,95.632 309.5,93.5 Z"/></g>
<g><path style="opacity:0.027" fill="#eaebea" d="M 314.5,96.5 C 315.833,97.1667 315.833,97.1667 314.5,96.5 Z"/></g>
<g><path style="opacity:0.027" fill="#eaebea" d="M 354.5,96.5 C 353.833,97.1667 353.833,97.1667 354.5,96.5 Z"/></g>
<g><path style="opacity:1" fill="#616161" d="M 203.5,97.5 C 214.833,97.5 226.167,97.5 237.5,97.5C 238.833,104.833 238.833,112.167 237.5,119.5C 237.167,119.5 236.833,119.5 236.5,119.5C 236.812,112.578 236.479,105.744 235.5,99C 224.659,98.8304 213.992,98.3304 203.5,97.5 Z"/></g>
<g><path style="opacity:0.13" fill="#d1d1d1" d="M 277.5,98.5 C 268.167,99.1667 258.833,99.8333 249.5,100.5C 249.167,100.5 248.833,100.5 248.5,100.5C 247.262,100.19 247.262,99.69 248.5,99C 258.161,98.5002 267.828,98.3335 277.5,98.5 Z"/></g>
<g><path style="opacity:0.131" fill="#c4c4c4" d="M 357.5,98.5 C 357.611,99.1174 357.944,99.6174 358.5,100C 348.506,100.5 338.506,100.666 328.5,100.5C 327.51,106.645 327.177,112.978 327.5,119.5C 326.107,117.489 325.44,115.155 325.5,112.5C 325.915,107.915 326.582,103.415 327.5,99C 337.494,98.5002 347.494,98.3335 357.5,98.5 Z"/></g>
<g><path style="opacity:1" fill="#a2a2a2" d="M 277.5,97.5 C 278.492,97.3284 279.158,97.6618 279.5,98.5C 269.889,100.474 259.889,101.141 249.5,100.5C 258.833,99.8333 268.167,99.1667 277.5,98.5C 277.5,98.1667 277.5,97.8333 277.5,97.5 Z"/></g>
<g><path style="opacity:1" fill="#272727" d="M 279.5,98.5 C 280.478,98.811 281.145,99.4777 281.5,100.5C 270.854,101.499 260.187,101.832 249.5,101.5C 249.5,107.167 249.5,112.833 249.5,118.5C 249.167,118.5 248.833,118.5 248.5,118.5C 248.5,112.5 248.5,106.5 248.5,100.5C 248.833,100.5 249.167,100.5 249.5,100.5C 259.889,101.141 269.889,100.474 279.5,98.5 Z"/></g>
<g><path style="opacity:0.243" fill="#b9b9b9" d="M 390.5,95.5 C 391.794,96.2899 392.961,97.2899 394,98.5C 394.821,105.679 394.655,112.679 393.5,119.5C 393.666,112.825 393.5,106.158 393,99.5C 391.519,98.5291 390.685,97.1958 390.5,95.5 Z"/></g>
<g><path style="opacity:0.224" fill="#bfbfbf" d="M 179.5,119.5 C 198.5,119.5 217.5,119.5 236.5,119.5C 236.833,119.5 237.167,119.5 237.5,119.5C 237.53,120.497 237.03,121.164 236,121.5C 217.172,120.202 198.506,120.202 180,121.5C 179.536,120.906 179.369,120.239 179.5,119.5 Z"/></g>
<g><path style="opacity:0.224" fill="#bfbfbf" d="M 312.5,97.5 C 313.167,97.5 313.833,97.5 314.5,97.5C 314.783,98.2891 315.283,98.9558 316,99.5C 316.72,106.536 316.553,113.536 315.5,120.5C 293.868,120.178 272.368,120.511 251,121.5C 249.745,120.789 248.579,119.956 247.5,119C 247.728,118.601 248.062,118.435 248.5,118.5C 248.833,118.5 249.167,118.5 249.5,118.5C 270.994,119.497 292.66,119.831 314.5,119.5C 315.012,111.961 314.345,104.628 312.5,97.5 Z"/></g>
<g><path style="opacity:0.224" fill="#aeaeae" d="M 328.5,100.5 C 328.5,106.833 328.5,113.167 328.5,119.5C 350.167,119.5 371.833,119.5 393.5,119.5C 393.631,120.239 393.464,120.906 393,121.5C 373.158,120.184 352.992,120.184 332.5,121.5C 330.578,121.199 328.912,120.533 327.5,119.5C 327.177,112.978 327.51,106.645 328.5,100.5 Z"/></g>
<g><path style="opacity:0.149" fill="#bcd7e4" d="M 490.5,167.5 C 490.5,164.5 490.5,161.5 490.5,158.5C 354.668,157.5 218.668,157.167 82.5,157.5C 82.1795,162.695 82.5128,167.695 83.5,172.5C 83.5688,177.854 83.9022,183.187 84.5,188.5C 84.8333,193.833 85.1667,199.167 85.5,204.5C 84.8826,204.389 84.3826,204.056 84,203.5C 82.9447,188.568 81.4447,173.735 79.5,159C 80.3366,157.989 80.67,156.822 80.5,155.5C 216.522,155.83 352.522,155.497 488.5,154.5C 490.741,155.071 492.408,156.404 493.5,158.5C 493.024,161.793 492.024,164.793 490.5,167.5 Z"/></g>
<g><path style="opacity:0.02" fill="#fbf5ec" d="M 78.5,156.5 C 79.8333,157.167 79.8333,157.167 78.5,156.5 Z"/></g>
<g><path style="opacity:1" fill="#247dbb" d="M 490.5,158.5 C 354.833,158.5 219.167,158.5 83.5,158.5C 83.5,163.167 83.5,167.833 83.5,172.5C 82.5128,167.695 82.1795,162.695 82.5,157.5C 218.668,157.167 354.668,157.5 490.5,158.5 Z"/></g>
<g><path style="opacity:0.004" fill="#fef9f0" d="M 493.5,161.5 C 494.833,162.167 494.833,162.167 493.5,161.5 Z"/></g>
<g><path style="opacity:1" fill="#0d74b8" d="M 490.5,158.5 C 490.5,161.5 490.5,164.5 490.5,167.5C 490.5,167.833 490.5,168.167 490.5,168.5C 489.778,168.918 489.278,169.584 489,170.5C 488.501,175.155 488.334,179.821 488.5,184.5C 487.861,191.148 487.527,197.814 487.5,204.5C 487.5,207.167 487.5,209.833 487.5,212.5C 485.57,216.373 484.903,220.706 485.5,225.5C 485.5,226.5 485.5,227.5 485.5,228.5C 483.598,231.337 482.931,234.671 483.5,238.5C 483.5,240.5 483.5,242.5 483.5,244.5C 482.188,246.743 481.522,249.41 481.5,252.5C 480.911,259.49 480.578,266.49 480.5,273.5C 480.5,275.5 480.5,277.5 480.5,279.5C 478.855,284.234 478.189,289.234 478.5,294.5C 478.5,297.167 478.5,299.833 478.5,302.5C 478.5,304.5 478.5,306.5 478.5,308.5C 476.577,312.029 475.911,316.029 476.5,320.5C 476.5,321.833 476.5,323.167 476.5,324.5C 474.844,331.483 473.677,338.816 473,346.5C 472.537,355.174 472.037,363.841 471.5,372.5C 471.5,375.167 471.5,377.833 471.5,380.5C 471.5,383.167 471.5,385.833 471.5,388.5C 466.424,424.044 463.091,460.044 461.5,496.5C 461.5,497.833 461.5,499.167 461.5,500.5C 460.275,505.29 459.608,510.29 459.5,515.5C 459.5,518.5 459.5,521.5 459.5,524.5C 456.082,540.143 454.415,556.143 454.5,572.5C 454.5,573.833 454.5,575.167 454.5,576.5C 453.167,576.5 451.833,576.5 450.5,576.5C 448.517,576.157 447.183,576.824 446.5,578.5C 445.833,578.5 445.167,578.5 444.5,578.5C 442.102,578.259 440.102,578.926 438.5,580.5C 432.305,580.276 426.971,581.942 422.5,585.5C 421.5,585.5 420.5,585.5 419.5,585.5C 416.513,585.998 413.513,586.498 410.5,587C 409.944,587.383 409.611,587.883 409.5,588.5C 408.5,588.5 407.5,588.5 406.5,588.5C 404.517,588.157 403.183,588.824 402.5,590.5C 395.956,590.575 389.956,592.242 384.5,595.5C 383.5,595.5 382.5,595.5 381.5,595.5C 375.627,595.974 369.961,597.141 364.5,599C 362.111,599.739 360.111,600.905 358.5,602.5C 357.833,602.5 357.167,602.5 356.5,602.5C 354.102,602.259 352.102,602.926 350.5,604.5C 347.962,604.507 345.462,604.841 343,605.5C 341.624,605.684 340.791,606.351 340.5,607.5C 339.833,607.5 339.167,607.5 338.5,607.5C 330.736,608.808 323.069,610.641 315.5,613C 312.826,613.67 310.493,614.837 308.5,616.5C 308.167,616.5 307.833,616.5 307.5,616.5C 304.772,616.171 302.438,616.837 300.5,618.5C 298.152,618.67 295.818,619.003 293.5,619.5C 291.97,619.64 290.97,620.307 290.5,621.5C 289.833,621.5 289.167,621.5 288.5,621.5C 287.167,621.5 285.833,621.5 284.5,621.5C 283.833,621.5 283.167,621.5 282.5,621.5C 279.047,619.94 275.38,618.44 271.5,617C 269.527,616.505 267.527,616.338 265.5,616.5C 264.5,616.5 263.5,616.5 262.5,616.5C 261.817,614.824 260.483,614.157 258.5,614.5C 257.833,614.5 257.167,614.5 256.5,614.5C 251.713,611.811 246.38,610.144 240.5,609.5C 239.833,609.5 239.167,609.5 238.5,609.5C 236.365,607.631 233.698,606.964 230.5,607.5C 228.478,605.307 225.811,604.307 222.5,604.5C 220.562,602.837 218.228,602.171 215.5,602.5C 215.167,602.5 214.833,602.5 214.5,602.5C 207.144,599.332 199.477,596.999 191.5,595.5C 190.167,595.5 188.833,595.5 187.5,595.5C 187.389,594.883 187.056,594.383 186.5,594C 179.842,591.837 173.175,590.004 166.5,588.5C 165.5,588.5 164.5,588.5 163.5,588.5C 163.389,587.883 163.056,587.383 162.5,587C 159.522,586.304 156.522,585.804 153.5,585.5C 153.167,585.5 152.833,585.5 152.5,585.5C 147.128,582.188 141.128,580.521 134.5,580.5C 131.829,578.882 128.829,578.215 125.5,578.5C 125.027,577.094 124.027,576.427 122.5,576.5C 119.463,578.186 118.13,577.186 118.5,573.5C 118.57,556.686 116.904,540.353 113.5,524.5C 113.5,521.167 113.5,517.833 113.5,514.5C 114.103,509.381 113.436,504.715 111.5,500.5C 111.5,499.167 111.5,497.833 111.5,496.5C 110.387,479.959 108.721,463.626 106.5,447.5C 105.167,444.167 105.167,440.833 106.5,437.5C 106.5,434.5 106.5,431.5 106.5,428.5C 106.884,424.511 106.217,420.845 104.5,417.5C 103.087,401.192 101.92,384.858 101,368.5C 100.79,366.942 100.29,365.609 99.5,364.5C 99.5,362.833 99.5,361.167 99.5,359.5C 98.1686,343.176 97.0019,326.843 96,310.5C 95.7216,309.584 95.2216,308.918 94.5,308.5C 94.5,306.833 94.5,305.167 94.5,303.5C 94.6658,298.821 94.4992,294.155 94,289.5C 93.7216,288.584 93.2216,287.918 92.5,287.5C 91.7217,271.493 90.7217,255.493 89.5,239.5C 90.0803,235.351 89.4136,231.684 87.5,228.5C 87.5,227.167 87.5,225.833 87.5,224.5C 87.5,220.5 87.5,216.5 87.5,212.5C 87.0769,205.5 86.5769,198.5 86,191.5C 85.7679,190.263 85.2679,189.263 84.5,188.5C 83.9022,183.187 83.5688,177.854 83.5,172.5C 83.5,167.833 83.5,163.167 83.5,158.5C 219.167,158.5 354.833,158.5 490.5,158.5 Z"/></g>
<g><path style="opacity:0.006" fill="#fff8f0" d="M 492.5,172.5 C 493.525,172.897 493.692,173.563 493,174.5C 492.536,173.906 492.369,173.239 492.5,172.5 Z"/></g>
<g><path style="opacity:0.012" fill="#eefffe" d="M 493.5,177.5 C 494.573,178.251 494.74,179.251 494,180.5C 493.517,179.552 493.351,178.552 493.5,177.5 Z"/></g>
<g><path style="opacity:1" fill="#8fbddf" d="M 490.5,168.5 C 491.012,171.632 491.012,174.965 490.5,178.5C 489.833,180.5 489.167,182.5 488.5,184.5C 488.334,179.821 488.501,175.155 489,170.5C 489.278,169.584 489.778,168.918 490.5,168.5 Z"/></g>
<g><path style="opacity:1" fill="#2294d1" d="M 452.5,204.5 C 452.505,200.466 452.838,196.466 453.5,192.5C 397.833,192.5 342.167,192.5 286.5,192.5C 342.157,190.504 398.157,189.837 454.5,190.5C 455.103,195.619 454.436,200.285 452.5,204.5 Z"/></g>
<g><path style="opacity:0.11" fill="#cde6f1" d="M 490.5,178.5 C 491.043,178.56 491.376,178.893 491.5,179.5C 490.027,187.075 489.194,194.741 489,202.5C 488.722,203.416 488.222,204.082 487.5,204.5C 487.527,197.814 487.861,191.148 488.5,184.5C 489.167,182.5 489.833,180.5 490.5,178.5 Z"/></g>
<g><path style="opacity:1" fill="#2faadd" d="M 286.5,192.5 C 342.167,192.5 397.833,192.5 453.5,192.5C 452.838,196.466 452.505,200.466 452.5,204.5C 452.5,207.167 452.5,209.833 452.5,212.5C 451.778,212.918 451.278,213.584 451,214.5C 449.67,227.139 448.837,239.805 448.5,252.5C 444.474,297.976 440.474,343.476 436.5,389C 435.906,394.209 435.072,399.376 434,404.5C 432.37,423.474 431.203,442.474 430.5,461.5C 427.846,471.428 426.513,481.761 426.5,492.5C 424.836,511.128 423.502,529.794 422.5,548.5C 390.172,556.849 358.172,566.016 326.5,576C 322.833,576.333 319.167,576.667 315.5,577C 306.021,580.402 296.354,583.236 286.5,585.5C 286.5,568.167 286.5,550.833 286.5,533.5C 288.698,533.88 290.365,533.213 291.5,531.5C 310.17,526.667 328.837,521.833 347.5,517C 353.453,513.928 359.786,512.262 366.5,512C 374.197,508.629 382.197,506.462 390.5,505.5C 392.067,504.319 392.901,502.653 393,500.5C 393.499,495.177 393.666,489.844 393.5,484.5C 397.165,444.535 400.498,404.535 403.5,364.5C 404.473,362.052 404.806,359.385 404.5,356.5C 405.479,353.375 405.813,350.042 405.5,346.5C 368.152,347.16 331.152,346.494 294.5,344.5C 296.581,343.01 298.914,342.01 301.5,341.5C 310.032,338.548 318.365,335.214 326.5,331.5C 328.21,330.113 329.877,328.779 331.5,327.5C 335.313,326.84 338.979,325.674 342.5,324C 349.035,321.504 355.035,318.337 360.5,314.5C 370.452,312.019 379.785,308.186 388.5,303C 394.428,301.674 400.094,299.508 405.5,296.5C 406.298,296.043 406.631,295.376 406.5,294.5C 407.833,294.5 409.167,294.5 410.5,294.5C 411.972,287.049 412.639,279.382 412.5,271.5C 414.037,262.577 414.704,253.577 414.5,244.5C 372.18,242.505 329.513,241.839 286.5,242.5C 286.5,241.833 286.5,241.167 286.5,240.5C 286.5,239.167 286.5,237.833 286.5,236.5C 286.5,221.833 286.5,207.167 286.5,192.5 Z"/></g>
<g><path style="opacity:0.022" fill="#f4f8ec" d="M 492.5,200.5 C 493.598,201.601 493.765,202.934 493,204.5C 492.51,203.207 492.343,201.873 492.5,200.5 Z"/></g>
<g><path style="opacity:0.016" fill="#eefff9" d="M 82.5,204.5 C 81.475,204.103 81.3083,203.437 82,202.5C 82.4643,203.094 82.631,203.761 82.5,204.5 Z"/></g>
<g><path style="opacity:0.004" fill="#fefcf0" d="M 78.5,204.5 C 79.8333,205.167 79.8333,205.167 78.5,204.5 Z"/></g>
<g><path style="opacity:0.004" fill="#f0fffe" d="M 82.5,204.5 C 83.3382,204.842 83.6716,205.508 83.5,206.5C 82.6618,206.158 82.3284,205.492 82.5,204.5 Z"/></g>
<g><path style="opacity:0.01" fill="#fffaee" d="M 83.5,206.5 C 84.4614,208.265 84.7947,210.265 84.5,212.5C 83.5386,210.735 83.2053,208.735 83.5,206.5 Z"/></g>
<g><path style="opacity:0.008" fill="#fbfbf2" d="M 488.5,212.5 C 488.248,209.68 488.748,207.014 490,204.5C 490.193,207.364 489.693,210.03 488.5,212.5 Z"/></g>
<g><path style="opacity:0.565" fill="#4f9ccf" d="M 84.5,188.5 C 85.2679,189.263 85.7679,190.263 86,191.5C 86.5769,198.5 87.0769,205.5 87.5,212.5C 86.8333,212.5 86.1667,212.5 85.5,212.5C 85.5,209.833 85.5,207.167 85.5,204.5C 85.1667,199.167 84.8333,193.833 84.5,188.5 Z"/></g>
<g><path style="opacity:1" fill="#c4dce8" d="M 487.5,212.5 C 487.833,212.5 488.167,212.5 488.5,212.5C 488.001,216.49 487.501,220.49 487,224.5C 486.617,225.056 486.117,225.389 485.5,225.5C 484.903,220.706 485.57,216.373 487.5,212.5 Z"/></g>
<g><path style="opacity:0.008" fill="#fcf9f0" d="M 489.5,217.5 C 490.573,218.251 490.74,219.251 490,220.5C 489.517,219.552 489.351,218.552 489.5,217.5 Z"/></g>
<g><path style="opacity:0.118" fill="#c4daeb" d="M 84.5,212.5 C 84.8333,212.5 85.1667,212.5 85.5,212.5C 86.1667,212.5 86.8333,212.5 87.5,212.5C 87.5,216.5 87.5,220.5 87.5,224.5C 85.5321,220.983 84.5321,216.983 84.5,212.5 Z"/></g>
<g><path style="opacity:1" fill="#67a9cd" d="M 485.5,228.5 C 485.5,231.167 485.5,233.833 485.5,236.5C 484.833,237.167 484.167,237.833 483.5,238.5C 482.931,234.671 483.598,231.337 485.5,228.5 Z"/></g>
<g><path style="opacity:1" fill="#71afd2" d="M 87.5,228.5 C 89.4136,231.684 90.0803,235.351 89.5,239.5C 88.8333,238.5 88.1667,237.5 87.5,236.5C 87.5,233.833 87.5,231.167 87.5,228.5 Z"/></g>
<g><path style="opacity:1" fill="#0e73b8" d="M 286.5,236.5 C 286.5,237.833 286.5,239.167 286.5,240.5C 243.832,240.667 201.165,240.5 158.5,240C 157.167,239 155.833,238 154.5,237C 198.499,236.5 242.499,236.333 286.5,236.5 Z"/></g>
<g><path style="opacity:1" fill="#b3cbde" d="M 286.5,242.5 C 286.5,243.167 286.5,243.833 286.5,244.5C 243.833,244.5 201.167,244.5 158.5,244.5C 200.82,242.505 243.487,241.839 286.5,242.5 Z"/></g>
<g><path style="opacity:1" fill="#c7e8fb" d="M 286.5,242.5 C 329.513,241.839 372.18,242.505 414.5,244.5C 371.833,244.5 329.167,244.5 286.5,244.5C 286.5,243.833 286.5,243.167 286.5,242.5 Z"/></g>
<g><path style="opacity:1" fill="#fefefe" d="M 286.5,244.5 C 329.167,244.5 371.833,244.5 414.5,244.5C 414.704,253.577 414.037,262.577 412.5,271.5C 411.698,272.952 411.198,274.618 411,276.5C 410.501,282.491 410.334,288.491 410.5,294.5C 409.167,294.5 407.833,294.5 406.5,294.5C 397.833,294.5 389.167,294.5 380.5,294.5C 367.833,294.5 355.167,294.5 342.5,294.5C 326.794,294.118 311.128,294.618 295.5,296C 298.064,297.736 297.731,298.902 294.5,299.5C 292.631,298.835 290.631,298.169 288.5,297.5C 292.11,295.288 291.443,294.288 286.5,294.5C 286.5,277.833 286.5,261.167 286.5,244.5 Z"/></g>
<g><path style="opacity:0.167" fill="#cae0f1" d="M 485.5,236.5 C 486.097,236.735 486.43,237.235 486.5,238C 485.239,246.648 483.906,255.148 482.5,263.5C 482.653,257.155 482.986,250.822 483.5,244.5C 483.5,242.5 483.5,240.5 483.5,238.5C 484.167,237.833 484.833,237.167 485.5,236.5 Z"/></g>
<g><path style="opacity:1" fill="#ebebeb" d="M 158.5,244.5 C 201.167,244.5 243.833,244.5 286.5,244.5C 286.5,261.167 286.5,277.833 286.5,294.5C 245.167,294.5 203.833,294.5 162.5,294.5C 161.641,283.008 160.641,271.675 159.5,260.5C 158.512,255.36 158.179,250.026 158.5,244.5 Z"/></g>
<g><path style="opacity:0.176" fill="#c4dfee" d="M 87.5,236.5 C 88.1667,237.5 88.8333,238.5 89.5,239.5C 90.7217,255.493 91.7217,271.493 92.5,287.5C 90.6805,270.939 88.6805,254.272 86.5,237.5C 86.6236,236.893 86.9569,236.56 87.5,236.5 Z"/></g>
<g><path style="opacity:1" fill="#198ac7" d="M 452.5,212.5 C 452.463,226.101 451.13,239.434 448.5,252.5C 448.837,239.805 449.67,227.139 451,214.5C 451.278,213.584 451.778,212.918 452.5,212.5 Z"/></g>
<g><path style="opacity:1" fill="#559dc9" d="M 483.5,244.5 C 482.986,250.822 482.653,257.155 482.5,263.5C 482.5,265.167 482.5,266.833 482.5,268.5C 481.833,270.167 481.167,271.833 480.5,273.5C 480.578,266.49 480.911,259.49 481.5,252.5C 481.522,249.41 482.188,246.743 483.5,244.5 Z"/></g>
<g><path style="opacity:0.102" fill="#d2ebf3" d="M 482.5,268.5 C 482.816,274.75 482.15,280.75 480.5,286.5C 480.5,284.167 480.5,281.833 480.5,279.5C 480.5,277.5 480.5,275.5 480.5,273.5C 481.167,271.833 481.833,270.167 482.5,268.5 Z"/></g>
<g><path style="opacity:1" fill="#a5d7ee" d="M 412.5,271.5 C 412.639,279.382 411.972,287.049 410.5,294.5C 410.334,288.491 410.501,282.491 411,276.5C 411.198,274.618 411.698,272.952 412.5,271.5 Z"/></g>
<g><path style="opacity:0.004" fill="#fdf7f0" d="M 482.5,283.5 C 483.833,284.167 483.833,284.167 482.5,283.5 Z"/></g>
<g><path style="opacity:1" fill="#3a86bc" d="M 159.5,260.5 C 160.641,271.675 161.641,283.008 162.5,294.5C 161.025,293.738 159.691,293.405 158.5,293.5C 159.311,292.784 159.978,291.95 160.5,291C 159.536,280.873 159.203,270.707 159.5,260.5 Z"/></g>
<g><path style="opacity:0.412" fill="#76add2" d="M 480.5,279.5 C 480.5,281.833 480.5,284.167 480.5,286.5C 480.5,288.5 480.5,290.5 480.5,292.5C 479.833,293.167 479.167,293.833 478.5,294.5C 478.189,289.234 478.855,284.234 480.5,279.5 Z"/></g>
<g><path style="opacity:1" fill="#2a85be" d="M 162.5,294.5 C 203.833,294.5 245.167,294.5 286.5,294.5C 286.719,295.675 286.386,296.675 285.5,297.5C 280.554,299.812 275.554,301.812 270.5,303.5C 270.918,302.778 271.584,302.278 272.5,302C 271.244,301.583 270.577,300.75 270.5,299.5C 272.716,299.725 274.383,298.892 275.5,297C 238.502,296.5 201.502,296.333 164.5,296.5C 163.167,296.5 162.5,295.833 162.5,294.5 Z"/></g>
<g><path style="opacity:1" fill="#e1e1e1" d="M 342.5,294.5 C 355.167,294.5 367.833,294.5 380.5,294.5C 380.918,295.222 381.584,295.722 382.5,296C 372.747,296.214 363.081,297.214 353.5,299C 355.344,301.804 356.011,304.97 355.5,308.5C 362.037,309.593 362.037,310.427 355.5,311C 354.549,311.718 354.383,312.551 355,313.5C 356.699,314.406 358.533,314.739 360.5,314.5C 355.035,318.337 349.035,321.504 342.5,324C 338.979,325.674 335.313,326.84 331.5,327.5C 330.571,326.685 329.571,325.852 328.5,325C 329.448,324.517 330.448,324.351 331.5,324.5C 331.5,316.167 331.5,307.833 331.5,299.5C 332.552,299.649 333.552,299.483 334.5,299C 331.833,298.667 329.167,298.333 326.5,298C 332.364,297.481 337.698,296.314 342.5,294.5 Z"/></g>
<g><path style="opacity:1" fill="#eff0f0" d="M 342.5,294.5 C 337.698,296.314 332.364,297.481 326.5,298C 329.167,298.333 331.833,298.667 334.5,299C 333.552,299.483 332.552,299.649 331.5,299.5C 331.5,307.833 331.5,316.167 331.5,324.5C 330.448,324.351 329.448,324.517 328.5,325C 329.571,325.852 330.571,326.685 331.5,327.5C 329.877,328.779 328.21,330.113 326.5,331.5C 318.365,335.214 310.032,338.548 301.5,341.5C 301.611,340.883 301.944,340.383 302.5,340C 299.528,338.241 296.861,336.074 294.5,333.5C 295.325,332.614 296.325,332.281 297.5,332.5C 297.5,321.833 297.5,311.167 297.5,300.5C 295.901,300.768 294.568,300.434 293.5,299.5C 293.833,299.5 294.167,299.5 294.5,299.5C 297.731,298.902 298.064,297.736 295.5,296C 311.128,294.618 326.794,294.118 342.5,294.5 Z"/></g>
<g><path style="opacity:1" fill="#bad7e9" d="M 92.5,287.5 C 93.2216,287.918 93.7216,288.584 94,289.5C 94.4992,294.155 94.6658,298.821 94.5,303.5C 93.7784,303.082 93.2784,302.416 93,301.5C 92.5008,296.845 92.3342,292.179 92.5,287.5 Z"/></g>
<g><path style="opacity:1" fill="#056fbb" d="M 164.5,296.5 C 201.502,296.333 238.502,296.5 275.5,297C 274.383,298.892 272.716,299.725 270.5,299.5C 236.002,298.668 201.336,298.168 166.5,298C 165.584,297.722 164.918,297.222 164.5,296.5 Z"/></g>
<g><path style="opacity:1" fill="#d1d2d2" d="M 380.5,294.5 C 389.167,294.5 397.833,294.5 406.5,294.5C 406.631,295.376 406.298,296.043 405.5,296.5C 400.094,299.508 394.428,301.674 388.5,303C 379.785,308.186 370.452,312.019 360.5,314.5C 358.533,314.739 356.699,314.406 355,313.5C 354.383,312.551 354.549,311.718 355.5,311C 362.037,310.427 362.037,309.593 355.5,308.5C 356.011,304.97 355.344,301.804 353.5,299C 363.081,297.214 372.747,296.214 382.5,296C 381.584,295.722 380.918,295.222 380.5,294.5 Z"/></g>
<g><path style="opacity:1" fill="#fdfefe" d="M 293.5,299.5 C 294.568,300.434 295.901,300.768 297.5,300.5C 297.5,311.167 297.5,321.833 297.5,332.5C 296.325,332.281 295.325,332.614 294.5,333.5C 296.861,336.074 299.528,338.241 302.5,340C 301.944,340.383 301.611,340.883 301.5,341.5C 298.914,342.01 296.581,343.01 294.5,344.5C 293.209,344.263 292.209,344.596 291.5,345.5C 290.596,346.209 290.263,347.209 290.5,348.5C 328.167,348.5 365.833,348.5 403.5,348.5C 403.5,353.833 403.5,359.167 403.5,364.5C 400.498,404.535 397.165,444.535 393.5,484.5C 392.206,491.338 391.206,498.338 390.5,505.5C 382.197,506.462 374.197,508.629 366.5,512C 359.786,512.262 353.453,513.928 347.5,517C 328.837,521.833 310.17,526.667 291.5,531.5C 290.183,531.821 288.849,532.154 287.5,532.5C 284.734,531.033 281.734,530.2 278.5,530C 281.146,529.503 283.813,529.336 286.5,529.5C 286.5,513.833 286.5,498.167 286.5,482.5C 290.449,482.307 290.449,481.807 286.5,481C 287.167,480.667 287.833,480.333 288.5,480C 291.797,479.796 294.797,478.963 297.5,477.5C 298.919,476.549 300.585,476.216 302.5,476.5C 306.812,475.837 310.812,474.503 314.5,472.5C 315.167,472.5 315.833,472.5 316.5,472.5C 321.541,472.162 325.874,470.495 329.5,467.5C 334.167,466.833 338.833,466.167 343.5,465.5C 344.258,450.432 345.758,435.432 348,420.5C 348.5,413.174 348.666,405.841 348.5,398.5C 328.007,397.503 307.34,397.169 286.5,397.5C 286.5,364.833 286.5,332.167 286.5,299.5C 288.833,299.5 291.167,299.5 293.5,299.5 Z"/></g>
<g><path style="opacity:0.047" fill="#d4e7f1" d="M 480.5,292.5 C 480.664,295.187 480.497,297.854 480,300.5C 479.722,301.416 479.222,302.082 478.5,302.5C 478.5,299.833 478.5,297.167 478.5,294.5C 479.167,293.833 479.833,293.167 480.5,292.5 Z"/></g>
<g><path style="opacity:1" fill="#eaeaea" d="M 286.5,294.5 C 291.443,294.288 292.11,295.288 288.5,297.5C 290.631,298.169 292.631,298.835 294.5,299.5C 294.167,299.5 293.833,299.5 293.5,299.5C 291.167,299.5 288.833,299.5 286.5,299.5C 286.5,332.167 286.5,364.833 286.5,397.5C 248.5,397.5 210.5,397.5 172.5,397.5C 172.598,395.447 171.931,393.78 170.5,392.5C 170.5,388.5 170.5,384.5 170.5,380.5C 170.5,377.833 170.5,375.167 170.5,372.5C 171.333,364.512 171.499,356.512 171,348.5C 170.667,353.5 170.333,358.5 170,363.5C 169.501,358.177 169.334,352.844 169.5,347.5C 171.124,347.36 172.29,348.027 173,349.5C 176.55,348.408 180.217,347.741 184,347.5C 213.232,347.77 242.398,347.77 271.5,347.5C 273.776,346.787 276.109,346.287 278.5,346C 280.402,344.606 280.735,342.773 279.5,340.5C 278.167,340.5 276.833,340.5 275.5,340.5C 275.5,337.833 275.5,335.167 275.5,332.5C 273.833,332.5 272.167,332.5 270.5,332.5C 271.041,329.348 270.041,326.848 267.5,325C 268.448,324.517 269.448,324.351 270.5,324.5C 268.502,319.497 264.835,316.831 259.5,316.5C 259.5,315.167 259.5,313.833 259.5,312.5C 257.833,312.5 256.167,312.5 254.5,312.5C 256.297,311.607 257.63,310.274 258.5,308.5C 262.847,307.427 266.847,305.761 270.5,303.5C 275.554,301.812 280.554,299.812 285.5,297.5C 286.386,296.675 286.719,295.675 286.5,294.5 Z"/></g>
<g><path style="opacity:1" fill="#e2e2e2" d="M 254.5,312.5 C 256.167,312.5 257.833,312.5 259.5,312.5C 259.5,313.833 259.5,315.167 259.5,316.5C 264.835,316.831 268.502,319.497 270.5,324.5C 269.448,324.351 268.448,324.517 267.5,325C 270.041,326.848 271.041,329.348 270.5,332.5C 272.167,332.5 273.833,332.5 275.5,332.5C 275.5,335.167 275.5,337.833 275.5,340.5C 276.833,340.5 278.167,340.5 279.5,340.5C 280.735,342.773 280.402,344.606 278.5,346C 276.109,346.287 273.776,346.787 271.5,347.5C 242.398,347.77 213.232,347.77 184,347.5C 180.217,347.741 176.55,348.408 173,349.5C 172.29,348.027 171.124,347.36 169.5,347.5C 169.334,352.844 169.501,358.177 170,363.5C 170.333,358.5 170.667,353.5 171,348.5C 171.499,356.512 171.333,364.512 170.5,372.5C 169.833,369.833 169.167,367.167 168.5,364.5C 168.5,358.5 168.5,352.5 168.5,346.5C 168.833,346.5 169.167,346.5 169.5,346.5C 182.167,346.5 194.833,346.5 207.5,346.5C 220.538,346.827 233.538,346.327 246.5,345C 243.879,344.061 241.212,343.228 238.5,342.5C 239.025,341.808 239.692,341.308 240.5,341C 238.954,339.56 238.121,337.727 238,335.5C 236.981,334.313 235.814,333.313 234.5,332.5C 234.02,329.373 233.02,326.54 231.5,324C 233.547,322.927 235.547,321.761 237.5,320.5C 239.157,322.579 241.157,322.746 243.5,321C 246.82,319.739 247.154,318.072 244.5,316C 246.126,316.195 247.793,316.195 249.5,316C 248.542,314.853 248.875,313.853 250.5,313C 251.793,312.51 253.127,312.343 254.5,312.5 Z"/></g>
<g><path style="opacity:1" fill="#85bae0" d="M 478.5,308.5 C 478.5,311.167 478.5,313.833 478.5,316.5C 477.833,317.833 477.167,319.167 476.5,320.5C 475.911,316.029 476.577,312.029 478.5,308.5 Z"/></g>
<g><path style="opacity:1" fill="#d4d5d6" d="M 258.5,308.5 C 257.63,310.274 256.297,311.607 254.5,312.5C 253.127,312.343 251.793,312.51 250.5,313C 248.875,313.853 248.542,314.853 249.5,316C 247.793,316.195 246.126,316.195 244.5,316C 247.154,318.072 246.82,319.739 243.5,321C 241.157,322.746 239.157,322.579 237.5,320.5C 235.547,321.761 233.547,322.927 231.5,324C 233.02,326.54 234.02,329.373 234.5,332.5C 235.814,333.313 236.981,334.313 238,335.5C 238.121,337.727 238.954,339.56 240.5,341C 239.692,341.308 239.025,341.808 238.5,342.5C 241.212,343.228 243.879,344.061 246.5,345C 233.538,346.327 220.538,346.827 207.5,346.5C 209.631,345.686 211.964,345.186 214.5,345C 209.5,344.667 204.5,344.333 199.5,344C 207.834,343.479 208.167,342.813 200.5,342C 202.473,341.505 204.473,341.338 206.5,341.5C 206.5,340.5 206.5,339.5 206.5,338.5C 203.813,338.664 201.146,338.497 198.5,338C 200.155,336.556 200.822,334.722 200.5,332.5C 202.282,331.28 204.282,330.614 206.5,330.5C 210.853,330.154 214.52,328.487 217.5,325.5C 231.221,320.145 244.887,314.479 258.5,308.5 Z"/></g>
<g><path style="opacity:1" fill="#87acc8" d="M 217.5,325.5 C 214.52,328.487 210.853,330.154 206.5,330.5C 209.644,328.101 213.31,326.435 217.5,325.5 Z"/></g>
<g><path style="opacity:1" fill="#5ea0cd" d="M 476.5,324.5 C 476.034,330.491 475.701,336.491 475.5,342.5C 475.5,343.5 475.5,344.5 475.5,345.5C 474.732,346.263 474.232,347.263 474,348.5C 473.501,352.821 473.334,357.154 473.5,361.5C 473.5,363.833 473.5,366.167 473.5,368.5C 472.833,369.833 472.167,371.167 471.5,372.5C 472.037,363.841 472.537,355.174 473,346.5C 473.677,338.816 474.844,331.483 476.5,324.5 Z"/></g>
<g><path style="opacity:0.012" fill="#d9edf8" d="M 478.5,316.5 C 478.115,325.38 477.115,334.047 475.5,342.5C 475.701,336.491 476.034,330.491 476.5,324.5C 476.5,323.167 476.5,321.833 476.5,320.5C 477.167,319.167 477.833,317.833 478.5,316.5 Z"/></g>
<g><path style="opacity:1" fill="#c4c6c8" d="M 200.5,332.5 C 200.822,334.722 200.155,336.556 198.5,338C 201.146,338.497 203.813,338.664 206.5,338.5C 206.5,339.5 206.5,340.5 206.5,341.5C 204.473,341.338 202.473,341.505 200.5,342C 208.167,342.813 207.834,343.479 199.5,344C 204.5,344.333 209.5,344.667 214.5,345C 211.964,345.186 209.631,345.686 207.5,346.5C 194.833,346.5 182.167,346.5 169.5,346.5C 179.704,341.688 190.037,337.022 200.5,332.5 Z"/></g>
<g><path style="opacity:1" fill="#b8dbfe" d="M 294.5,344.5 C 331.152,346.494 368.152,347.16 405.5,346.5C 405.813,350.042 405.479,353.375 404.5,356.5C 404.5,353.5 404.5,350.5 404.5,347.5C 366.485,348.161 328.819,347.494 291.5,345.5C 292.209,344.596 293.209,344.263 294.5,344.5 Z"/></g>
<g><path style="opacity:1" fill="#d7f0f6" d="M 291.5,345.5 C 328.819,347.494 366.485,348.161 404.5,347.5C 404.5,350.5 404.5,353.5 404.5,356.5C 404.806,359.385 404.473,362.052 403.5,364.5C 403.5,359.167 403.5,353.833 403.5,348.5C 365.833,348.5 328.167,348.5 290.5,348.5C 290.263,347.209 290.596,346.209 291.5,345.5 Z"/></g>
<g><path style="opacity:0.18" fill="#bad8ec" d="M 94.5,308.5 C 95.2216,308.918 95.7216,309.584 96,310.5C 97.0019,326.843 98.1686,343.176 99.5,359.5C 98.596,358.791 98.2627,357.791 98.5,356.5C 97.5,356.5 96.5,356.5 95.5,356.5C 95.5188,349.469 96.0188,349.136 97,355.5C 98.0097,347.299 97.1764,339.299 94.5,331.5C 95.0212,323.888 95.0212,316.221 94.5,308.5 Z"/></g>
<g><path style="opacity:1" fill="#75a9ce" d="M 168.5,346.5 C 168.5,352.5 168.5,358.5 168.5,364.5C 167.438,360.369 166.771,356.036 166.5,351.5C 166.556,349.36 167.223,347.694 168.5,346.5 Z"/></g>
<g><path style="opacity:0.024" fill="#dce9ef" d="M 475.5,345.5 C 475.666,351.842 475.5,358.175 475,364.5C 474.768,363.263 474.268,362.263 473.5,361.5C 473.334,357.154 473.501,352.821 474,348.5C 474.232,347.263 474.732,346.263 475.5,345.5 Z"/></g>
<g><path style="opacity:1" fill="#73acd3" d="M 168.5,364.5 C 169.167,367.167 169.833,369.833 170.5,372.5C 170.5,375.167 170.5,377.833 170.5,380.5C 168.554,375.604 167.887,370.271 168.5,364.5 Z"/></g>
<g><path style="opacity:0.004" fill="#fef9f0" d="M 476.5,372.5 C 477.573,373.251 477.74,374.251 477,375.5C 476.517,374.552 476.351,373.552 476.5,372.5 Z"/></g>
<g><path style="opacity:1" fill="#d5e7ed" d="M 473.5,368.5 C 473.357,370.262 473.691,371.929 474.5,373.5C 474.234,376.345 473.234,378.678 471.5,380.5C 471.5,377.833 471.5,375.167 471.5,372.5C 472.167,371.167 472.833,369.833 473.5,368.5 Z"/></g>
<g><path style="opacity:0.02" fill="#fff9ee" d="M 474.5,376.5 C 475.598,377.601 475.765,378.934 475,380.5C 474.51,379.207 474.343,377.873 474.5,376.5 Z"/></g>
<g><path style="opacity:0.02" fill="#fbffed" d="M 472.5,388.5 C 472.351,387.448 472.517,386.448 473,385.5C 473.74,386.749 473.573,387.749 472.5,388.5 Z"/></g>
<g><path style="opacity:0.01" fill="#c6dfee" d="M 99.5,364.5 C 100.29,365.609 100.79,366.942 101,368.5C 101.92,384.858 103.087,401.192 104.5,417.5C 104.5,419.167 104.5,420.833 104.5,422.5C 102.327,421.834 101.993,420.667 103.5,419C 103.068,408.026 101.735,397.193 99.5,386.5C 99.7578,379.229 99.7578,371.896 99.5,364.5 Z"/></g>
<g><path style="opacity:0.004" fill="#fafbf0" d="M 473.5,394.5 C 474.525,394.897 474.692,395.563 474,396.5C 473.536,395.906 473.369,395.239 473.5,394.5 Z"/></g>
<g><path style="opacity:1" fill="#afd4eb" d="M 170.5,392.5 C 171.931,393.78 172.598,395.447 172.5,397.5C 210.5,397.5 248.5,397.5 286.5,397.5C 307.34,397.169 328.007,397.503 348.5,398.5C 327.833,398.5 307.167,398.5 286.5,398.5C 247.833,398.5 209.167,398.5 170.5,398.5C 170.5,396.5 170.5,394.5 170.5,392.5 Z"/></g>
<g><path style="opacity:1" fill="#30aade" d="M 286.5,398.5 C 307.167,398.5 327.833,398.5 348.5,398.5C 348.666,405.841 348.5,413.174 348,420.5C 345.758,435.432 344.258,450.432 343.5,465.5C 338.833,466.167 334.167,466.833 329.5,467.5C 324.989,468.931 320.656,470.597 316.5,472.5C 315.833,472.5 315.167,472.5 314.5,472.5C 311.115,472.846 307.782,473.512 304.5,474.5C 303.287,474.747 302.62,475.414 302.5,476.5C 300.585,476.216 298.919,476.549 297.5,477.5C 293.821,477.724 290.154,478.058 286.5,478.5C 286.5,451.833 286.5,425.167 286.5,398.5 Z"/></g>
<g><path style="opacity:1" fill="#559bc5" d="M 225.5,424.5 C 208.5,424.5 191.5,424.5 174.5,424.5C 175.162,428.466 175.495,432.466 175.5,436.5C 173.57,432.627 172.903,428.294 173.5,423.5C 191.025,421.883 208.358,422.216 225.5,424.5 Z"/></g>
<g><path style="opacity:1" fill="#5ca3d0" d="M 104.5,417.5 C 106.217,420.845 106.884,424.511 106.5,428.5C 105.833,426.833 105.167,425.167 104.5,423.5C 104.5,423.167 104.5,422.833 104.5,422.5C 104.5,420.833 104.5,419.167 104.5,417.5 Z"/></g>
<g><path style="opacity:0.173" fill="#b0d2e7" d="M 471.5,388.5 C 471.833,388.5 472.167,388.5 472.5,388.5C 470.138,407.334 468.471,426.001 467.5,444.5C 465.713,457.805 464.88,471.138 465,484.5C 464.667,483.833 464.333,483.167 464,482.5C 463.884,487.434 463.051,492.1 461.5,496.5C 463.091,460.044 466.424,424.044 471.5,388.5 Z"/></g>
<g><path style="opacity:1" fill="#e9eaea" d="M 225.5,424.5 C 226.538,437.976 228.205,451.476 230.5,465C 236.904,465.873 242.904,467.873 248.5,471C 260.765,473.094 272.765,475.927 284.5,479.5C 285.416,479.457 286.083,479.124 286.5,478.5C 290.154,478.058 293.821,477.724 297.5,477.5C 294.797,478.963 291.797,479.796 288.5,480C 287.833,480.333 287.167,480.667 286.5,481C 290.449,481.807 290.449,482.307 286.5,482.5C 286.5,498.167 286.5,513.833 286.5,529.5C 283.813,529.336 281.146,529.503 278.5,530C 281.734,530.2 284.734,531.033 287.5,532.5C 288.849,532.154 290.183,531.821 291.5,531.5C 290.365,533.213 288.698,533.88 286.5,533.5C 283.316,532.357 279.983,531.691 276.5,531.5C 269.456,528.536 262.123,526.203 254.5,524.5C 230.327,518.952 206.327,512.452 182.5,505C 181.944,504.617 181.611,504.117 181.5,503.5C 182.123,496.745 181.456,490.412 179.5,484.5C 179.5,482.833 179.5,481.167 179.5,479.5C 180.08,475.351 179.414,471.684 177.5,468.5C 177.494,457.787 176.827,447.12 175.5,436.5C 175.495,432.466 175.162,428.466 174.5,424.5C 191.5,424.5 208.5,424.5 225.5,424.5 Z"/></g>
<g><path style="opacity:1" fill="#cddeea" d="M 104.5,423.5 C 105.167,425.167 105.833,426.833 106.5,428.5C 106.5,431.5 106.5,434.5 106.5,437.5C 104.564,433.285 103.897,428.619 104.5,423.5 Z"/></g>
<g><path style="opacity:0.008" fill="#fff9ef" d="M 467.5,444.5 C 467.351,443.448 467.517,442.448 468,441.5C 468.74,442.749 468.573,443.749 467.5,444.5 Z"/></g>
<g><path style="opacity:0.01" fill="#fef7ee" d="M 103.5,449.5 C 103.34,447.801 103.506,446.134 104,444.5C 104.78,446.387 104.613,448.054 103.5,449.5 Z"/></g>
<g><path style="opacity:0.007" fill="#f0feff" d="M 103.5,449.5 C 103.649,450.552 103.483,451.552 103,452.5C 102.26,451.251 102.427,450.251 103.5,449.5 Z"/></g>
<g><path style="opacity:1" fill="#a3dbed" d="M 329.5,467.5 C 325.874,470.495 321.541,472.162 316.5,472.5C 320.656,470.597 324.989,468.931 329.5,467.5 Z"/></g>
<g><path style="opacity:1" fill="#c5e0f2" d="M 106.5,447.5 C 108.721,463.626 110.387,479.959 111.5,496.5C 110.303,490.203 108.97,483.87 107.5,477.5C 107.931,476.707 108.265,475.873 108.5,475C 107.897,466.952 106.897,458.952 105.5,451C 105.989,449.862 106.322,448.695 106.5,447.5 Z"/></g>
<g><path style="opacity:1" fill="#78add1" d="M 177.5,468.5 C 179.414,471.684 180.08,475.351 179.5,479.5C 177.783,476.155 177.116,472.489 177.5,468.5 Z"/></g>
<g><path style="opacity:1" fill="#ace0f1" d="M 314.5,472.5 C 310.812,474.503 306.812,475.837 302.5,476.5C 302.62,475.414 303.287,474.747 304.5,474.5C 307.782,473.512 311.115,472.846 314.5,472.5 Z"/></g>
<g><path style="opacity:0.006" fill="#fffbf0" d="M 103.5,480.5 C 104.598,481.601 104.765,482.934 104,484.5C 103.51,483.207 103.343,481.873 103.5,480.5 Z"/></g>
<g><path style="opacity:0.007" fill="#fafef0" d="M 468.5,481.5 C 469.573,482.251 469.74,483.251 469,484.5C 468.517,483.552 468.351,482.552 468.5,481.5 Z"/></g>
<g><path style="opacity:0.012" fill="#fff7ee" d="M 107.5,481.5 C 108.573,482.251 108.74,483.251 108,484.5C 107.517,483.552 107.351,482.552 107.5,481.5 Z"/></g>
<g><path style="opacity:1" fill="#1c8eca" d="M 430.5,461.5 C 430.364,472.261 429.031,482.595 426.5,492.5C 426.513,481.761 427.846,471.428 430.5,461.5 Z"/></g>
<g><path style="opacity:1" fill="#a5c5db" d="M 179.5,484.5 C 181.456,490.412 182.123,496.745 181.5,503.5C 180.364,497.359 179.697,491.026 179.5,484.5 Z"/></g>
<g><path style="opacity:1" fill="#87cde9" d="M 393.5,484.5 C 393.666,489.844 393.499,495.177 393,500.5C 392.901,502.653 392.067,504.319 390.5,505.5C 391.206,498.338 392.206,491.338 393.5,484.5 Z"/></g>
<g><path style="opacity:0.192" fill="#aed1ea" d="M 111.5,500.5 C 113.436,504.715 114.103,509.381 113.5,514.5C 112.778,514.918 112.278,515.584 112,516.5C 111.501,511.177 111.334,505.844 111.5,500.5 Z"/></g>
<g><path style="opacity:0.118" fill="#cae1ed" d="M 461.5,500.5 C 461.666,505.844 461.499,511.177 461,516.5C 460.617,515.944 460.117,515.611 459.5,515.5C 459.608,510.29 460.275,505.29 461.5,500.5 Z"/></g>
<g><path style="opacity:0.004" fill="#f0fbfb" d="M 461.5,523.5 C 462.833,524.167 462.833,524.167 461.5,523.5 Z"/></g>
<g><path style="opacity:1" fill="#4e93c6" d="M 254.5,524.5 C 262.123,526.203 269.456,528.536 276.5,531.5C 268.293,531.294 260.959,528.96 254.5,524.5 Z"/></g>
<g><path style="opacity:0.008" fill="#fdfef0" d="M 459.5,538.5 C 460.525,538.897 460.692,539.563 460,540.5C 459.536,539.906 459.369,539.239 459.5,538.5 Z"/></g>
<g><path style="opacity:0.314" fill="#afd2e8" d="M 459.5,524.5 C 459.938,526.126 460.272,527.793 460.5,529.5C 458.716,544.136 456.716,558.469 454.5,572.5C 454.415,556.143 456.082,540.143 459.5,524.5 Z"/></g>
<g><path style="opacity:0.247" fill="#aacfe8" d="M 113.5,524.5 C 116.904,540.353 118.57,556.686 118.5,573.5C 117.883,573.389 117.383,573.056 117,572.5C 115.768,556.589 114.268,540.755 112.5,525C 112.728,524.601 113.062,524.435 113.5,524.5 Z"/></g>
<g><path style="opacity:0.004" fill="#fef8f0" d="M 110.5,563.5 C 111.833,564.167 111.833,564.167 110.5,563.5 Z"/></g>
<g><path style="opacity:0.114" fill="#d7ebf3" d="M 450.5,576.5 C 450.881,577.931 451.881,578.764 453.5,579C 451.153,579.334 448.819,579.167 446.5,578.5C 447.183,576.824 448.517,576.157 450.5,576.5 Z"/></g>
<g><path style="opacity:0.02" fill="#ecf4f1" d="M 122.5,576.5 C 124.027,576.427 125.027,577.094 125.5,578.5C 123.545,579.323 121.545,579.49 119.5,579C 121.119,578.764 122.119,577.931 122.5,576.5 Z"/></g>
<g><path style="opacity:0.106" fill="#d4eaf7" d="M 125.5,578.5 C 128.829,578.215 131.829,578.882 134.5,580.5C 131.989,580.162 129.655,580.162 127.5,580.5C 126.478,580.145 125.811,579.478 125.5,578.5 Z"/></g>
<g><path style="opacity:0.224" fill="#c4daf3" d="M 444.5,578.5 C 444.5,578.833 444.5,579.167 444.5,579.5C 442.565,580.15 440.565,580.483 438.5,580.5C 440.102,578.926 442.102,578.259 444.5,578.5 Z"/></g>
<g><path style="opacity:0.031" fill="#f8fbeb" d="M 444.5,579.5 C 445.239,579.369 445.906,579.536 446.5,580C 445.563,580.692 444.897,580.525 444.5,579.5 Z"/></g>
<g><path style="opacity:0.353" fill="#d7e8f1" d="M 134.5,580.5 C 141.128,580.521 147.128,582.188 152.5,585.5C 150.135,586.008 147.801,586.675 145.5,587.5C 144.124,586.158 142.791,584.825 141.5,583.5C 138.898,582.868 136.564,581.868 134.5,580.5 Z"/></g>
<g><path style="opacity:0.012" fill="#dfeff5" d="M 438.5,580.5 C 436.189,582.068 433.522,582.902 430.5,583C 431.167,583.333 431.833,583.667 432.5,584C 430.685,584.757 429.019,585.59 427.5,586.5C 425.585,586.784 423.919,586.451 422.5,585.5C 426.971,581.942 432.305,580.276 438.5,580.5 Z"/></g>
<g><path style="opacity:0.004" fill="#fef9f0" d="M 437.5,585.5 C 438.833,586.167 438.833,586.167 437.5,585.5 Z"/></g>
<g><path style="opacity:1" fill="#baddf2" d="M 153.5,585.5 C 156.522,585.804 159.522,586.304 162.5,587C 163.056,587.383 163.389,587.883 163.5,588.5C 159.786,588.41 156.452,587.41 153.5,585.5 Z"/></g>
<g><path style="opacity:0.008" fill="#effbfe" d="M 427.5,586.5 C 428.833,587.167 428.833,587.167 427.5,586.5 Z"/></g>
<g><path style="opacity:0.016" fill="#f5fced" d="M 134.5,587.5 C 135.833,588.167 135.833,588.167 134.5,587.5 Z"/></g>
<g><path style="opacity:0.192" fill="#c5e3f3" d="M 419.5,585.5 C 416.505,587.243 413.171,588.243 409.5,588.5C 409.611,587.883 409.944,587.383 410.5,587C 413.513,586.498 416.513,585.998 419.5,585.5 Z"/></g>
<g><path style="opacity:0.004" fill="#f0fcfe" d="M 422.5,587.5 C 423.833,588.167 423.833,588.167 422.5,587.5 Z"/></g>
<g><path style="opacity:0.118" fill="#c6dfea" d="M 406.5,588.5 C 405.817,590.176 404.483,590.843 402.5,590.5C 403.183,588.824 404.517,588.157 406.5,588.5 Z"/></g>
<g><path style="opacity:0.004" fill="#f8f4f0" d="M 166.5,592.5 C 166.897,591.475 167.563,591.308 168.5,592C 167.906,592.464 167.239,592.631 166.5,592.5 Z"/></g>
<g><path style="opacity:0.216" fill="#b5d4e6" d="M 166.5,588.5 C 173.175,590.004 179.842,591.837 186.5,594C 187.056,594.383 187.389,594.883 187.5,595.5C 183.657,594.609 179.824,593.609 176,592.5C 175.228,592.645 174.561,592.978 174,593.5C 171.355,591.768 168.855,590.101 166.5,588.5 Z"/></g>
<g><path style="opacity:0.051" fill="#cbe3f1" d="M 402.5,590.5 C 396.871,593.077 390.871,594.744 384.5,595.5C 389.956,592.242 395.956,590.575 402.5,590.5 Z"/></g>
<g><path style="opacity:0.004" fill="#f0fffe" d="M 390.5,595.5 C 391.833,596.167 391.833,596.167 390.5,595.5 Z"/></g>
<g><path style="opacity:1" fill="#adcee4" d="M 381.5,595.5 C 379.639,597.562 377.305,598.895 374.5,599.5C 369.158,600.504 363.825,601.504 358.5,602.5C 360.111,600.905 362.111,599.739 364.5,599C 369.961,597.141 375.627,595.974 381.5,595.5 Z"/></g>
<g><path style="opacity:0.01" fill="#f7f7ef" d="M 374.5,599.5 C 375.239,599.369 375.906,599.536 376.5,600C 375.563,600.692 374.897,600.525 374.5,599.5 Z"/></g>
<g><path style="opacity:0.125" fill="#c5dfed" d="M 191.5,595.5 C 199.477,596.999 207.144,599.332 214.5,602.5C 210.176,602.675 205.842,601.675 201.5,599.5C 200.833,599.833 200.167,600.167 199.5,600.5C 196.72,598.883 193.72,597.716 190.5,597C 191.056,596.617 191.389,596.117 191.5,595.5 Z"/></g>
<g><path style="opacity:0.016" fill="#eefbfe" d="M 198.5,602.5 C 199.251,601.427 200.251,601.26 201.5,602C 200.552,602.483 199.552,602.649 198.5,602.5 Z"/></g>
<g><path style="opacity:0.01" fill="#effdf7" d="M 372.5,602.5 C 372.897,601.475 373.563,601.308 374.5,602C 373.906,602.464 373.239,602.631 372.5,602.5 Z"/></g>
<g><path style="opacity:0.533" fill="#97c8e1" d="M 215.5,602.5 C 218.228,602.171 220.562,602.837 222.5,604.5C 219.612,605.01 217.279,604.344 215.5,602.5 Z"/></g>
<g><path style="opacity:0.035" fill="#c6e1f1" d="M 356.5,602.5 C 355.082,604.308 353.082,604.975 350.5,604.5C 352.102,602.926 354.102,602.259 356.5,602.5 Z"/></g>
<g><path style="opacity:0.008" fill="#fefbef" d="M 357.5,603.5 C 358.833,604.167 358.833,604.167 357.5,603.5 Z"/></g>
<g><path style="opacity:1" fill="#b1d6eb" d="M 222.5,604.5 C 225.811,604.307 228.478,605.307 230.5,607.5C 227.189,607.693 224.522,606.693 222.5,604.5 Z"/></g>
<g><path style="opacity:1" fill="#b0d4eb" d="M 350.5,604.5 C 347.749,606.975 344.416,607.975 340.5,607.5C 340.791,606.351 341.624,605.684 343,605.5C 345.462,604.841 347.962,604.507 350.5,604.5 Z"/></g>
<g><path style="opacity:0.165" fill="#d0ecee" d="M 230.5,607.5 C 233.698,606.964 236.365,607.631 238.5,609.5C 235.447,609.889 232.78,609.223 230.5,607.5 Z"/></g>
<g><path style="opacity:0.004" fill="#fef1fa" d="M 230.5,609.5 C 231.833,610.167 231.833,610.167 230.5,609.5 Z"/></g>
<g><path style="opacity:0.243" fill="#bddaee" d="M 240.5,609.5 C 246.38,610.144 251.713,611.811 256.5,614.5C 250.675,613.894 245.341,612.227 240.5,609.5 Z"/></g>
<g><path style="opacity:0.024" fill="#faf4eb" d="M 333.5,610.5 C 334.833,611.167 334.833,611.167 333.5,610.5 Z"/></g>
<g><path style="opacity:0.035" fill="#fffbea" d="M 230.5,612.5 C 231.946,611.387 233.613,611.22 235.5,612C 233.866,612.494 232.199,612.66 230.5,612.5 Z"/></g>
<g><path style="opacity:0.173" fill="#b4d5e9" d="M 338.5,607.5 C 338.611,608.117 338.944,608.617 339.5,609C 331.689,610.161 324.189,612.327 317,615.5C 316.586,615.043 316.086,614.709 315.5,614.5C 313.49,616.171 311.157,616.838 308.5,616.5C 310.493,614.837 312.826,613.67 315.5,613C 323.069,610.641 330.736,608.808 338.5,607.5 Z"/></g>
<g><path style="opacity:0.016" fill="#f6f9ed" d="M 341.5,611.5 C 342.833,612.167 342.833,612.167 341.5,611.5 Z"/></g>
<g><path style="opacity:0.012" fill="#f7faee" d="M 254.5,615.5 C 255.833,616.167 255.833,616.167 254.5,615.5 Z"/></g>
<g><path style="opacity:1" fill="#d9ecf3" d="M 258.5,614.5 C 260.483,614.157 261.817,614.824 262.5,616.5C 262.5,616.833 262.5,617.167 262.5,617.5C 260.596,617.262 259.262,616.262 258.5,614.5 Z"/></g>
<g><path style="opacity:0.016" fill="#eef6ed" d="M 316.5,616.5 C 317.833,617.167 317.833,617.167 316.5,616.5 Z"/></g>
<g><path style="opacity:0.02" fill="#fef9ec" d="M 262.5,617.5 C 263.833,618.167 263.833,618.167 262.5,617.5 Z"/></g>
<g><path style="opacity:0.094" fill="#cbe4f4" d="M 307.5,616.5 C 307.389,617.117 307.056,617.617 306.5,618C 304.527,618.495 302.527,618.662 300.5,618.5C 302.438,616.837 304.772,616.171 307.5,616.5 Z"/></g>
<g><path style="opacity:0.004" fill="#fefbf0" d="M 310.5,618.5 C 309.833,617.167 309.833,617.167 310.5,618.5 Z"/></g>
<g><path style="opacity:0.01" fill="#eefffd" d="M 254.5,619.5 C 255.251,618.427 256.251,618.26 257.5,619C 256.552,619.483 255.552,619.649 254.5,619.5 Z"/></g>
<g><path style="opacity:0.039" fill="#e9f9f8" d="M 262.5,618.5 C 262.103,619.525 261.437,619.692 260.5,619C 261.094,618.536 261.761,618.369 262.5,618.5 Z"/></g>
<g><path style="opacity:0.027" fill="#ecfef7" d="M 310.5,619.5 C 310.5,619.167 310.5,618.833 310.5,618.5C 321.167,618.833 321.167,619.167 310.5,619.5 Z"/></g>
<g><path style="opacity:0.118" fill="#c4e2f1" d="M 300.5,618.5 C 297.548,620.41 294.214,621.41 290.5,621.5C 290.97,620.307 291.97,619.64 293.5,619.5C 295.818,619.003 298.152,618.67 300.5,618.5 Z"/></g>
<g><path style="opacity:0.008" fill="#effefe" d="M 310.5,619.5 C 309.833,620.167 309.833,620.167 310.5,619.5 Z"/></g>
<g><path style="opacity:0.514" fill="#9dc9e4" d="M 265.5,616.5 C 267.527,616.338 269.527,616.505 271.5,617C 275.38,618.44 279.047,619.94 282.5,621.5C 276.279,621.199 270.612,619.532 265.5,616.5 Z"/></g>
<g><path style="opacity:1" fill="#eef1f7" d="M 284.5,621.5 C 285.833,621.5 287.167,621.5 288.5,621.5C 287.851,622.606 287.517,623.606 287.5,624.5C 285.787,624.121 284.787,623.121 284.5,621.5 Z"/></g>
<g><path style="opacity:0.016" fill="#f3fcf0" d="M 278.5,622.5 C 279.675,622.281 280.675,622.614 281.5,623.5C 279.948,624.798 278.948,624.465 278.5,622.5 Z"/></g>
<g><path style="opacity:0.029" fill="#ecfffe" d="M 290.5,624.5 C 291.601,623.402 292.934,623.235 294.5,624C 293.207,624.49 291.873,624.657 290.5,624.5 Z"/></g>
<g><path style="opacity:0.004" fill="#f0f7f6" d="M 278.5,626.5 C 279.833,627.167 279.833,627.167 278.5,626.5 Z"/></g>
</svg>
