<?xml version="1.0" encoding="UTF-8"?>
<!DOCTYPE svg PUBLIC "-//W3C//DTD SVG 1.1//EN" "http://www.w3.org/Graphics/SVG/1.1/DTD/svg11.dtd">
<svg xmlns="http://www.w3.org/2000/svg" version="1.1" width="550px" height="650px" style="shape-rendering:geometricPrecision; text-rendering:geometricPrecision; image-rendering:optimizeQuality; fill-rule:evenodd; clip-rule:evenodd" xmlns:xlink="http://www.w3.org/1999/xlink">
<g><path style="opacity:0.949" fill="#dbdbdb" d="M 195.5,53.5 C 188.167,53.5 180.833,53.5 173.5,53.5C 173.167,53.5 172.833,53.5 172.5,53.5C 172.611,52.8826 172.944,52.3826 173.5,52C 176.833,51.8333 180.167,51.6667 183.5,51.5C 187.54,51.9042 191.373,51.9042 195,51.5C 195.464,52.0944 195.631,52.7611 195.5,53.5 Z"/></g>
<g><path style="opacity:1" fill="#d4d4d4" d="M 269.5,76.5 C 269.5,68.8333 269.5,61.1667 269.5,53.5C 248.5,53.5 227.5,53.5 206.5,53.5C 206.167,53.5 205.833,53.5 205.5,53.5C 206.315,52.1634 207.482,51.1634 209,50.5C 228.667,51.1667 248.333,51.8333 268,52.5C 269.613,51.3777 270.78,51.8777 271.5,54C 270.167,61.3333 270.167,68.6667 271.5,76C 270.906,76.4643 270.239,76.631 269.5,76.5 Z"/></g>
<g><path style="opacity:1" fill="#dcdcdc" d="M 304.5,53.5 C 296.5,53.5 288.5,53.5 280.5,53.5C 280.167,53.5 279.833,53.5 279.5,53.5C 279.611,52.8826 279.944,52.3826 280.5,52C 284.167,51.8333 287.833,51.6667 291.5,51.5C 295.874,51.8978 300.04,51.8978 304,51.5C 304.464,52.0944 304.631,52.7611 304.5,53.5 Z"/></g>
<g><path style="opacity:1" fill="#dcdcdc" d="M 358.5,53.5 C 357.833,53.5 357.167,53.5 356.5,53.5C 348.5,53.5 340.5,53.5 332.5,53.5C 332.918,52.7784 333.584,52.2784 334.5,52C 338.167,51.8333 341.833,51.6667 345.5,51.5C 349.874,51.8978 354.04,51.8978 358,51.5C 358.464,52.0944 358.631,52.7611 358.5,53.5 Z"/></g>
<g><path style="opacity:1" fill="#dcdcdc" d="M 392.5,53.5 C 392.167,53.5 391.833,53.5 391.5,53.5C 383.833,53.5 376.167,53.5 368.5,53.5C 368.611,52.8826 368.944,52.3826 369.5,52C 376.833,51.3333 384.167,51.3333 391.5,52C 392.056,52.3826 392.389,52.8826 392.5,53.5 Z"/></g>
<g><path style="opacity:1" fill="#424242" d="M 129.5,54.5 C 137.068,53.188 144.735,53.188 152.5,54.5C 152.5,61.5 152.5,68.5 152.5,75.5C 152.5,75.8333 152.5,76.1667 152.5,76.5C 150.537,69.5762 149.87,62.2428 150.5,54.5C 143.5,54.5 136.5,54.5 129.5,54.5 Z"/></g>
<g><path style="opacity:1" fill="#373737" d="M 206.5,54.5 C 206.5,54.1667 206.5,53.8333 206.5,53.5C 227.5,53.5 248.5,53.5 269.5,53.5C 269.5,61.1667 269.5,68.8333 269.5,76.5C 262.833,76.5 256.167,76.5 249.5,76.5C 255.645,75.5098 261.978,75.1765 268.5,75.5C 268.5,68.5 268.5,61.5 268.5,54.5C 247.833,54.5 227.167,54.5 206.5,54.5 Z"/></g>
<g><path style="opacity:1" fill="#424242" d="M 332.5,53.5 C 340.5,53.5 348.5,53.5 356.5,53.5C 356.5,53.8333 356.5,54.1667 356.5,54.5C 347.637,53.9614 338.97,54.6281 330.5,56.5C 330.427,54.9731 331.094,53.9731 332.5,53.5 Z"/></g>
<g><path style="opacity:0.247" fill="#c3c3c3" d="M 152.5,54.5 C 144.735,53.188 137.068,53.188 129.5,54.5C 128.337,76.6629 128.17,98.9962 129,121.5C 136.086,122.646 143.253,122.812 150.5,122C 151.044,121.283 151.711,120.783 152.5,120.5C 153.598,121.397 153.598,122.23 152.5,123C 144.173,123.5 135.84,123.666 127.5,123.5C 127.333,100.164 127.5,76.831 128,53.5C 128.5,53 129,52.5 129.5,52C 136.833,51.3333 144.167,51.3333 151.5,52C 152.999,52.8382 153.332,53.6715 152.5,54.5 Z"/></g>
<g><path style="opacity:1" fill="#020202" d="M 173.5,53.5 C 180.833,53.5 188.167,53.5 195.5,53.5C 195.5,75.8333 195.5,98.1667 195.5,120.5C 188.167,120.5 180.833,120.5 173.5,120.5C 173.5,113.167 173.5,105.833 173.5,98.5C 166.5,98.5 159.5,98.5 152.5,98.5C 150.537,105.424 149.87,112.757 150.5,120.5C 143.5,120.5 136.5,120.5 129.5,120.5C 129.5,98.5 129.5,76.5 129.5,54.5C 136.5,54.5 143.5,54.5 150.5,54.5C 149.87,62.2428 150.537,69.5762 152.5,76.5C 159.5,76.5 166.5,76.5 173.5,76.5C 173.5,68.8333 173.5,61.1667 173.5,53.5 Z"/></g>
<g><path style="opacity:1" fill="#020202" d="M 206.5,54.5 C 227.167,54.5 247.833,54.5 268.5,54.5C 268.5,61.5 268.5,68.5 268.5,75.5C 261.978,75.1765 255.645,75.5098 249.5,76.5C 248.504,91.324 248.171,106.324 248.5,121.5C 241.5,121.5 234.5,121.5 227.5,121.5C 227.829,106.324 227.496,91.324 226.5,76.5C 219.833,76.5 213.167,76.5 206.5,76.5C 206.5,74.5 206.5,72.5 206.5,70.5C 206.5,65.1667 206.5,59.8333 206.5,54.5 Z"/></g>
<g><path style="opacity:0.364" fill="#969696" d="M 279.5,53.5 C 279.833,53.5 280.167,53.5 280.5,53.5C 280.5,76.1667 280.5,98.8333 280.5,121.5C 287.648,122.492 294.981,122.825 302.5,122.5C 294.684,123.492 286.684,123.826 278.5,123.5C 278.827,100.258 278.494,77.0917 277.5,54C 278.094,53.5357 278.761,53.369 279.5,53.5 Z"/></g>
<g><path style="opacity:1" fill="#030303" d="M 280.5,53.5 C 288.5,53.5 296.5,53.5 304.5,53.5C 306.071,56.3155 307.404,59.3155 308.5,62.5C 309.265,63.6119 310.265,64.2786 311.5,64.5C 311.5,64.8333 311.5,65.1667 311.5,65.5C 311.5,66.8333 312.167,67.5 313.5,67.5C 313.5,67.8333 313.5,68.1667 313.5,68.5C 313.554,70.632 314.554,71.9653 316.5,72.5C 316.5,73.1667 316.5,73.8333 316.5,74.5C 316.62,75.5862 317.287,76.2528 318.5,76.5C 320.468,75.8999 321.468,74.5666 321.5,72.5C 321.5,72.1667 321.5,71.8333 321.5,71.5C 322.906,71.0269 323.573,70.0269 323.5,68.5C 323.5,68.1667 323.5,67.8333 323.5,67.5C 325.408,66.5144 326.408,64.8477 326.5,62.5C 328.531,61.4613 329.864,59.7946 330.5,57.5C 330.5,57.1667 330.5,56.8333 330.5,56.5C 338.97,54.6281 347.637,53.9614 356.5,54.5C 356.5,76.8333 356.5,99.1667 356.5,121.5C 349.5,121.5 342.5,121.5 335.5,121.5C 335.5,110.833 335.5,100.167 335.5,89.5C 334.209,89.2627 333.209,89.596 332.5,90.5C 331.058,91.8195 330.392,93.4862 330.5,95.5C 328.952,95.8212 328.285,96.8212 328.5,98.5C 326.554,99.0347 325.554,100.368 325.5,102.5C 325.5,102.833 325.5,103.167 325.5,103.5C 324.167,103.5 323.5,104.167 323.5,105.5C 321.748,107.909 319.415,109.576 316.5,110.5C 315.148,107.835 313.482,105.502 311.5,103.5C 311.715,101.821 311.048,100.821 309.5,100.5C 308.931,97.2809 307.264,94.9475 304.5,93.5C 304.5,93.1667 304.5,92.8333 304.5,92.5C 304.5,91.8333 304.5,91.1667 304.5,90.5C 303.791,89.596 302.791,89.2627 301.5,89.5C 301.5,100.167 301.5,110.833 301.5,121.5C 294.5,121.5 287.5,121.5 280.5,121.5C 280.5,98.8333 280.5,76.1667 280.5,53.5 Z"/></g>
<g><path style="opacity:0.423" fill="#8a8a8a" d="M 356.5,53.5 C 357.167,53.5 357.833,53.5 358.5,53.5C 358.5,76.8333 358.5,100.167 358.5,123.5C 350.316,123.826 342.316,123.492 334.5,122.5C 342.019,122.825 349.352,122.492 356.5,121.5C 356.5,99.1667 356.5,76.8333 356.5,54.5C 356.5,54.1667 356.5,53.8333 356.5,53.5 Z"/></g>
<g><path style="opacity:1" fill="#030303" d="M 368.5,54.5 C 375.833,54.5 383.167,54.5 390.5,54.5C 390.171,69.3428 390.504,84.0095 391.5,98.5C 401.781,100.476 412.448,101.143 423.5,100.5C 423.5,107.5 423.5,114.5 423.5,121.5C 405.09,121.82 386.757,121.486 368.5,120.5C 368.5,98.5 368.5,76.5 368.5,54.5 Z"/></g>
<g><path style="opacity:1" fill="#3d3d3d" d="M 368.5,53.5 C 376.167,53.5 383.833,53.5 391.5,53.5C 391.5,68.5 391.5,83.5 391.5,98.5C 390.504,84.0095 390.171,69.3428 390.5,54.5C 383.167,54.5 375.833,54.5 368.5,54.5C 367.167,54.1667 367.167,53.8333 368.5,53.5 Z"/></g>
<g><path style="opacity:0.102" fill="#aeaeae" d="M 304.5,53.5 C 307.518,54.855 308.851,57.1884 308.5,60.5C 309.552,60.3505 310.552,60.5172 311.5,61C 310.829,61.9862 310.829,63.1529 311.5,64.5C 310.265,64.2786 309.265,63.6119 308.5,62.5C 307.404,59.3155 306.071,56.3155 304.5,53.5 Z"/></g>
<g><path style="opacity:0.024" fill="#ebeceb" d="M 310.5,58.5 C 311.833,59.1667 311.833,59.1667 310.5,58.5 Z"/></g>
<g><path style="opacity:1" fill="#b3b3b3" d="M 330.5,57.5 C 329.864,59.7946 328.531,61.4613 326.5,62.5C 327.136,60.2054 328.469,58.5387 330.5,57.5 Z"/></g>
<g><path style="opacity:0.467" fill="#9e9e9e" d="M 205.5,53.5 C 205.833,53.5 206.167,53.5 206.5,53.5C 206.5,53.8333 206.5,54.1667 206.5,54.5C 206.5,59.8333 206.5,65.1667 206.5,70.5C 206.167,70.5 205.833,70.5 205.5,70.5C 204.721,64.6609 204.721,58.9942 205.5,53.5 Z"/></g>
<g><path style="opacity:0.031" fill="#e9eae9" d="M 312.5,63.5 C 313.833,64.1667 313.833,64.1667 312.5,63.5 Z"/></g>
<g><path style="opacity:0.016" fill="#edeeed" d="M 321.5,64.5 C 322.833,65.1667 322.833,65.1667 321.5,64.5 Z"/></g>
<g><path style="opacity:0.188" fill="#bfbfbf" d="M 311.5,65.5 C 312.833,65.5 313.5,66.1667 313.5,67.5C 313.5,66.1667 312.833,65.5 311.5,65.5 Z"/></g>
<g><path style="opacity:1" fill="#bdbdbd" d="M 326.5,62.5 C 326.408,64.8477 325.408,66.5144 323.5,67.5C 323.75,65.326 324.75,63.6594 326.5,62.5 Z"/></g>
<g><path style="opacity:0.208" fill="#b4b4b4" d="M 313.5,68.5 C 315.446,69.0347 316.446,70.368 316.5,72.5C 314.554,71.9653 313.554,70.632 313.5,68.5 Z"/></g>
<g><path style="opacity:0.631" fill="#bababa" d="M 323.5,68.5 C 323.573,70.0269 322.906,71.0269 321.5,71.5C 321.062,71.5654 320.728,71.3988 320.5,71C 321.078,69.583 322.078,68.7496 323.5,68.5 Z"/></g>
<g><path style="opacity:1" fill="#a5a5a5" d="M 195.5,122.5 C 195.5,121.833 195.5,121.167 195.5,120.5C 195.5,98.1667 195.5,75.8333 195.5,53.5C 196.117,53.3893 196.617,53.056 197,52.5C 197.167,64.1667 197.333,75.8333 197.5,87.5C 197.499,99.5197 196.832,111.186 195.5,122.5 Z"/></g>
<g><path style="opacity:0.039" fill="#bfbfbf" d="M 172.5,53.5 C 172.833,53.5 173.167,53.5 173.5,53.5C 173.5,61.1667 173.5,68.8333 173.5,76.5C 166.5,76.5 159.5,76.5 152.5,76.5C 152.5,76.1667 152.5,75.8333 152.5,75.5C 158.744,74.5422 165.077,74.2088 171.5,74.5C 171.67,73.1779 171.337,72.0113 170.5,71C 171.148,65.0672 171.814,59.2339 172.5,53.5 Z"/></g>
<g><path style="opacity:0.188" fill="#a3a3a3" d="M 321.5,72.5 C 321.468,74.5666 320.468,75.8999 318.5,76.5C 317.287,76.2528 316.62,75.5862 316.5,74.5C 318.322,74.1692 319.989,73.5025 321.5,72.5 Z"/></g>
<g><path style="opacity:0.104" fill="#d1d1d1" d="M 205.5,70.5 C 205.833,70.5 206.167,70.5 206.5,70.5C 206.5,72.5 206.5,74.5 206.5,76.5C 213.167,76.5 219.833,76.5 226.5,76.5C 226.5,91.8333 226.5,107.167 226.5,122.5C 224.68,108.201 223.846,93.5342 224,78.5C 217.915,77.6883 211.748,77.1883 205.5,77C 204.964,74.5969 204.964,72.4302 205.5,70.5 Z"/></g>
<g><path style="opacity:1" fill="#4c4c4c" d="M 226.5,76.5 C 227.496,91.324 227.829,106.324 227.5,121.5C 234.5,121.5 241.5,121.5 248.5,121.5C 248.171,106.324 248.504,91.324 249.5,76.5C 249.5,91.8333 249.5,107.167 249.5,122.5C 241.833,123.833 234.167,123.833 226.5,122.5C 226.5,107.167 226.5,91.8333 226.5,76.5 Z"/></g>
<g><path style="opacity:0.089" fill="#dcdcdc" d="M 249.5,76.5 C 256.167,76.5 262.833,76.5 269.5,76.5C 268.469,77.2485 267.302,77.9152 266,78.5C 261,77.1667 256,77.1667 251,78.5C 250.184,92.5451 250.351,106.545 251.5,120.5C 251.145,121.522 250.478,122.189 249.5,122.5C 249.5,107.167 249.5,91.8333 249.5,76.5 Z"/></g>
<g><path style="opacity:1" fill="#bababa" d="M 304.5,93.5 C 307.264,94.9475 308.931,97.2809 309.5,100.5C 307.123,98.772 305.456,96.4386 304.5,93.5 Z"/></g>
<g><path style="opacity:0.231" fill="#a9a9a9" d="M 330.5,95.5 C 330.573,97.0269 329.906,98.0269 328.5,98.5C 328.285,96.8212 328.952,95.8212 330.5,95.5 Z"/></g>
<g><path style="opacity:0.49" fill="#9e9e9e" d="M 392.5,53.5 C 393.496,68.324 393.829,83.324 393.5,98.5C 403.807,98.4558 413.807,98.4558 423.5,98.5C 423.5,98.8333 423.5,99.1667 423.5,99.5C 413.167,99.5 402.833,99.5 392.5,99.5C 392.5,84.1667 392.5,68.8333 392.5,53.5 Z"/></g>
<g><path style="opacity:1" fill="#616161" d="M 391.5,53.5 C 391.833,53.5 392.167,53.5 392.5,53.5C 392.5,68.8333 392.5,84.1667 392.5,99.5C 402.833,99.5 413.167,99.5 423.5,99.5C 423.5,99.8333 423.5,100.167 423.5,100.5C 412.448,101.143 401.781,100.476 391.5,98.5C 391.5,83.5 391.5,68.5 391.5,53.5 Z"/></g>
<g><path style="opacity:1" fill="#4c4c4c" d="M 304.5,90.5 C 302.524,100.781 301.857,111.448 302.5,122.5C 294.981,122.825 287.648,122.492 280.5,121.5C 287.5,121.5 294.5,121.5 301.5,121.5C 301.5,110.833 301.5,100.167 301.5,89.5C 302.791,89.2627 303.791,89.596 304.5,90.5 Z"/></g>
<g><path style="opacity:0.176" fill="#bbbbbb" d="M 328.5,98.5 C 328.611,99.1174 328.944,99.6174 329.5,100C 328.264,101.085 326.931,101.918 325.5,102.5C 325.554,100.368 326.554,99.0347 328.5,98.5 Z"/></g>
<g><path style="opacity:1" fill="#808080" d="M 152.5,98.5 C 159.5,98.5 166.5,98.5 173.5,98.5C 173.5,105.833 173.5,113.167 173.5,120.5C 173.5,121.167 173.5,121.833 173.5,122.5C 173.167,122.5 172.833,122.5 172.5,122.5C 172.825,114.981 172.492,107.648 171.5,100.5C 165.167,100.5 158.833,100.5 152.5,100.5C 152.5,99.8333 152.5,99.1667 152.5,98.5 Z"/></g>
<g><path style="opacity:0.128" fill="#d1d1d1" d="M 304.5,90.5 C 304.5,91.1667 304.5,91.8333 304.5,92.5C 303.833,102.5 303.167,112.5 302.5,122.5C 301.857,111.448 302.524,100.781 304.5,90.5 Z"/></g>
<g><path style="opacity:0.004" fill="#f0f1f0" d="M 307.5,101.5 C 308.833,102.167 308.833,102.167 307.5,101.5 Z"/></g>
<g><path style="opacity:1" fill="#afafaf" d="M 309.5,100.5 C 311.048,100.821 311.715,101.821 311.5,103.5C 310.094,103.027 309.427,102.027 309.5,100.5 Z"/></g>
<g><path style="opacity:0.098" fill="#dcdcdc" d="M 171.5,100.5 C 172.492,107.648 172.825,114.981 172.5,122.5C 171.733,121.828 171.066,120.995 170.5,120C 171.478,113.59 171.811,107.09 171.5,100.5 Z"/></g>
<g><path style="opacity:0.353" fill="#9f9f9f" d="M 332.5,90.5 C 334.476,100.781 335.143,111.448 334.5,122.5C 333.67,112.675 333.17,102.675 333,92.5C 332.764,94.1193 331.931,95.1193 330.5,95.5C 330.392,93.4862 331.058,91.8195 332.5,90.5 Z"/></g>
<g><path style="opacity:1" fill="#404040" d="M 332.5,90.5 C 333.209,89.596 334.209,89.2627 335.5,89.5C 335.5,100.167 335.5,110.833 335.5,121.5C 342.5,121.5 349.5,121.5 356.5,121.5C 349.352,122.492 342.019,122.825 334.5,122.5C 335.143,111.448 334.476,100.781 332.5,90.5 Z"/></g>
<g><path style="opacity:0.114" fill="#cecece" d="M 325.5,103.5 C 326.66,105.203 325.993,105.869 323.5,105.5C 323.5,104.167 324.167,103.5 325.5,103.5 Z"/></g>
<g><path style="opacity:0.031" fill="#b9b9b9" d="M 311.5,103.5 C 313.482,105.502 315.148,107.835 316.5,110.5C 313.308,109.301 311.641,106.968 311.5,103.5 Z"/></g>
<g><path style="opacity:0.008" fill="#eff0ef" d="M 324.5,106.5 C 325.833,107.167 325.833,107.167 324.5,106.5 Z"/></g>
<g><path style="opacity:0.138" fill="#bfbfbf" d="M 423.5,98.5 C 424.824,102.107 425.491,106.107 425.5,110.5C 425.491,114.893 424.824,118.893 423.5,122.5C 423.5,122.167 423.5,121.833 423.5,121.5C 423.5,114.5 423.5,107.5 423.5,100.5C 423.5,100.167 423.5,99.8333 423.5,99.5C 423.5,99.1667 423.5,98.8333 423.5,98.5 Z"/></g>
<g><path style="opacity:0.02" fill="#ecedec" d="M 311.5,109.5 C 312.833,110.167 312.833,110.167 311.5,109.5 Z"/></g>
<g><path style="opacity:0.322" fill="#848484" d="M 323.5,105.5 C 323.161,109.354 321.161,111.687 317.5,112.5C 317.167,112.5 316.833,112.5 316.5,112.5C 316.5,111.833 316.5,111.167 316.5,110.5C 319.415,109.576 321.748,107.909 323.5,105.5 Z"/></g>
<g><path style="opacity:0.012" fill="#ebebeb" d="M 316.5,112.5 C 316.833,112.5 317.167,112.5 317.5,112.5C 317.631,113.376 317.298,114.043 316.5,114.5C 315.537,114.03 315.537,113.363 316.5,112.5 Z"/></g>
<g><path style="opacity:0.008" fill="#eff0ef" d="M 318.5,114.5 C 319.833,115.167 319.833,115.167 318.5,114.5 Z"/></g>
<g><path style="opacity:0.027" fill="#eaebea" d="M 315.5,115.5 C 316.833,116.167 316.833,116.167 315.5,115.5 Z"/></g>
<g><path style="opacity:1" fill="#484848" d="M 129.5,54.5 C 129.5,76.5 129.5,98.5 129.5,120.5C 136.5,120.5 143.5,120.5 150.5,120.5C 149.87,112.757 150.537,105.424 152.5,98.5C 152.5,99.1667 152.5,99.8333 152.5,100.5C 152.5,107.167 152.5,113.833 152.5,120.5C 151.711,120.783 151.044,121.283 150.5,122C 143.253,122.812 136.086,122.646 129,121.5C 128.17,98.9962 128.337,76.6629 129.5,54.5 Z"/></g>
<g><path style="opacity:0.008" fill="#eff0ef" d="M 360.5,120.5 C 361.833,121.167 361.833,121.167 360.5,120.5 Z"/></g>
<g><path style="opacity:1" fill="#3c3c3c" d="M 173.5,120.5 C 180.833,120.5 188.167,120.5 195.5,120.5C 195.5,121.167 195.5,121.833 195.5,122.5C 188.167,122.5 180.833,122.5 173.5,122.5C 173.5,121.833 173.5,121.167 173.5,120.5 Z"/></g>
<g><path style="opacity:1" fill="#747474" d="M 368.5,120.5 C 386.757,121.486 405.09,121.82 423.5,121.5C 423.5,121.833 423.5,122.167 423.5,122.5C 405.329,123.827 386.996,123.827 368.5,122.5C 367.45,121.571 367.45,120.905 368.5,120.5 Z"/></g>
<g><path style="opacity:0.129" fill="#d5d5d5" d="M 172.5,122.5 C 172.833,122.5 173.167,122.5 173.5,122.5C 180.833,122.5 188.167,122.5 195.5,122.5C 195.631,123.239 195.464,123.906 195,124.5C 187.401,123.848 179.901,123.182 172.5,122.5 Z"/></g>
<g><path style="opacity:0.004" fill="#f0f1f0" d="M 367.5,125.5 C 368.833,126.167 368.833,126.167 367.5,125.5 Z"/></g>
<g><path style="opacity:0.114" fill="#f4dad6" d="M 481.5,173.5 C 481.795,171.265 481.461,169.265 480.5,167.5C 344.334,166.5 208.001,166.167 71.5,166.5C 71.1936,169.385 71.5269,172.052 72.5,174.5C 72.5,176.833 72.5,179.167 72.5,181.5C 71.7784,181.082 71.2784,180.416 71,179.5C 70.5008,174.845 70.3342,170.179 70.5,165.5C 207.5,165.333 344.5,165.5 481.5,166C 483.974,168.479 483.974,170.979 481.5,173.5 Z"/></g>
<g><path style="opacity:1" fill="#f0ae9d" d="M 480.5,167.5 C 344.5,167.5 208.5,167.5 72.5,167.5C 72.5,169.833 72.5,172.167 72.5,174.5C 71.5269,172.052 71.1936,169.385 71.5,166.5C 208.001,166.167 344.334,166.5 480.5,167.5 Z"/></g>
<g><path style="opacity:1" fill="#e95937" d="M 480.5,167.5 C 480.5,167.833 480.5,168.167 480.5,168.5C 344.833,168.333 209.166,168.5 73.5,169C 208.5,169.333 343.5,169.667 478.5,170C 343.333,170.167 208.333,170.667 73.5,171.5C 73.5,171.833 73.5,172.167 73.5,172.5C 73.5,175.833 73.5,179.167 73.5,182.5C 73.1667,182.5 72.8333,182.5 72.5,182.5C 72.5,182.167 72.5,181.833 72.5,181.5C 72.5,179.167 72.5,176.833 72.5,174.5C 72.5,172.167 72.5,169.833 72.5,167.5C 208.5,167.5 344.5,167.5 480.5,167.5 Z"/></g>
<g><path style="opacity:1" fill="#e74827" d="M 480.5,168.5 C 480.784,170.415 480.451,172.081 479.5,173.5C 344.504,171.502 209.171,170.835 73.5,171.5C 208.333,170.667 343.333,170.167 478.5,170C 343.5,169.667 208.5,169.333 73.5,169C 209.166,168.5 344.833,168.333 480.5,168.5 Z"/></g>
<g><path style="opacity:1" fill="#e8491b" d="M 73.5,172.5 C 73.5,172.167 73.5,171.833 73.5,171.5C 209.171,170.835 344.504,171.502 479.5,173.5C 344.237,172.502 208.903,172.168 73.5,172.5 Z"/></g>
<g><path style="opacity:1" fill="#e54d26" d="M 73.5,172.5 C 208.903,172.168 344.237,172.502 479.5,173.5C 479.5,176.5 479.5,179.5 479.5,182.5C 478.194,187.616 477.527,192.949 477.5,198.5C 477.5,202.833 477.5,207.167 477.5,211.5C 477.5,212.5 477.5,213.5 477.5,214.5C 475.631,216.635 474.964,219.302 475.5,222.5C 475.5,227.833 475.5,233.167 475.5,238.5C 474.732,239.263 474.232,240.263 474,241.5C 473.501,245.821 473.334,250.154 473.5,254.5C 472.513,259.305 472.179,264.305 472.5,269.5C 472.5,269.833 472.5,270.167 472.5,270.5C 471.004,276.605 470.337,282.938 470.5,289.5C 470.5,291.167 470.5,292.833 470.5,294.5C 469.188,296.743 468.522,299.41 468.5,302.5C 467.622,317.549 466.622,332.549 465.5,347.5C 465.5,348.5 465.5,349.5 465.5,350.5C 463.75,354.183 463.083,358.183 463.5,362.5C 463.388,369.18 463.054,375.847 462.5,382.5C 461.194,387.616 460.527,392.949 460.5,398.5C 460.5,401.167 460.5,403.833 460.5,406.5C 458.631,408.635 457.964,411.302 458.5,414.5C 458.5,418.167 458.5,421.833 458.5,425.5C 458.5,427.167 458.5,428.833 458.5,430.5C 455.228,448.391 453.561,466.724 453.5,485.5C 453.5,485.833 453.5,486.167 453.5,486.5C 451.631,488.635 450.964,491.302 451.5,494.5C 451.5,497.167 451.5,499.833 451.5,502.5C 450.778,502.918 450.278,503.584 450,504.5C 449.502,507.482 449.335,510.482 449.5,513.5C 449.5,517.833 449.5,522.167 449.5,526.5C 448.194,531.616 447.527,536.949 447.5,542.5C 447.167,547.833 446.833,553.167 446.5,558.5C 445.194,563.616 444.527,568.949 444.5,574.5C 445.154,578.839 444.154,582.673 441.5,586C 432.068,587.975 422.734,590.475 413.5,593.5C 409.2,593.755 405.2,594.755 401.5,596.5C 400.5,597.167 399.5,597.833 398.5,598.5C 397.833,598.5 397.167,598.5 396.5,598.5C 389.353,600.045 382.186,601.711 375,603.5C 371.551,604.581 368.384,605.914 365.5,607.5C 355.836,609.093 346.503,611.426 337.5,614.5C 335.102,614.259 333.102,614.926 331.5,616.5C 330.508,616.328 329.842,616.662 329.5,617.5C 329.167,617.5 328.833,617.5 328.5,617.5C 327.167,617.5 325.833,617.5 324.5,617.5C 322.214,617.595 320.214,618.262 318.5,619.5C 316.632,620.263 314.965,621.263 313.5,622.5C 307.531,622.202 302.198,623.535 297.5,626.5C 290.633,626.579 284.3,628.245 278.5,631.5C 277.167,631.5 275.833,631.5 274.5,631.5C 274.167,631.5 273.833,631.5 273.5,631.5C 259.508,625.961 244.841,621.961 229.5,619.5C 229.167,619.5 228.833,619.5 228.5,619.5C 227.082,617.692 225.082,617.025 222.5,617.5C 219.592,615.395 216.258,614.395 212.5,614.5C 211.5,614.5 210.5,614.5 209.5,614.5C 208.019,612.753 206.019,611.586 203.5,611C 195.81,609.119 188.143,607.286 180.5,605.5C 179.348,606.625 178.348,606.625 177.5,605.5C 175.152,603.903 172.486,602.903 169.5,602.5C 167.485,601.076 165.152,600.41 162.5,600.5C 162.167,600.5 161.833,600.5 161.5,600.5C 160.448,598.744 158.781,598.077 156.5,598.5C 155.5,598.5 154.5,598.5 153.5,598.5C 153.03,597.307 152.03,596.64 150.5,596.5C 148.182,596.003 145.848,595.67 143.5,595.5C 143.167,595.5 142.833,595.5 142.5,595.5C 142.389,594.883 142.056,594.383 141.5,594C 139.19,593.503 136.857,593.337 134.5,593.5C 131.679,591.288 128.345,590.288 124.5,590.5C 123.329,589.655 121.995,588.989 120.5,588.5C 119.365,586.787 117.698,586.12 115.5,586.5C 114.167,586.5 112.833,586.5 111.5,586.5C 110.833,586.5 110.167,586.5 109.5,586.5C 108.667,576.828 107.333,567.495 105.5,558.5C 105.5,555.167 105.5,551.833 105.5,548.5C 105.5,545.5 105.5,542.5 105.5,539.5C 105.422,532.3 104.755,525.3 103.5,518.5C 100.169,486.539 97.5028,454.539 95.5,422.5C 96.0356,419.302 95.369,416.635 93.5,414.5C 93.5,414.167 93.5,413.833 93.5,413.5C 93.5,411.167 93.5,408.833 93.5,406.5C 93.8221,398.271 93.1554,390.271 91.5,382.5C 91.4921,374.092 90.4921,366.092 88.5,358.5C 88.5,356.5 88.5,354.5 88.5,352.5C 89.069,348.671 88.4023,345.337 86.5,342.5C 86.5,340.5 86.5,338.5 86.5,336.5C 86.5,333.167 86.5,329.833 86.5,326.5C 87.0356,323.302 86.369,320.635 84.5,318.5C 84.5,318.167 84.5,317.833 84.5,317.5C 84.4766,309.817 84.1433,302.15 83.5,294.5C 83.6657,290.154 83.499,285.821 83,281.5C 82.7679,280.263 82.2679,279.263 81.5,278.5C 81.927,272.886 81.2604,267.553 79.5,262.5C 79.5,261.167 79.5,259.833 79.5,258.5C 79.5,254.5 79.5,250.5 79.5,246.5C 79.7204,241.9 79.0538,237.567 77.5,233.5C 77.3473,227.155 77.014,220.822 76.5,214.5C 77.0356,211.302 76.369,208.635 74.5,206.5C 74.5,204.5 74.5,202.5 74.5,200.5C 74.5,197.167 74.5,193.833 74.5,190.5C 74.8064,187.615 74.4731,184.948 73.5,182.5C 73.5,179.167 73.5,175.833 73.5,172.5 Z"/></g>
<g><path style="opacity:0.012" fill="#fefeef" d="M 65.5,180.5 C 66.525,180.897 66.6917,181.563 66,182.5C 65.5357,181.906 65.369,181.239 65.5,180.5 Z"/></g>
<g><path style="opacity:0.006" fill="#f0fef5" d="M 68.5,180.5 C 69.525,180.897 69.6917,181.563 69,182.5C 68.5357,181.906 68.369,181.239 68.5,180.5 Z"/></g>
<g><path style="opacity:1" fill="#f5947e" d="M 480.5,167.5 C 481.461,169.265 481.795,171.265 481.5,173.5C 481.5,174.833 481.5,176.167 481.5,177.5C 480.833,179.167 480.167,180.833 479.5,182.5C 479.5,179.5 479.5,176.5 479.5,173.5C 480.451,172.081 480.784,170.415 480.5,168.5C 480.5,168.167 480.5,167.833 480.5,167.5 Z"/></g>
<g><path style="opacity:1" fill="#f3b1a0" d="M 72.5,182.5 C 72.8333,182.5 73.1667,182.5 73.5,182.5C 74.4731,184.948 74.8064,187.615 74.5,190.5C 73.8333,190.5 73.1667,190.5 72.5,190.5C 71.1667,187.833 71.1667,185.167 72.5,182.5 Z"/></g>
<g><path style="opacity:0.157" fill="#f6decc" d="M 481.5,177.5 C 481.65,184.721 480.983,191.721 479.5,198.5C 479.5,193.167 479.5,187.833 479.5,182.5C 480.167,180.833 480.833,179.167 481.5,177.5 Z"/></g>
<g><path style="opacity:0.071" fill="#f8d8d6" d="M 72.5,190.5 C 73.1667,190.5 73.8333,190.5 74.5,190.5C 74.5,193.833 74.5,197.167 74.5,200.5C 73.7784,200.082 73.2784,199.416 73,198.5C 72.5026,195.854 72.3359,193.187 72.5,190.5 Z"/></g>
<g><path style="opacity:1" fill="#ee7e69" d="M 479.5,182.5 C 479.5,187.833 479.5,193.167 479.5,198.5C 478.833,198.5 478.167,198.5 477.5,198.5C 477.527,192.949 478.194,187.616 479.5,182.5 Z"/></g>
<g><path style="opacity:1" fill="#f16428" d="M 278.5,543.5 C 280.179,543.715 281.179,543.048 281.5,541.5C 282.492,541.672 283.158,541.338 283.5,540.5C 288.847,539.296 294.18,537.963 299.5,536.5C 301.898,536.741 303.898,536.074 305.5,534.5C 306.833,534.5 308.167,534.5 309.5,534.5C 315.281,533.925 320.615,532.258 325.5,529.5C 329.387,528.149 333.387,527.149 337.5,526.5C 341.405,526.099 344.738,524.766 347.5,522.5C 349.5,522.5 351.5,522.5 353.5,522.5C 354.873,522.343 356.207,522.51 357.5,523C 356.304,523.654 356.304,524.154 357.5,524.5C 360.753,521.182 364.753,519.182 369.5,518.5C 371.332,517.943 372.665,516.943 373.5,515.5C 376.533,515.868 379.2,515.202 381.5,513.5C 382.636,507.359 383.303,501.026 383.5,494.5C 383.5,491.833 383.5,489.167 383.5,486.5C 384.806,481.384 385.473,476.051 385.5,470.5C 385.5,469.167 385.5,467.833 385.5,466.5C 387.136,462.79 387.802,458.79 387.5,454.5C 387.5,449.167 387.5,443.833 387.5,438.5C 388.222,438.918 388.722,439.584 389,440.5C 389.498,437.183 389.665,433.85 389.5,430.5C 391.796,420.097 392.796,409.43 392.5,398.5C 392.5,397.167 392.5,395.833 392.5,394.5C 394.136,390.79 394.802,386.79 394.5,382.5C 394.5,379.833 394.5,377.167 394.5,374.5C 394.5,371.833 394.5,369.167 394.5,366.5C 395.777,365.306 396.444,363.64 396.5,361.5C 396.444,359.36 395.777,357.694 394.5,356.5C 355.167,356.5 315.833,356.5 276.5,356.5C 275.5,356.5 274.5,356.5 273.5,356.5C 275.969,355.683 278.635,355.183 281.5,355C 279.866,354.506 278.199,354.34 276.5,354.5C 276.5,339.5 276.5,324.5 276.5,309.5C 443.167,309.167 443.167,308.833 276.5,308.5C 276.5,307.167 276.5,305.833 276.5,304.5C 318.167,304.5 359.833,304.5 401.5,304.5C 401.5,302.167 401.5,299.833 401.5,297.5C 401.653,291.155 401.986,284.822 402.5,278.5C 402.833,278.5 403.167,278.5 403.5,278.5C 404.302,277.048 404.802,275.382 405,273.5C 405.333,277.833 405.667,282.167 406,286.5C 406.034,274.507 405.867,262.507 405.5,250.5C 404.167,250.5 402.833,250.5 401.5,250.5C 358.833,250.5 316.167,250.5 273.5,250.5C 274.398,249.842 275.398,249.176 276.5,248.5C 275.173,232.637 275.173,216.804 276.5,201C 331.737,200.831 386.904,200.331 442,199.5C 443.924,201.009 445.091,203.009 445.5,205.5C 442.269,224.352 440.269,243.352 439.5,262.5C 438.167,270.5 436.833,278.5 435.5,286.5C 430.217,355.897 424.384,425.23 418,494.5C 415.83,515.923 413.33,537.256 410.5,558.5C 394.172,563.488 377.839,568.488 361.5,573.5C 357.541,574.327 353.541,574.827 349.5,575C 335.052,579.947 320.385,584.28 305.5,588C 302.854,588.497 300.187,588.664 297.5,588.5C 297.5,589.5 297.5,590.5 297.5,591.5C 290.653,593.586 283.653,594.919 276.5,595.5C 276.419,578.673 276.419,562.007 276.5,545.5C 275.448,545.649 274.448,545.483 273.5,545C 275.382,544.802 277.048,544.302 278.5,543.5 Z"/></g>
<g><path style="opacity:1" fill="#f1c5b6" d="M 477.5,198.5 C 478.167,198.5 478.833,198.5 479.5,198.5C 480.097,203.294 479.43,207.627 477.5,211.5C 477.5,207.167 477.5,202.833 477.5,198.5 Z"/></g>
<g><path style="opacity:1" fill="#f3ab92" d="M 74.5,206.5 C 76.369,208.635 77.0356,211.302 76.5,214.5C 74.9519,214.179 74.2852,213.179 74.5,211.5C 74.5,209.833 74.5,208.167 74.5,206.5 Z"/></g>
<g><path style="opacity:0.029" fill="#f0fdfa" d="M 480.5,219.5 C 478.7,218.105 478.366,216.439 479.5,214.5C 480.452,216.045 480.785,217.712 480.5,219.5 Z"/></g>
<g><path style="opacity:0.004" fill="#fff7f1" d="M 480.5,219.5 C 481.573,220.251 481.74,221.251 481,222.5C 480.517,221.552 480.351,220.552 480.5,219.5 Z"/></g>
<g><path style="opacity:0.141" fill="#fad5c9" d="M 74.5,211.5 C 74.2852,213.179 74.9519,214.179 76.5,214.5C 77.014,220.822 77.3473,227.155 77.5,233.5C 77.1561,238.122 77.8227,242.455 79.5,246.5C 79.5,250.5 79.5,254.5 79.5,258.5C 77.274,243.808 75.274,228.808 73.5,213.5C 73.5427,212.584 73.8761,211.917 74.5,211.5 Z"/></g>
<g><path style="opacity:1" fill="#ed8970" d="M 477.5,214.5 C 477.5,217.167 477.5,219.833 477.5,222.5C 476.833,222.5 476.167,222.5 475.5,222.5C 474.964,219.302 475.631,216.635 477.5,214.5 Z"/></g>
<g><path style="opacity:0.004" fill="#f8fff0" d="M 73.5,237.5 C 74.8333,238.167 74.8333,238.167 73.5,237.5 Z"/></g>
<g><path style="opacity:0.092" fill="#fbded1" d="M 475.5,222.5 C 476.167,222.5 476.833,222.5 477.5,222.5C 477.337,224.857 477.503,227.19 478,229.5C 478.654,228.304 479.154,228.304 479.5,229.5C 476.582,231.008 475.916,233.175 477.5,236C 476.531,242.268 475.531,248.435 474.5,254.5C 474.472,249.138 474.806,243.805 475.5,238.5C 475.5,233.167 475.5,227.833 475.5,222.5 Z"/></g>
<g><path style="opacity:1" fill="#ec8064" d="M 77.5,233.5 C 79.0538,237.567 79.7204,241.9 79.5,246.5C 77.8227,242.455 77.1561,238.122 77.5,233.5 Z"/></g>
<g><path style="opacity:0.007" fill="#f1fcfc" d="M 74.5,243.5 C 75.5983,244.601 75.765,245.934 75,247.5C 74.51,246.207 74.3433,244.873 74.5,243.5 Z"/></g>
<g><path style="opacity:1" fill="#eb9b88" d="M 475.5,238.5 C 474.806,243.805 474.472,249.138 474.5,254.5C 474.167,254.5 473.833,254.5 473.5,254.5C 473.334,250.154 473.501,245.821 474,241.5C 474.232,240.263 474.732,239.263 475.5,238.5 Z"/></g>
<g><path style="opacity:1" fill="#e96041" d="M 273.5,250.5 C 316.167,250.5 358.833,250.5 401.5,250.5C 358.833,251.167 316.167,251.833 273.5,252.5C 231.833,252.5 190.167,252.5 148.5,252.5C 148.5,255.833 148.5,259.167 148.5,262.5C 148.081,258.533 147.081,254.7 145.5,251C 188.165,250.5 230.832,250.333 273.5,250.5 Z"/></g>
<g><path style="opacity:1" fill="#f3733a" d="M 401.5,250.5 C 402.833,250.5 404.167,250.5 405.5,250.5C 405.867,262.507 406.034,274.507 406,286.5C 405.667,282.167 405.333,277.833 405,273.5C 404.802,275.382 404.302,277.048 403.5,278.5C 403.833,273.167 404.167,267.833 404.5,262.5C 404.5,259.167 404.5,255.833 404.5,252.5C 361.833,252.5 319.167,252.5 276.5,252.5C 275.5,252.5 274.5,252.5 273.5,252.5C 316.167,251.833 358.833,251.167 401.5,250.5 Z"/></g>
<g><path style="opacity:0.013" fill="#f7ffee" d="M 74.5,254.5 C 75.6341,256.966 75.8007,259.633 75,262.5C 74.5026,259.854 74.3359,257.187 74.5,254.5 Z"/></g>
<g><path style="opacity:1" fill="#ebebea" d="M 273.5,252.5 C 274.5,252.5 275.5,252.5 276.5,252.5C 276.5,269.167 276.5,285.833 276.5,302.5C 252.5,302.5 228.5,302.5 204.5,302.5C 204.334,309.175 204.5,315.842 205,322.5C 205.21,324.058 205.71,325.391 206.5,326.5C 206.833,331.833 207.167,337.167 207.5,342.5C 207.116,346.489 207.783,350.155 209.5,353.5C 209.5,353.833 209.5,354.167 209.5,354.5C 230.474,356.489 251.807,357.156 273.5,356.5C 274.5,356.5 275.5,356.5 276.5,356.5C 276.5,373.167 276.5,389.833 276.5,406.5C 238.5,406.5 200.5,406.5 162.5,406.5C 162.806,403.615 162.473,400.948 161.5,398.5C 161.5,396.833 161.5,395.167 161.5,393.5C 161.884,389.511 161.217,385.845 159.5,382.5C 159.5,379.833 159.5,377.167 159.5,374.5C 160.036,371.302 159.369,368.635 157.5,366.5C 157.481,355.772 156.814,345.105 155.5,334.5C 155.473,328.949 154.806,323.616 153.5,318.5C 152.834,310.517 152.501,302.517 152.5,294.5C 153.036,291.302 152.369,288.635 150.5,286.5C 150.5,283.833 150.5,281.167 150.5,278.5C 150.5,275.833 150.5,273.167 150.5,270.5C 151.036,267.302 150.369,264.635 148.5,262.5C 148.5,259.167 148.5,255.833 148.5,252.5C 190.167,252.5 231.833,252.5 273.5,252.5 Z"/></g>
<g><path style="opacity:1" fill="#fefefe" d="M 276.5,252.5 C 319.167,252.5 361.833,252.5 404.5,252.5C 404.5,255.833 404.5,259.167 404.5,262.5C 402.554,267.396 401.887,272.729 402.5,278.5C 401.986,284.822 401.653,291.155 401.5,297.5C 400.313,299.072 399.313,300.739 398.5,302.5C 357.833,302.5 317.167,302.5 276.5,302.5C 276.5,285.833 276.5,269.167 276.5,252.5 Z"/></g>
<g><path style="opacity:0.149" fill="#f5c6c1" d="M 473.5,254.5 C 473.833,254.5 474.167,254.5 474.5,254.5C 474.666,258.846 474.499,263.179 474,267.5C 473.722,268.416 473.222,269.082 472.5,269.5C 472.179,264.305 472.513,259.305 473.5,254.5 Z"/></g>
<g><path style="opacity:0.008" fill="#f0fff4" d="M 475.5,259.5 C 476.573,260.251 476.74,261.251 476,262.5C 475.517,261.552 475.351,260.552 475.5,259.5 Z"/></g>
<g><path style="opacity:1" fill="#e6bdae" d="M 148.5,262.5 C 150.369,264.635 151.036,267.302 150.5,270.5C 149.833,270.5 149.167,270.5 148.5,270.5C 148.5,267.833 148.5,265.167 148.5,262.5 Z"/></g>
<g><path style="opacity:1" fill="#fbbba1" d="M 404.5,262.5 C 404.167,267.833 403.833,273.167 403.5,278.5C 403.167,278.5 402.833,278.5 402.5,278.5C 401.887,272.729 402.554,267.396 404.5,262.5 Z"/></g>
<g><path style="opacity:1" fill="#e68168" d="M 148.5,270.5 C 149.167,270.5 149.833,270.5 150.5,270.5C 150.5,273.167 150.5,275.833 150.5,278.5C 148.631,276.365 147.964,273.698 148.5,270.5 Z"/></g>
<g><path style="opacity:0.071" fill="#f8d0d0" d="M 472.5,270.5 C 472.318,273.478 472.651,276.645 473.5,280C 473.272,283.641 472.272,286.808 470.5,289.5C 470.337,282.938 471.004,276.605 472.5,270.5 Z"/></g>
<g><path style="opacity:1" fill="#f27d63" d="M 81.5,278.5 C 82.2679,279.263 82.7679,280.263 83,281.5C 83.499,285.821 83.6657,290.154 83.5,294.5C 82.1937,289.384 81.527,284.051 81.5,278.5 Z"/></g>
<g><path style="opacity:0.122" fill="#f6d1c7" d="M 79.5,262.5 C 81.2604,267.553 81.927,272.886 81.5,278.5C 81.527,284.051 82.1937,289.384 83.5,294.5C 84.1433,302.15 84.4766,309.817 84.5,317.5C 82.9496,315.7 81.9496,313.533 81.5,311C 82.1371,308.757 82.4704,306.424 82.5,304C 81.0902,290.838 79.7569,277.672 78.5,264.5C 78.5427,263.584 78.8761,262.917 79.5,262.5 Z"/></g>
<g><path style="opacity:1" fill="#e1ad9b" d="M 150.5,286.5 C 152.369,288.635 153.036,291.302 152.5,294.5C 150.631,292.365 149.964,289.698 150.5,286.5 Z"/></g>
<g><path style="opacity:0.004" fill="#fef8f0" d="M 471.5,294.5 C 472.833,295.167 472.833,295.167 471.5,294.5 Z"/></g>
<g><path style="opacity:1" fill="#f9c9bd" d="M 276.5,302.5 C 317.167,302.5 357.833,302.5 398.5,302.5C 334.167,303.167 269.833,303.833 205.5,304.5C 205.944,311.827 206.277,319.16 206.5,326.5C 205.71,325.391 205.21,324.058 205,322.5C 204.5,315.842 204.334,309.175 204.5,302.5C 228.5,302.5 252.5,302.5 276.5,302.5 Z"/></g>
<g><path style="opacity:1" fill="#eac5a8" d="M 401.5,297.5 C 401.5,299.833 401.5,302.167 401.5,304.5C 359.833,304.5 318.167,304.5 276.5,304.5C 252.833,304.5 229.167,304.5 205.5,304.5C 269.833,303.833 334.167,303.167 398.5,302.5C 399.313,300.739 400.313,299.072 401.5,297.5 Z"/></g>
<g><path style="opacity:1" fill="#e54d26" d="M 205.5,304.5 C 229.167,304.5 252.833,304.5 276.5,304.5C 276.5,305.833 276.5,307.167 276.5,308.5C 443.167,308.833 443.167,309.167 276.5,309.5C 276.5,324.5 276.5,339.5 276.5,354.5C 254.167,354.5 231.833,354.5 209.5,354.5C 209.5,354.167 209.5,353.833 209.5,353.5C 209.884,349.511 209.217,345.845 207.5,342.5C 207.167,337.167 206.833,331.833 206.5,326.5C 206.277,319.16 205.944,311.827 205.5,304.5 Z"/></g>
<g><path style="opacity:1" fill="#f4ac97" d="M 84.5,318.5 C 86.369,320.635 87.0356,323.302 86.5,326.5C 85.1667,326.5 84.5,325.833 84.5,324.5C 83.7093,322.309 83.7093,320.309 84.5,318.5 Z"/></g>
<g><path style="opacity:0.028" fill="#fbf3e7" d="M 84.5,324.5 C 84.5,325.833 85.1667,326.5 86.5,326.5C 86.5,329.833 86.5,333.167 86.5,336.5C 84.78,334.342 83.9467,331.675 84,328.5C 83.6667,333.167 83.3333,337.833 83,342.5C 82.3333,337.167 82.3333,331.833 83,326.5C 83.2784,325.584 83.7784,324.918 84.5,324.5 Z"/></g>
<g><path style="opacity:1" fill="#e79581" d="M 153.5,318.5 C 154.806,323.616 155.473,328.949 155.5,334.5C 153.822,329.432 153.156,324.098 153.5,318.5 Z"/></g>
<g><path style="opacity:0.078" fill="#f8c9bd" d="M 470.5,294.5 C 471.418,299.52 471.752,304.52 471.5,309.5C 471.154,310.696 470.654,310.696 470,309.5C 468.927,321.494 467.927,333.494 467,345.5C 466.722,346.416 466.222,347.082 465.5,347.5C 466.622,332.549 467.622,317.549 468.5,302.5C 468.522,299.41 469.188,296.743 470.5,294.5 Z"/></g>
<g><path style="opacity:1" fill="#eb795d" d="M 207.5,342.5 C 209.217,345.845 209.884,349.511 209.5,353.5C 207.783,350.155 207.116,346.489 207.5,342.5 Z"/></g>
<g><path style="opacity:0.006" fill="#f5fef0" d="M 85.5,350.5 C 85.6641,353.187 85.4974,355.854 85,358.5C 84.1993,355.633 84.3659,352.966 85.5,350.5 Z"/></g>
<g><path style="opacity:1" fill="#f3bfab" d="M 86.5,342.5 C 88.4023,345.337 89.069,348.671 88.5,352.5C 87.8333,351.833 87.1667,351.167 86.5,350.5C 86.1667,350.5 85.8333,350.5 85.5,350.5C 85.1936,347.615 85.5269,344.948 86.5,342.5 Z"/></g>
<g><path style="opacity:1" fill="#e45837" d="M 209.5,354.5 C 231.833,354.5 254.167,354.5 276.5,354.5C 278.199,354.34 279.866,354.506 281.5,355C 278.635,355.183 275.969,355.683 273.5,356.5C 251.807,357.156 230.474,356.489 209.5,354.5 Z"/></g>
<g><path style="opacity:1" fill="#fefefd" d="M 276.5,356.5 C 315.833,356.5 355.167,356.5 394.5,356.5C 394.5,359.833 394.5,363.167 394.5,366.5C 394.5,369.167 394.5,371.833 394.5,374.5C 392.631,376.635 391.964,379.302 392.5,382.5C 392.5,386.5 392.5,390.5 392.5,394.5C 392.5,395.833 392.5,397.167 392.5,398.5C 390.615,407.263 389.615,416.263 389.5,425.5C 387.946,429.567 387.28,433.9 387.5,438.5C 387.5,443.833 387.5,449.167 387.5,454.5C 385.75,458.183 385.083,462.183 385.5,466.5C 385.5,467.833 385.5,469.167 385.5,470.5C 384.732,471.263 384.232,472.263 384,473.5C 383.501,477.821 383.334,482.154 383.5,486.5C 383.5,489.167 383.5,491.833 383.5,494.5C 381.544,500.412 380.877,506.745 381.5,513.5C 379.2,515.202 376.533,515.868 373.5,515.5C 367.812,517.383 361.978,519.05 356,520.5C 354.624,520.684 353.791,521.351 353.5,522.5C 351.5,522.5 349.5,522.5 347.5,522.5C 343.723,522.934 340.39,524.267 337.5,526.5C 333.387,527.149 329.387,528.149 325.5,529.5C 319.714,530.433 314.381,532.099 309.5,534.5C 308.167,534.5 306.833,534.5 305.5,534.5C 303.102,534.259 301.102,534.926 299.5,536.5C 294.18,537.963 288.847,539.296 283.5,540.5C 280.102,540.82 276.768,540.487 273.5,539.5C 275.98,538.585 276.647,537.085 275.5,535C 276.324,521.242 276.824,507.408 277,493.5C 278.399,492.773 279.899,492.273 281.5,492C 278.543,491.721 275.877,490.887 273.5,489.5C 276.698,490.036 279.365,489.369 281.5,487.5C 288.167,485.833 294.833,484.167 301.5,482.5C 305.761,482.102 309.761,481.102 313.5,479.5C 315.838,477.96 318.505,477.294 321.5,477.5C 323.898,477.741 325.898,477.074 327.5,475.5C 331.138,475.553 333.138,473.887 333.5,470.5C 334.458,465.342 335.125,460.009 335.5,454.5C 336.414,445.52 337.081,436.52 337.5,427.5C 338.117,427.389 338.617,427.056 339,426.5C 339.5,419.842 339.666,413.175 339.5,406.5C 318.5,406.5 297.5,406.5 276.5,406.5C 276.5,389.833 276.5,373.167 276.5,356.5 Z"/></g>
<g><path style="opacity:1" fill="#f2a28c" d="M 465.5,350.5 C 465.5,353.833 465.5,357.167 465.5,360.5C 464.833,361.167 464.167,361.833 463.5,362.5C 463.083,358.183 463.75,354.183 465.5,350.5 Z"/></g>
<g><path style="opacity:0.051" fill="#fae3d9" d="M 86.5,350.5 C 87.1667,351.167 87.8333,351.833 88.5,352.5C 88.5,354.5 88.5,356.5 88.5,358.5C 88.8333,363.833 89.1667,369.167 89.5,374.5C 88.7321,373.737 88.2321,372.737 88,371.5C 87.6752,364.476 87.1752,357.476 86.5,350.5 Z"/></g>
<g><path style="opacity:1" fill="#ef9f7b" d="M 394.5,356.5 C 395.777,357.694 396.444,359.36 396.5,361.5C 396.444,363.64 395.777,365.306 394.5,366.5C 394.5,363.167 394.5,359.833 394.5,356.5 Z"/></g>
<g><path style="opacity:1" fill="#f8d7c8" d="M 465.5,360.5 C 465.062,370.036 464.062,379.369 462.5,388.5C 462.5,386.5 462.5,384.5 462.5,382.5C 463.054,375.847 463.388,369.18 463.5,362.5C 464.167,361.833 464.833,361.167 465.5,360.5 Z"/></g>
<g><path style="opacity:1" fill="#e79480" d="M 157.5,366.5 C 159.369,368.635 160.036,371.302 159.5,374.5C 157.631,372.365 156.964,369.698 157.5,366.5 Z"/></g>
<g><path style="opacity:1" fill="#f9ccbc" d="M 394.5,374.5 C 394.5,377.167 394.5,379.833 394.5,382.5C 393.833,382.5 393.167,382.5 392.5,382.5C 391.964,379.302 392.631,376.635 394.5,374.5 Z"/></g>
<g><path style="opacity:1" fill="#f28970" d="M 88.5,358.5 C 90.4921,366.092 91.4921,374.092 91.5,382.5C 90.8333,380.5 90.1667,378.5 89.5,376.5C 89.5,375.833 89.5,375.167 89.5,374.5C 89.1667,369.167 88.8333,363.833 88.5,358.5 Z"/></g>
<g><path style="opacity:1" fill="#fccdbf" d="M 89.5,376.5 C 90.1667,378.5 90.8333,380.5 91.5,382.5C 91.5,387.167 91.5,391.833 91.5,396.5C 90.71,395.391 90.21,394.058 90,392.5C 89.5006,387.177 89.334,381.844 89.5,376.5 Z"/></g>
<g><path style="opacity:1" fill="#ebbbab" d="M 159.5,382.5 C 161.217,385.845 161.884,389.511 161.5,393.5C 160.833,392.5 160.167,391.5 159.5,390.5C 159.5,387.833 159.5,385.167 159.5,382.5 Z"/></g>
<g><path style="opacity:1" fill="#f89365" d="M 392.5,382.5 C 393.167,382.5 393.833,382.5 394.5,382.5C 394.802,386.79 394.136,390.79 392.5,394.5C 392.5,390.5 392.5,386.5 392.5,382.5 Z"/></g>
<g><path style="opacity:1" fill="#eb7d65" d="M 91.5,382.5 C 93.1554,390.271 93.8221,398.271 93.5,406.5C 92.8333,405.167 92.1667,403.833 91.5,402.5C 91.5,400.5 91.5,398.5 91.5,396.5C 91.5,391.833 91.5,387.167 91.5,382.5 Z"/></g>
<g><path style="opacity:1" fill="#f9a591" d="M 462.5,382.5 C 462.5,384.5 462.5,386.5 462.5,388.5C 462.5,389.833 462.5,391.167 462.5,392.5C 461.833,394.5 461.167,396.5 460.5,398.5C 460.527,392.949 461.194,387.616 462.5,382.5 Z"/></g>
<g><path style="opacity:1" fill="#e3886a" d="M 159.5,390.5 C 160.167,391.5 160.833,392.5 161.5,393.5C 161.5,395.167 161.5,396.833 161.5,398.5C 161.5,401.167 161.5,403.833 161.5,406.5C 160.194,401.384 159.527,396.051 159.5,390.5 Z"/></g>
<g><path style="opacity:0.071" fill="#f9e4de" d="M 462.5,392.5 C 462.397,395.219 462.731,397.885 463.5,400.5C 462.451,402.597 461.451,404.597 460.5,406.5C 460.5,403.833 460.5,401.167 460.5,398.5C 461.167,396.5 461.833,394.5 462.5,392.5 Z"/></g>
<g><path style="opacity:0.004" fill="#f0fff6" d="M 462.5,405.5 C 463.833,406.167 463.833,406.167 462.5,405.5 Z"/></g>
<g><path style="opacity:1" fill="#f3b79f" d="M 161.5,398.5 C 162.473,400.948 162.806,403.615 162.5,406.5C 200.5,406.5 238.5,406.5 276.5,406.5C 297.5,406.5 318.5,406.5 339.5,406.5C 339.666,413.175 339.5,419.842 339,426.5C 338.617,427.056 338.117,427.389 337.5,427.5C 337.214,421.741 337.548,416.075 338.5,410.5C 279.5,409.167 220.5,407.833 161.5,406.5C 161.5,403.833 161.5,401.167 161.5,398.5 Z"/></g>
<g><path style="opacity:0.051" fill="#fbdfdd" d="M 91.5,402.5 C 92.1667,403.833 92.8333,405.167 93.5,406.5C 93.5,408.833 93.5,411.167 93.5,413.5C 91.5864,410.316 90.9197,406.649 91.5,402.5 Z"/></g>
<g><path style="opacity:0.361" fill="#f09486" d="M 460.5,406.5 C 460.5,409.167 460.5,411.833 460.5,414.5C 459.833,414.5 459.167,414.5 458.5,414.5C 457.964,411.302 458.631,408.635 460.5,406.5 Z"/></g>
<g><path style="opacity:1" fill="#f16528" d="M 338.5,410.5 C 337.548,416.075 337.214,421.741 337.5,427.5C 337.081,436.52 336.414,445.52 335.5,454.5C 333.74,459.553 333.073,464.886 333.5,470.5C 333.138,473.887 331.138,475.553 327.5,475.5C 325.102,475.259 323.102,475.926 321.5,477.5C 318.505,477.294 315.838,477.96 313.5,479.5C 309.812,479.781 306.145,480.281 302.5,481C 301.944,481.383 301.611,481.883 301.5,482.5C 294.833,484.167 288.167,485.833 281.5,487.5C 280.5,487.5 279.5,487.5 278.5,487.5C 276.523,461.727 275.857,435.727 276.5,409.5C 297.242,409.179 317.909,409.512 338.5,410.5 Z"/></g>
<g><path style="opacity:0.01" fill="#fefcee" d="M 91.5,414.5 C 92.6129,415.946 92.7796,417.613 92,419.5C 91.5065,417.866 91.3398,416.199 91.5,414.5 Z"/></g>
<g><path style="opacity:1" fill="#ec7962" d="M 93.5,414.5 C 95.369,416.635 96.0356,419.302 95.5,422.5C 94.8333,422.5 94.1667,422.5 93.5,422.5C 93.5,419.833 93.5,417.167 93.5,414.5 Z"/></g>
<g><path style="opacity:1" fill="#f58f67" d="M 392.5,398.5 C 392.796,409.43 391.796,420.097 389.5,430.5C 389.5,428.833 389.5,427.167 389.5,425.5C 389.615,416.263 390.615,407.263 392.5,398.5 Z"/></g>
<g><path style="opacity:0.047" fill="#f9e5df" d="M 458.5,414.5 C 459.167,414.5 459.833,414.5 460.5,414.5C 461.376,414.369 462.043,414.702 462.5,415.5C 461.732,419.445 461.232,423.445 461,427.5C 460.667,425.833 460.333,424.167 460,422.5C 459.768,423.737 459.268,424.737 458.5,425.5C 458.5,421.833 458.5,418.167 458.5,414.5 Z"/></g>
<g><path style="opacity:0.004" fill="#fffcf1" d="M 460.5,428.5 C 461.525,428.897 461.692,429.563 461,430.5C 460.536,429.906 460.369,429.239 460.5,428.5 Z"/></g>
<g><path style="opacity:1" fill="#eebdad" d="M 216.5,438.5 C 215.566,437.432 215.232,436.099 215.5,434.5C 198.5,434.5 181.5,434.5 164.5,434.5C 181.468,432.514 198.801,431.847 216.5,432.5C 216.5,434.5 216.5,436.5 216.5,438.5 Z"/></g>
<g><path style="opacity:1" fill="#fac3a8" d="M 389.5,425.5 C 389.5,427.167 389.5,428.833 389.5,430.5C 389.665,433.85 389.498,437.183 389,440.5C 388.722,439.584 388.222,438.918 387.5,438.5C 387.28,433.9 387.946,429.567 389.5,425.5 Z"/></g>
<g><path style="opacity:0.004" fill="#f0fffe" d="M 459.5,437.5 C 460.833,438.167 460.833,438.167 459.5,437.5 Z"/></g>
<g><path style="opacity:1" fill="#ebeae9" d="M 164.5,434.5 C 181.5,434.5 198.5,434.5 215.5,434.5C 215.232,436.099 215.566,437.432 216.5,438.5C 216.5,441.167 216.5,443.833 216.5,446.5C 216.527,452.051 217.194,457.384 218.5,462.5C 219.482,465.962 219.815,469.629 219.5,473.5C 222.569,476.19 226.236,477.523 230.5,477.5C 231.5,477.5 232.5,477.5 233.5,477.5C 234.552,479.256 236.219,479.923 238.5,479.5C 249.213,482.186 259.879,484.853 270.5,487.5C 271.5,488.167 272.5,488.833 273.5,489.5C 275.877,490.887 278.543,491.721 281.5,492C 279.899,492.273 278.399,492.773 277,493.5C 276.824,507.408 276.324,521.242 275.5,535C 276.647,537.085 275.98,538.585 273.5,539.5C 276.768,540.487 280.102,540.82 283.5,540.5C 283.158,541.338 282.492,541.672 281.5,541.5C 278.833,541.5 276.167,541.5 273.5,541.5C 270.753,541.813 268.086,541.48 265.5,540.5C 246.427,534.232 227.093,528.898 207.5,524.5C 205.898,522.926 203.898,522.259 201.5,522.5C 193.134,520.293 184.801,517.96 176.5,515.5C 175.365,513.787 173.698,513.12 171.5,513.5C 172.08,509.351 171.414,505.684 169.5,502.5C 169.5,499.833 169.5,497.167 169.5,494.5C 169.666,490.154 169.499,485.821 169,481.5C 168.768,480.263 168.268,479.263 167.5,478.5C 167.5,476.5 167.5,474.5 167.5,472.5C 167.612,466.274 166.946,460.274 165.5,454.5C 164.946,447.847 164.612,441.18 164.5,434.5 Z"/></g>
<g><path style="opacity:0.129" fill="#f6c6b8" d="M 458.5,430.5 C 459.124,430.917 459.457,431.584 459.5,432.5C 457.811,448.812 456.311,465.146 455,481.5C 454.79,483.058 454.29,484.391 453.5,485.5C 453.561,466.724 455.228,448.391 458.5,430.5 Z"/></g>
<g><path style="opacity:1" fill="#e59173" d="M 216.5,446.5 C 218.446,451.396 219.113,456.729 218.5,462.5C 217.194,457.384 216.527,452.051 216.5,446.5 Z"/></g>
<g><path style="opacity:1" fill="#fab28b" d="M 387.5,454.5 C 387.802,458.79 387.136,462.79 385.5,466.5C 385.083,462.183 385.75,458.183 387.5,454.5 Z"/></g>
<g><path style="opacity:1" fill="#f9926e" d="M 335.5,454.5 C 335.125,460.009 334.458,465.342 333.5,470.5C 333.073,464.886 333.74,459.553 335.5,454.5 Z"/></g>
<g><path style="opacity:1" fill="#e68670" d="M 165.5,454.5 C 166.946,460.274 167.612,466.274 167.5,472.5C 165.943,466.739 165.276,460.739 165.5,454.5 Z"/></g>
<g><path style="opacity:1" fill="#e3a59a" d="M 219.5,473.5 C 222.297,474.241 225.13,474.907 228,475.5C 229.376,475.684 230.209,476.351 230.5,477.5C 226.236,477.523 222.569,476.19 219.5,473.5 Z"/></g>
<g><path style="opacity:1" fill="#fab49a" d="M 327.5,475.5 C 325.898,477.074 323.898,477.741 321.5,477.5C 323.102,475.926 325.102,475.259 327.5,475.5 Z"/></g>
<g><path style="opacity:1" fill="#eaa78d" d="M 233.5,477.5 C 235.553,477.402 237.22,478.069 238.5,479.5C 236.219,479.923 234.552,479.256 233.5,477.5 Z"/></g>
<g><path style="opacity:1" fill="#f69775" d="M 313.5,479.5 C 309.761,481.102 305.761,482.102 301.5,482.5C 301.611,481.883 301.944,481.383 302.5,481C 306.145,480.281 309.812,479.781 313.5,479.5 Z"/></g>
<g><path style="opacity:1" fill="#f8cdb4" d="M 385.5,470.5 C 385.473,476.051 384.806,481.384 383.5,486.5C 383.334,482.154 383.501,477.821 384,473.5C 384.232,472.263 384.732,471.263 385.5,470.5 Z"/></g>
<g><path style="opacity:0.118" fill="#f7c9ba" d="M 93.5,422.5 C 94.1667,422.5 94.8333,422.5 95.5,422.5C 97.5028,454.539 100.169,486.539 103.5,518.5C 103.5,522.833 103.5,527.167 103.5,531.5C 102.042,523.346 100.876,515.013 100,506.5C 99.2943,495.502 98.6276,484.502 98,473.5C 97.2726,466.79 96.1059,460.29 94.5,454C 95.0968,452.938 95.4302,451.772 95.5,450.5C 94.4543,441.193 93.7876,431.86 93.5,422.5 Z"/></g>
<g><path style="opacity:1" fill="#f28e77" d="M 270.5,487.5 C 273.167,487.5 275.833,487.5 278.5,487.5C 279.5,487.5 280.5,487.5 281.5,487.5C 279.365,489.369 276.698,490.036 273.5,489.5C 272.5,488.833 271.5,488.167 270.5,487.5 Z"/></g>
<g><path style="opacity:1" fill="#f2ae98" d="M 453.5,486.5 C 453.986,488.952 453.986,491.618 453.5,494.5C 452.833,494.5 452.167,494.5 451.5,494.5C 450.964,491.302 451.631,488.635 453.5,486.5 Z"/></g>
<g><path style="opacity:1" fill="#e67f62" d="M 167.5,478.5 C 168.268,479.263 168.768,480.263 169,481.5C 169.499,485.821 169.666,490.154 169.5,494.5C 168.194,489.384 167.527,484.051 167.5,478.5 Z"/></g>
<g><path style="opacity:0.004" fill="#f0fffe" d="M 455.5,494.5 C 454.833,493.167 454.833,493.167 455.5,494.5 Z"/></g>
<g><path style="opacity:0.145" fill="#f5ded6" d="M 451.5,494.5 C 452.167,494.5 452.833,494.5 453.5,494.5C 453.833,494.5 454.167,494.5 454.5,494.5C 454.232,497.618 453.232,500.284 451.5,502.5C 451.5,499.833 451.5,497.167 451.5,494.5 Z"/></g>
<g><path style="opacity:1" fill="#fcccb7" d="M 383.5,494.5 C 383.303,501.026 382.636,507.359 381.5,513.5C 380.877,506.745 381.544,500.412 383.5,494.5 Z"/></g>
<g><path style="opacity:0.02" fill="#f9ffec" d="M 455.5,494.5 C 456.651,499.65 456.817,504.984 456,510.5C 455.501,505.177 455.334,499.844 455.5,494.5 Z"/></g>
<g><path style="opacity:1" fill="#e3917e" d="M 169.5,502.5 C 171.414,505.684 172.08,509.351 171.5,513.5C 170.624,513.631 169.957,513.298 169.5,512.5C 169.712,509.348 169.712,506.015 169.5,502.5 Z"/></g>
<g><path style="opacity:1" fill="#ef7e64" d="M 451.5,502.5 C 451.5,504.5 451.5,506.5 451.5,508.5C 451.204,510.403 450.537,512.07 449.5,513.5C 449.335,510.482 449.502,507.482 450,504.5C 450.278,503.584 450.778,502.918 451.5,502.5 Z"/></g>
<g><path style="opacity:1" fill="#efad99" d="M 171.5,513.5 C 173.698,513.12 175.365,513.787 176.5,515.5C 174.219,515.923 172.552,515.256 171.5,513.5 Z"/></g>
<g><path style="opacity:1" fill="#e88973" d="M 201.5,522.5 C 203.898,522.259 205.898,522.926 207.5,524.5C 205.102,524.741 203.102,524.074 201.5,522.5 Z"/></g>
<g><path style="opacity:1" fill="#f48958" d="M 373.5,515.5 C 372.665,516.943 371.332,517.943 369.5,518.5C 364.753,519.182 360.753,521.182 357.5,524.5C 356.304,524.154 356.304,523.654 357.5,523C 356.207,522.51 354.873,522.343 353.5,522.5C 353.791,521.351 354.624,520.684 356,520.5C 361.978,519.05 367.812,517.383 373.5,515.5 Z"/></g>
<g><path style="opacity:1" fill="#fabba7" d="M 347.5,522.5 C 344.738,524.766 341.405,526.099 337.5,526.5C 340.39,524.267 343.723,522.934 347.5,522.5 Z"/></g>
<g><path style="opacity:1" fill="#ea7a5f" d="M 103.5,518.5 C 104.755,525.3 105.422,532.3 105.5,539.5C 104.833,537.833 104.167,536.167 103.5,534.5C 103.5,533.5 103.5,532.5 103.5,531.5C 103.5,527.167 103.5,522.833 103.5,518.5 Z"/></g>
<g><path style="opacity:0.052" fill="#f7ded5" d="M 451.5,508.5 C 452.124,508.917 452.457,509.584 452.5,510.5C 451.875,518.686 450.875,526.686 449.5,534.5C 449.5,531.833 449.5,529.167 449.5,526.5C 449.5,522.167 449.5,517.833 449.5,513.5C 450.537,512.07 451.204,510.403 451.5,508.5 Z"/></g>
<g><path style="opacity:1" fill="#f2936b" d="M 325.5,529.5 C 320.615,532.258 315.281,533.925 309.5,534.5C 314.381,532.099 319.714,530.433 325.5,529.5 Z"/></g>
<g><path style="opacity:1" fill="#fab896" d="M 305.5,534.5 C 303.898,536.074 301.898,536.741 299.5,536.5C 301.102,534.926 303.102,534.259 305.5,534.5 Z"/></g>
<g><path style="opacity:1" fill="#f0a18c" d="M 449.5,526.5 C 449.5,529.167 449.5,531.833 449.5,534.5C 449.721,537.279 449.388,539.946 448.5,542.5C 448.167,542.5 447.833,542.5 447.5,542.5C 447.527,536.949 448.194,531.616 449.5,526.5 Z"/></g>
<g><path style="opacity:1" fill="#f1a98f" d="M 273.5,541.5 C 276.167,541.5 278.833,541.5 281.5,541.5C 281.179,543.048 280.179,543.715 278.5,543.5C 276.219,543.923 274.552,543.256 273.5,541.5 Z"/></g>
<g><path style="opacity:1" fill="#f5d5cc" d="M 103.5,534.5 C 104.167,536.167 104.833,537.833 105.5,539.5C 105.5,542.5 105.5,545.5 105.5,548.5C 103.957,547.264 102.957,545.598 102.5,543.5C 103.407,540.579 103.74,537.579 103.5,534.5 Z"/></g>
<g><path style="opacity:0.024" fill="#f9ddda" d="M 447.5,542.5 C 447.833,542.5 448.167,542.5 448.5,542.5C 449.435,549.961 448.768,557.295 446.5,564.5C 446.5,562.5 446.5,560.5 446.5,558.5C 446.833,553.167 447.167,547.833 447.5,542.5 Z"/></g>
<g><path style="opacity:1" fill="#faaa9d" d="M 446.5,558.5 C 446.5,560.5 446.5,562.5 446.5,564.5C 446.5,567.167 446.5,569.833 446.5,572.5C 446.5,573.833 445.833,574.5 444.5,574.5C 444.527,568.949 445.194,563.616 446.5,558.5 Z"/></g>
<g><path style="opacity:1" fill="#f4cfbe" d="M 105.5,558.5 C 107.333,567.495 108.667,576.828 109.5,586.5C 108.833,586.5 108.167,586.5 107.5,586.5C 107.082,585.778 106.416,585.278 105.5,585C 106.167,584.667 106.833,584.333 107.5,584C 106.416,575.584 105.749,567.084 105.5,558.5 Z"/></g>
<g><path style="opacity:0.004" fill="#eef6f6" d="M 446.5,582.5 C 447.598,583.601 447.765,584.934 447,586.5C 446.51,585.207 446.343,583.873 446.5,582.5 Z"/></g>
<g><path style="opacity:0.012" fill="#effef4" d="M 107.5,586.5 C 107.103,587.525 106.437,587.692 105.5,587C 106.094,586.536 106.761,586.369 107.5,586.5 Z"/></g>
<g><path style="opacity:0.239" fill="#fccdc7" d="M 111.5,586.5 C 112.833,586.5 114.167,586.5 115.5,586.5C 115.833,587.167 116.167,587.833 116.5,588.5C 114.302,588.88 112.635,588.213 111.5,586.5 Z"/></g>
<g><path style="opacity:1" fill="#ef8467" d="M 115.5,586.5 C 117.698,586.12 119.365,586.787 120.5,588.5C 119.167,588.5 117.833,588.5 116.5,588.5C 116.167,587.833 115.833,587.167 115.5,586.5 Z"/></g>
<g><path style="opacity:0.016" fill="#edfffe" d="M 105.5,588.5 C 106.833,589.167 106.833,589.167 105.5,588.5 Z"/></g>
<g><path style="opacity:1" fill="#f8daca" d="M 116.5,588.5 C 117.833,588.5 119.167,588.5 120.5,588.5C 121.995,588.989 123.329,589.655 124.5,590.5C 121.505,590.706 118.838,590.04 116.5,588.5 Z"/></g>
<g><path style="opacity:0.004" fill="#f2fdf4" d="M 109.5,588.5 C 111.337,588.639 111.67,589.306 110.5,590.5C 109.702,590.043 109.369,589.376 109.5,588.5 Z"/></g>
<g><path style="opacity:0.122" fill="#f9d5c9" d="M 446.5,572.5 C 447.124,572.917 447.457,573.584 447.5,574.5C 446.177,578.401 445.177,582.401 444.5,586.5C 443.295,588.138 441.962,588.471 440.5,587.5C 436.34,589.233 432.007,590.4 427.5,591C 426.371,593.168 424.871,593.668 423,592.5C 419.725,594.271 416.225,595.271 412.5,595.5C 412.833,594.833 413.167,594.167 413.5,593.5C 422.734,590.475 432.068,587.975 441.5,586C 444.154,582.673 445.154,578.839 444.5,574.5C 445.833,574.5 446.5,573.833 446.5,572.5 Z"/></g>
<g><path style="opacity:0.004" fill="#f0faf8" d="M 442.5,589.5 C 443.833,590.167 443.833,590.167 442.5,589.5 Z"/></g>
<g><path style="opacity:0.125" fill="#fad7cb" d="M 124.5,590.5 C 128.345,590.288 131.679,591.288 134.5,593.5C 132.833,593.5 131.167,593.5 129.5,593.5C 127.58,592.935 125.913,591.935 124.5,590.5 Z"/></g>
<g><path style="opacity:0.01" fill="#eefff9" d="M 129.5,593.5 C 128.749,594.573 127.749,594.74 126.5,594C 127.448,593.517 128.448,593.351 129.5,593.5 Z"/></g>
<g><path style="opacity:0.055" fill="#f8dad0" d="M 134.5,593.5 C 136.857,593.337 139.19,593.503 141.5,594C 142.056,594.383 142.389,594.883 142.5,595.5C 140.459,595.146 138.626,595.146 137,595.5C 136.005,594.934 135.172,594.267 134.5,593.5 Z"/></g>
<g><path style="opacity:1" fill="#e38a6e" d="M 413.5,593.5 C 413.167,594.167 412.833,594.833 412.5,595.5C 411.5,595.5 410.5,595.5 409.5,595.5C 406.833,595.833 404.167,596.167 401.5,596.5C 405.2,594.755 409.2,593.755 413.5,593.5 Z"/></g>
<g><path style="opacity:0.027" fill="#ebfff8" d="M 129.5,597.5 C 130.251,596.427 131.251,596.26 132.5,597C 131.552,597.483 130.552,597.649 129.5,597.5 Z"/></g>
<g><path style="opacity:0.016" fill="#fff5ec" d="M 137.5,597.5 C 137.897,596.475 138.563,596.308 139.5,597C 138.906,597.464 138.239,597.631 137.5,597.5 Z"/></g>
<g><path style="opacity:0.173" fill="#facfbf" d="M 143.5,595.5 C 145.848,595.67 148.182,596.003 150.5,596.5C 152.03,596.64 153.03,597.307 153.5,598.5C 149.786,598.41 146.452,597.41 143.5,595.5 Z"/></g>
<g><path style="opacity:0.008" fill="#f7e7dd" d="M 409.5,595.5 C 408.848,596.725 407.681,597.392 406,597.5C 403.502,597.917 401.002,598.251 398.5,598.5C 399.5,597.833 400.5,597.167 401.5,596.5C 404.167,596.167 406.833,595.833 409.5,595.5 Z"/></g>
<g><path style="opacity:0.025" fill="#fff2ec" d="M 411.5,597.5 C 412.601,596.402 413.934,596.235 415.5,597C 414.207,597.49 412.873,597.657 411.5,597.5 Z"/></g>
<g><path style="opacity:0.004" fill="#f0fcf5" d="M 417.5,597.5 C 417.897,596.475 418.563,596.308 419.5,597C 418.906,597.464 418.239,597.631 417.5,597.5 Z"/></g>
<g><path style="opacity:0.008" fill="#effff0" d="M 417.5,597.5 C 416.833,598.167 416.833,598.167 417.5,597.5 Z"/></g>
<g><path style="opacity:0.2" fill="#f6c7bc" d="M 156.5,598.5 C 158.781,598.077 160.448,598.744 161.5,600.5C 161.44,601.043 161.107,601.376 160.5,601.5C 158.885,600.846 157.218,600.346 155.5,600C 156.056,599.617 156.389,599.117 156.5,598.5 Z"/></g>
<g><path style="opacity:1" fill="#f6c5b5" d="M 396.5,598.5 C 396.316,601.173 395.149,601.84 393,600.5C 385.5,602.752 378,605.085 370.5,607.5C 369.808,608.025 369.308,608.692 369,609.5C 368.29,608.027 367.124,607.36 365.5,607.5C 368.384,605.914 371.551,604.581 375,603.5C 382.186,601.711 389.353,600.045 396.5,598.5 Z"/></g>
<g><path style="opacity:0.278" fill="#f8c2b7" d="M 162.5,600.5 C 165.152,600.41 167.485,601.076 169.5,602.5C 166.612,603.01 164.279,602.344 162.5,600.5 Z"/></g>
<g><path style="opacity:0.122" fill="#fbd8d1" d="M 169.5,602.5 C 172.486,602.903 175.152,603.903 177.5,605.5C 174.364,605.397 171.698,604.397 169.5,602.5 Z"/></g>
<g><path style="opacity:0.004" fill="#fdf1f7" d="M 385.5,605.5 C 384.761,605.631 384.094,605.464 383.5,605C 384.437,604.308 385.103,604.475 385.5,605.5 Z"/></g>
<g><path style="opacity:0.012" fill="#fdfaee" d="M 168.5,605.5 C 169.833,606.167 169.833,606.167 168.5,605.5 Z"/></g>
<g><path style="opacity:0.004" fill="#f9f9f1" d="M 170.5,606.5 C 170.897,605.475 171.563,605.308 172.5,606C 171.906,606.464 171.239,606.631 170.5,606.5 Z"/></g>
<g><path style="opacity:0.008" fill="#effffe" d="M 385.5,605.5 C 386.833,606.167 386.833,606.167 385.5,605.5 Z"/></g>
<g><path style="opacity:1" fill="#f9d0c2" d="M 180.5,605.5 C 188.143,607.286 195.81,609.119 203.5,611C 206.019,611.586 208.019,612.753 209.5,614.5C 201.861,612.43 193.861,610.596 185.5,609C 183.119,608.777 181.453,607.61 180.5,605.5 Z"/></g>
<g><path style="opacity:0.004" fill="#fdfff0" d="M 368.5,610.5 C 369.833,611.167 369.833,611.167 368.5,610.5 Z"/></g>
<g><path style="opacity:0.192" fill="#f9ccc1" d="M 365.5,607.5 C 365.082,608.222 364.416,608.722 363.5,609C 364.833,609.333 366.167,609.667 367.5,610C 365.287,610.626 363.12,610.459 361,609.5C 358.031,610.393 355.364,611.726 353,613.5C 352.275,612.941 351.442,612.608 350.5,612.5C 345.54,614.043 340.54,615.377 335.5,616.5C 336.167,615.833 336.833,615.167 337.5,614.5C 346.503,611.426 355.836,609.093 365.5,607.5 Z"/></g>
<g><path style="opacity:0.008" fill="#fbfeef" d="M 360.5,611.5 C 361.833,612.167 361.833,612.167 360.5,611.5 Z"/></g>
<g><path style="opacity:0.004" fill="#f0fbf9" d="M 185.5,612.5 C 186.833,613.167 186.833,613.167 185.5,612.5 Z"/></g>
<g><path style="opacity:0.012" fill="#effffe" d="M 191.5,614.5 C 191.897,613.475 192.563,613.308 193.5,614C 192.906,614.464 192.239,614.631 191.5,614.5 Z"/></g>
<g><path style="opacity:0.008" fill="#f8fbef" d="M 368.5,613.5 C 369.833,614.167 369.833,614.167 368.5,613.5 Z"/></g>
<g><path style="opacity:1" fill="#f49e8a" d="M 337.5,614.5 C 336.833,615.167 336.167,615.833 335.5,616.5C 334.167,616.5 332.833,616.5 331.5,616.5C 333.102,614.926 335.102,614.259 337.5,614.5 Z"/></g>
<g><path style="opacity:0.365" fill="#f5c8bb" d="M 212.5,614.5 C 216.258,614.395 219.592,615.395 222.5,617.5C 220.176,617.005 218.009,617.005 216,617.5C 214.05,617.293 212.884,616.293 212.5,614.5 Z"/></g>
<g><path style="opacity:0.114" fill="#f9dad1" d="M 331.5,616.5 C 332.833,616.5 334.167,616.5 335.5,616.5C 334.003,617.306 332.336,617.972 330.5,618.5C 329.893,618.376 329.56,618.043 329.5,617.5C 329.842,616.662 330.508,616.328 331.5,616.5 Z"/></g>
<g><path style="opacity:0.122" fill="#f7e1d5" d="M 222.5,617.5 C 225.082,617.025 227.082,617.692 228.5,619.5C 225.918,619.975 223.918,619.308 222.5,617.5 Z"/></g>
<g><path style="opacity:0.455" fill="#e98973" d="M 324.5,617.5 C 324.167,618.167 323.833,618.833 323.5,619.5C 323.167,619.5 322.833,619.5 322.5,619.5C 321.167,619.5 319.833,619.5 318.5,619.5C 320.214,618.262 322.214,617.595 324.5,617.5 Z"/></g>
<g><path style="opacity:0.024" fill="#f8e5d3" d="M 324.5,617.5 C 325.833,617.5 327.167,617.5 328.5,617.5C 327.448,619.256 325.781,619.923 323.5,619.5C 323.833,618.833 324.167,618.167 324.5,617.5 Z"/></g>
<g><path style="opacity:0.012" fill="#f7feef" d="M 217.5,620.5 C 217.897,619.475 218.563,619.308 219.5,620C 218.906,620.464 218.239,620.631 217.5,620.5 Z"/></g>
<g><path style="opacity:0.106" fill="#f5e1d5" d="M 318.5,619.5 C 319.833,619.5 321.167,619.5 322.5,619.5C 320.029,621.443 317.029,622.443 313.5,622.5C 314.965,621.263 316.632,620.263 318.5,619.5 Z"/></g>
<g><path style="opacity:0.012" fill="#eefff8" d="M 216.5,621.5 C 217.833,622.167 217.833,622.167 216.5,621.5 Z"/></g>
<g><path style="opacity:0.029" fill="#ebfffc" d="M 326.5,622.5 C 327.251,621.427 328.251,621.26 329.5,622C 328.552,622.483 327.552,622.649 326.5,622.5 Z"/></g>
<g><path style="opacity:0.004" fill="#f0fffe" d="M 242.5,624.5 C 241.833,625.167 241.833,625.167 242.5,624.5 Z"/></g>
<g><path style="opacity:0.34" fill="#fbddd8" d="M 313.5,622.5 C 310.109,623.694 306.775,625.194 303.5,627C 305.595,627.556 305.762,628.056 304,628.5C 301.953,627.391 299.787,626.724 297.5,626.5C 302.198,623.535 307.531,622.202 313.5,622.5 Z"/></g>
<g><path style="opacity:0.007" fill="#f0fffe" d="M 255.5,628.5 C 254.749,629.573 253.749,629.74 252.5,629C 253.448,628.517 254.448,628.351 255.5,628.5 Z"/></g>
<g><path style="opacity:0.063" fill="#f8d0c3" d="M 297.5,626.5 C 292.307,628.737 286.807,630.737 281,632.5C 280.329,631.748 279.496,631.414 278.5,631.5C 284.3,628.245 290.633,626.579 297.5,626.5 Z"/></g>
<g><path style="opacity:1" fill="#f5bcaf" d="M 229.5,619.5 C 244.841,621.961 259.508,625.961 273.5,631.5C 273.265,632.097 272.765,632.43 272,632.5C 266.713,630.237 261.213,628.903 255.5,628.5C 254.176,626.334 252.343,626.001 250,627.5C 247.046,627.406 246.879,626.906 249.5,626C 247.26,625.023 244.927,624.523 242.5,624.5C 238.192,622.709 233.859,621.042 229.5,619.5 Z"/></g>
<g><path style="opacity:0.024" fill="#fbf7ee" d="M 274.5,631.5 C 275.833,631.5 277.167,631.5 278.5,631.5C 278.389,632.117 278.056,632.617 277.5,633C 278.938,633.219 280.271,633.719 281.5,634.5C 281.333,634.833 281.167,635.167 281,635.5C 278.26,634.718 275.426,634.218 272.5,634C 273.756,633.583 274.423,632.75 274.5,631.5 Z"/></g>
<g><path style="opacity:0.008" fill="#fdeff8" d="M 273.5,636.5 C 272.761,636.631 272.094,636.464 271.5,636C 272.437,635.308 273.103,635.475 273.5,636.5 Z"/></g>
<g><path style="opacity:0.012" fill="#f6feee" d="M 273.5,637.5 C 273.5,637.167 273.5,636.833 273.5,636.5C 276.167,636.833 276.167,637.167 273.5,637.5 Z"/></g>
<g><path style="opacity:0.008" fill="#effff5" d="M 273.5,637.5 C 272.833,638.167 272.833,638.167 273.5,637.5 Z"/></g>
</svg>
