<?xml version="1.0" encoding="UTF-8"?>
<!DOCTYPE svg PUBLIC "-//W3C//DTD SVG 1.1//EN" "http://www.w3.org/Graphics/SVG/1.1/DTD/svg11.dtd">
<svg xmlns="http://www.w3.org/2000/svg" version="1.1" width="484px" height="619px" style="shape-rendering:geometricPrecision; text-rendering:geometricPrecision; image-rendering:optimizeQuality; fill-rule:evenodd; clip-rule:evenodd" xmlns:xlink="http://www.w3.org/1999/xlink">
<g><path style="opacity:0.008" fill="#eff0ef" d="M 235.5,38.5 C 236.833,39.1667 236.833,39.1667 235.5,38.5 Z"/></g>
<g><path style="opacity:1" fill="#030303" d="M 211.5,42.5 C 218.833,42.5 226.167,42.5 233.5,42.5C 233.5,66.1667 233.5,89.8333 233.5,113.5C 214.424,113.82 195.424,113.487 176.5,112.5C 176.5,104.167 176.5,95.8333 176.5,87.5C 184.5,87.5 192.5,87.5 200.5,87.5C 200.5,88.8333 200.5,90.1667 200.5,91.5C 203.5,91.5 206.5,91.5 209.5,91.5C 211.485,75.5342 212.152,59.2009 211.5,42.5 Z"/></g>
<g><path style="opacity:1" fill="#030303" d="M 311.5,42.5 C 311.5,48.5 311.5,54.5 311.5,60.5C 301.833,60.5 292.167,60.5 282.5,60.5C 282.263,61.791 282.596,62.791 283.5,63.5C 283.833,63.5 284.167,63.5 284.5,63.5C 285.167,63.5 285.5,63.8333 285.5,64.5C 285.833,66.8333 287.167,68.1667 289.5,68.5C 289.554,70.632 290.554,71.9653 292.5,72.5C 292.369,73.2389 292.536,73.9056 293,74.5C 294.4,75.748 295.9,76.748 297.5,77.5C 297.5,78.8333 298.167,79.5 299.5,79.5C 299.285,81.1788 299.952,82.1788 301.5,82.5C 302.882,84.5486 304.548,86.2153 306.5,87.5C 306.5,88.8333 307.167,89.5 308.5,89.5C 308.5,91.5 309.5,92.5 311.5,92.5C 311.5,99.1667 311.5,105.833 311.5,112.5C 290.167,112.5 268.833,112.5 247.5,112.5C 247.5,106.833 247.5,101.167 247.5,95.5C 257.348,95.8271 267.014,95.4938 276.5,94.5C 277.097,94.2648 277.43,93.7648 277.5,93C 276.59,91.251 275.257,90.0843 273.5,89.5C 272.167,86.1667 269.833,83.8333 266.5,82.5C 265.167,80.5 263.5,78.8333 261.5,77.5C 260.918,76.0689 260.085,74.7356 259,73.5C 258.329,72.7476 257.496,72.4142 256.5,72.5C 256.5,71.1667 255.833,70.5 254.5,70.5C 254.19,69.2617 253.69,69.2617 253,70.5C 252.536,69.9056 252.369,69.2389 252.5,68.5C 252.269,65.9368 250.935,64.2702 248.5,63.5C 247.833,63.5 247.5,63.1667 247.5,62.5C 247.5,61.8333 247.5,61.1667 247.5,60.5C 247.5,54.5 247.5,48.5 247.5,42.5C 268.833,42.5 290.167,42.5 311.5,42.5 Z"/></g>
<g><path style="opacity:0.446" fill="#808080" d="M 235.5,41.5 C 227.316,41.1743 219.316,41.5076 211.5,42.5C 212.152,59.2009 211.485,75.5342 209.5,91.5C 209.5,91.1667 209.5,90.8333 209.5,90.5C 209.5,73.8333 209.5,57.1667 209.5,40.5C 218.349,40.1736 227.016,40.507 235.5,41.5 Z"/></g>
<g><path style="opacity:1" fill="#474747" d="M 211.5,42.5 C 219.316,41.5076 227.316,41.1743 235.5,41.5C 235.5,65.5 235.5,89.5 235.5,113.5C 234.833,113.5 234.167,113.5 233.5,113.5C 233.5,89.8333 233.5,66.1667 233.5,42.5C 226.167,42.5 218.833,42.5 211.5,42.5 Z"/></g>
<g><path style="opacity:1" fill="#a2a2a2" d="M 311.5,61.5 C 301.773,60.8611 292.44,61.5278 283.5,63.5C 282.596,62.791 282.263,61.791 282.5,60.5C 292.167,60.5 301.833,60.5 311.5,60.5C 311.5,54.5 311.5,48.5 311.5,42.5C 290.006,41.5027 268.34,41.1693 246.5,41.5C 246.177,48.0221 246.51,54.3554 247.5,60.5C 247.5,61.1667 247.5,61.8333 247.5,62.5C 245.879,62.2131 244.879,61.2131 244.5,59.5C 245.449,53.1821 245.782,47.0155 245.5,41C 268.164,40.5 290.831,40.3334 313.5,40.5C 314.128,47.9131 313.461,54.9131 311.5,61.5 Z"/></g>
<g><path style="opacity:1" fill="#2c2c2c" d="M 311.5,42.5 C 290.167,42.5 268.833,42.5 247.5,42.5C 247.5,48.5 247.5,54.5 247.5,60.5C 246.51,54.3554 246.177,48.0221 246.5,41.5C 268.34,41.1693 290.006,41.5027 311.5,42.5 Z"/></g>
<g><path style="opacity:0.039" fill="#e7e7e7" d="M 311.5,61.5 C 302.5,62.1667 293.5,62.8333 284.5,63.5C 284.167,63.5 283.833,63.5 283.5,63.5C 292.44,61.5278 301.773,60.8611 311.5,61.5 Z"/></g>
<g><path style="opacity:1" fill="#9f9f9f" d="M 248.5,63.5 C 250.935,64.2702 252.269,65.9368 252.5,68.5C 250.413,67.4154 249.08,65.7488 248.5,63.5 Z"/></g>
<g><path style="opacity:0.004" fill="#f0f1f0" d="M 247.5,66.5 C 248.833,67.1667 248.833,67.1667 247.5,66.5 Z"/></g>
<g><path style="opacity:0.184" fill="#b6b6b6" d="M 285.5,64.5 C 287.5,65.1667 288.833,66.5 289.5,68.5C 287.167,68.1667 285.833,66.8333 285.5,64.5 Z"/></g>
<g><path style="opacity:1" fill="#afafaf" d="M 289.5,68.5 C 291.446,69.0347 292.446,70.368 292.5,72.5C 290.554,71.9653 289.554,70.632 289.5,68.5 Z"/></g>
<g><path style="opacity:0.255" fill="#c9c9c9" d="M 254.5,70.5 C 255.833,70.5 256.5,71.1667 256.5,72.5C 255.167,72.5 254.5,71.8333 254.5,70.5 Z"/></g>
<g><path style="opacity:1" fill="#b8b8b8" d="M 256.5,72.5 C 257.496,72.4142 258.329,72.7476 259,73.5C 260.085,74.7356 260.918,76.0689 261.5,77.5C 259.405,76.588 257.405,75.4213 255.5,74C 256.056,73.6174 256.389,73.1174 256.5,72.5 Z"/></g>
<g><path style="opacity:0.055" fill="#c0c0c0" d="M 292.5,72.5 C 295.5,72.8333 297.167,74.5 297.5,77.5C 295.9,76.748 294.4,75.748 293,74.5C 292.536,73.9056 292.369,73.2389 292.5,72.5 Z"/></g>
<g><path style="opacity:0.004" fill="#f0f1f0" d="M 299.5,75.5 C 300.833,76.1667 300.833,76.1667 299.5,75.5 Z"/></g>
<g><path style="opacity:0.004" fill="#f0f1f0" d="M 256.5,77.5 C 255.833,76.1667 255.833,76.1667 256.5,77.5 Z"/></g>
<g><path style="opacity:0.024" fill="#ebeceb" d="M 256.5,77.5 C 257.833,78.1667 257.833,78.1667 256.5,77.5 Z"/></g>
<g><path style="opacity:1" fill="#a0a0a0" d="M 261.5,77.5 C 263.5,78.8333 265.167,80.5 266.5,82.5C 263.833,81.8333 262.167,80.1667 261.5,77.5 Z"/></g>
<g><path style="opacity:0.231" fill="#bdbdbd" d="M 297.5,77.5 C 298.833,77.5 299.5,78.1667 299.5,79.5C 299.5,78.1667 298.833,77.5 297.5,77.5 Z"/></g>
<g><path style="opacity:0.49" fill="#8b8b8b" d="M 299.5,79.5 C 300.906,79.9731 301.573,80.9731 301.5,82.5C 299.952,82.1788 299.285,81.1788 299.5,79.5 Z"/></g>
<g><path style="opacity:0.314" fill="#a8a8a8" d="M 301.5,82.5 C 303.595,83.412 305.595,84.5787 307.5,86C 306.944,86.3826 306.611,86.8826 306.5,87.5C 304.548,86.2153 302.882,84.5486 301.5,82.5 Z"/></g>
<g><path style="opacity:0.008" fill="#eff0ef" d="M 263.5,83.5 C 264.833,84.1667 264.833,84.1667 263.5,83.5 Z"/></g>
<g><path style="opacity:1" fill="#a1a1a1" d="M 266.5,82.5 C 269.833,83.8333 272.167,86.1667 273.5,89.5C 270.167,88.1667 267.833,85.8333 266.5,82.5 Z"/></g>
<g><path style="opacity:0.263" fill="#a2a2a2" d="M 209.5,90.5 C 209.5,90.8333 209.5,91.1667 209.5,91.5C 206.5,91.5 203.5,91.5 200.5,91.5C 200.5,90.1667 200.5,88.8333 200.5,87.5C 192.5,87.5 184.5,87.5 176.5,87.5C 176.389,86.8826 176.056,86.3826 175.5,86C 184.167,85.3333 192.833,85.3333 201.5,86C 202.38,87.3561 202.714,88.8561 202.5,90.5C 204.833,90.5 207.167,90.5 209.5,90.5 Z"/></g>
<g><path style="opacity:0.008" fill="#eff0ef" d="M 206.5,86.5 C 207.833,87.1667 207.833,87.1667 206.5,86.5 Z"/></g>
<g><path style="opacity:0.004" fill="#f0f1f0" d="M 206.5,88.5 C 207.833,89.1667 207.833,89.1667 206.5,88.5 Z"/></g>
<g><path style="opacity:0.149" fill="#b8b8b8" d="M 306.5,87.5 C 307.833,87.5 308.5,88.1667 308.5,89.5C 308.5,88.1667 307.833,87.5 306.5,87.5 Z"/></g>
<g><path style="opacity:1" fill="#bdbdbd" d="M 308.5,89.5 C 310.5,89.5 311.5,90.5 311.5,92.5C 311.5,90.5 310.5,89.5 308.5,89.5 Z"/></g>
<g><path style="opacity:0.129" fill="#d3d3d3" d="M 272.5,92.5 C 263.833,93.1667 255.167,93.8333 246.5,94.5C 246.167,94.5 245.833,94.5 245.5,94.5C 244.262,94.19 244.262,93.69 245.5,93C 254.494,92.5002 263.494,92.3336 272.5,92.5 Z"/></g>
<g><path style="opacity:1" fill="#a0a0a0" d="M 273.5,89.5 C 275.257,90.0843 276.59,91.251 277.5,93C 277.43,93.7648 277.097,94.2648 276.5,94.5C 266.5,94.5 256.5,94.5 246.5,94.5C 255.167,93.8333 263.833,93.1667 272.5,92.5C 273.239,92.631 273.906,92.4643 274.5,92C 273.748,91.3292 273.414,90.4959 273.5,89.5 Z"/></g>
<g><path style="opacity:0.625" fill="#606060" d="M 245.5,94.5 C 245.833,94.5 246.167,94.5 246.5,94.5C 246.5,100.5 246.5,106.5 246.5,112.5C 246.167,112.5 245.833,112.5 245.5,112.5C 245.39,106.289 245.39,100.289 245.5,94.5 Z"/></g>
<g><path style="opacity:1" fill="#1e1e1e" d="M 246.5,94.5 C 256.5,94.5 266.5,94.5 276.5,94.5C 267.014,95.4938 257.348,95.8271 247.5,95.5C 247.5,101.167 247.5,106.833 247.5,112.5C 268.833,112.5 290.167,112.5 311.5,112.5C 289.833,113.833 268.167,113.833 246.5,112.5C 246.5,106.5 246.5,100.5 246.5,94.5 Z"/></g>
<g><path style="opacity:0.224" fill="#bdbdbd" d="M 176.5,112.5 C 195.424,113.487 214.424,113.82 233.5,113.5C 234.167,113.5 234.833,113.5 235.5,113.5C 235.631,114.239 235.464,114.906 235,115.5C 215.39,114.205 196.057,114.205 177,115.5C 176.626,114.584 176.126,113.75 175.5,113C 175.728,112.601 176.062,112.435 176.5,112.5 Z"/></g>
<g><path style="opacity:0.224" fill="#bebebe" d="M 311.5,92.5 C 312.117,92.6107 312.617,92.944 313,93.5C 313.5,100.492 313.666,107.492 313.5,114.5C 290.831,114.667 268.164,114.5 245.5,114C 244.262,113.31 244.262,112.81 245.5,112.5C 245.833,112.5 246.167,112.5 246.5,112.5C 268.167,113.833 289.833,113.833 311.5,112.5C 311.5,105.833 311.5,99.1667 311.5,92.5 Z"/></g>
<g><path style="opacity:0.004" fill="#fefcf0" d="M 39.5,149.5 C 175.999,148.334 312.666,148.167 449.5,149C 450.274,152.772 450.94,156.605 451.5,160.5C 451.132,162.175 450.132,163.175 448.5,163.5C 448.701,160.492 449.034,157.492 449.5,154.5C 449.415,152.667 448.748,151.334 447.5,150.5C 311.668,149.5 175.668,149.167 39.5,149.5 Z"/></g>
<g><path style="opacity:0.998" fill="#f4eac7" d="M 39.5,149.5 C 175.668,149.167 311.668,149.5 447.5,150.5C 312.001,151.5 176.334,151.833 40.5,151.5C 39.5318,153.607 39.1984,155.941 39.5,158.5C 37.2907,155.405 37.2907,152.405 39.5,149.5 Z"/></g>
<g><path style="opacity:0.004" fill="#f8f6f0" d="M 452.5,150.5 C 453.833,151.167 453.833,151.167 452.5,150.5 Z"/></g>
<g><path style="opacity:1" fill="#dab92d" d="M 447.5,150.5 C 448.748,151.334 449.415,152.667 449.5,154.5C 449.034,157.492 448.701,160.492 448.5,163.5C 446.783,166.845 446.116,170.511 446.5,174.5C 446.5,177.167 446.5,179.833 446.5,182.5C 446.5,185.167 446.5,187.833 446.5,190.5C 443.351,207.396 441.684,224.729 441.5,242.5C 441.5,243.833 441.5,245.167 441.5,246.5C 440.732,247.263 440.232,248.263 440,249.5C 439.501,253.486 439.334,257.486 439.5,261.5C 439.5,263.167 439.5,264.833 439.5,266.5C 438.71,267.609 438.21,268.942 438,270.5C 436.503,286.478 435.336,302.478 434.5,318.5C 434.5,321.167 434.5,323.833 434.5,326.5C 432.508,334.092 431.508,342.092 431.5,350.5C 430.194,355.616 429.527,360.949 429.5,366.5C 429.5,370.5 429.5,374.5 429.5,378.5C 429.5,379.833 429.5,381.167 429.5,382.5C 427.564,386.715 426.897,391.381 427.5,396.5C 427.5,399.833 427.5,403.167 427.5,406.5C 426.182,409.258 425.515,412.424 425.5,416C 425.028,423.163 424.695,430.33 424.5,437.5C 424.5,437.833 424.5,438.167 424.5,438.5C 423.194,443.616 422.527,448.949 422.5,454.5C 420.554,459.396 419.887,464.729 420.5,470.5C 420.5,473.167 420.5,475.833 420.5,478.5C 418.631,480.635 417.964,483.302 418.5,486.5C 417.748,501.517 416.748,516.517 415.5,531.5C 415.5,533.833 415.5,536.167 415.5,538.5C 413.864,542.21 413.198,546.21 413.5,550.5C 413.5,553.167 413.5,555.833 413.5,558.5C 412.521,561.625 412.187,564.958 412.5,568.5C 410.973,568.427 409.973,569.094 409.5,570.5C 406.612,569.99 404.279,570.656 402.5,572.5C 402.167,572.5 401.833,572.5 401.5,572.5C 399.597,572.796 397.93,573.463 396.5,574.5C 396.167,574.5 395.833,574.5 395.5,574.5C 392.284,574.345 389.617,575.345 387.5,577.5C 383.723,578.994 379.723,579.661 375.5,579.5C 371.668,579.587 368.335,580.587 365.5,582.5C 365.167,582.5 364.833,582.5 364.5,582.5C 358.447,583.687 352.447,585.187 346.5,587C 345.429,587.852 344.429,588.685 343.5,589.5C 342.167,589.5 340.833,589.5 339.5,589.5C 330.95,590.692 322.95,593.025 315.5,596.5C 315.167,596.5 314.833,596.5 314.5,596.5C 312.447,596.402 310.78,597.069 309.5,598.5C 309.167,598.5 308.833,598.5 308.5,598.5C 305.962,598.507 303.462,598.841 301,599.5C 297.551,600.581 294.384,601.914 291.5,603.5C 289.901,603.232 288.568,603.566 287.5,604.5C 284.505,604.294 281.838,604.96 279.5,606.5C 274.131,607.007 268.798,607.841 263.5,609C 260.908,610.788 258.241,612.288 255.5,613.5C 255.167,613.5 254.833,613.5 254.5,613.5C 251.612,612.99 249.279,613.656 247.5,615.5C 247.167,615.5 246.833,615.5 246.5,615.5C 245.167,615.5 243.833,615.5 242.5,615.5C 241.5,615.5 240.5,615.5 239.5,615.5C 239.38,614.414 238.713,613.747 237.5,613.5C 232.732,612.475 228.066,611.142 223.5,609.5C 218.266,607.857 212.933,606.857 207.5,606.5C 205.11,604.98 202.443,603.98 199.5,603.5C 196.487,603.893 193.82,603.226 191.5,601.5C 187.702,600.132 183.702,599.132 179.5,598.5C 178.082,596.692 176.082,596.025 173.5,596.5C 172.5,596.5 171.5,596.5 170.5,596.5C 170.611,595.883 170.944,595.383 171.5,595C 164.199,593.175 156.865,591.341 149.5,589.5C 147.5,589.5 145.5,589.5 143.5,589.5C 143.5,589.167 143.5,588.833 143.5,588.5C 147.449,588.307 147.449,587.807 143.5,587C 137.189,585.339 130.856,583.839 124.5,582.5C 122.585,582.784 120.919,582.451 119.5,581.5C 115.346,578.787 110.679,577.454 105.5,577.5C 104.833,577.5 104.167,577.5 103.5,577.5C 102.432,576.566 101.099,576.232 99.5,576.5C 99.1667,576.5 98.8333,576.5 98.5,576.5C 96.7857,575.262 94.7857,574.595 92.5,574.5C 92.1667,574.5 91.8333,574.5 91.5,574.5C 90.8166,572.824 89.4832,572.157 87.5,572.5C 86.8333,572.5 86.1667,572.5 85.5,572.5C 82.8862,570.981 80.0528,569.648 77,568.5C 76.5017,565.183 76.335,561.85 76.5,558.5C 77.0356,555.302 76.369,552.635 74.5,550.5C 74.5,548.167 74.5,545.833 74.5,543.5C 74.5,540.5 74.5,537.5 74.5,534.5C 74.0769,527.5 73.5769,520.5 73,513.5C 72.7679,512.263 72.2679,511.263 71.5,510.5C 71.1345,499.813 70.4678,489.146 69.5,478.5C 70.0356,475.302 69.369,472.635 67.5,470.5C 67.5,469.167 67.5,467.833 67.5,466.5C 66.1696,451.857 65.1696,437.19 64.5,422.5C 65.0356,419.302 64.369,416.635 62.5,414.5C 62.5,412.833 62.5,411.167 62.5,409.5C 62.5,405.833 62.5,402.167 62.5,398.5C 61.9478,389.508 61.4478,380.508 61,371.5C 60.1266,364.333 58.9599,357.333 57.5,350.5C 57.6657,346.154 57.499,341.821 57,337.5C 56.7679,336.263 56.2679,335.263 55.5,334.5C 55.5,333.5 55.5,332.5 55.5,331.5C 55.5,329.833 55.5,328.167 55.5,326.5C 55.8221,318.271 55.1554,310.271 53.5,302.5C 52.4543,288.8 50.7876,275.467 48.5,262.5C 48.5,259.833 48.5,257.167 48.5,254.5C 48.5,251.833 48.5,249.167 48.5,246.5C 49.0356,243.302 48.369,240.635 46.5,238.5C 46.5,236.5 46.5,234.5 46.5,232.5C 46.4424,220.785 45.4424,209.452 43.5,198.5C 43.5,197.5 43.5,196.5 43.5,195.5C 44.0969,190.706 43.4302,186.373 41.5,182.5C 41.5,180.5 41.5,178.5 41.5,176.5C 41.5,173.167 41.5,169.833 41.5,166.5C 41.3867,161.482 41.0534,156.482 40.5,151.5C 176.334,151.833 312.001,151.5 447.5,150.5 Z"/></g>
<g><path style="opacity:1" fill="#d7bc25" d="M 47.5,154.5 C 180.835,154.167 314.168,154.5 447.5,155.5C 380.833,155.833 314.167,156.167 247.5,156.5C 180.497,156.5 113.83,155.833 47.5,154.5 Z"/></g>
<g><path style="opacity:1" fill="#d7b31c" d="M 44.5,152.5 C 178.834,152.333 313.167,152.5 447.5,153C 313.46,153.168 179.46,153.668 45.5,154.5C 44.7025,154.043 44.3691,153.376 44.5,152.5 Z"/></g>
<g><path style="opacity:0.023" fill="#fefeec" d="M 452.5,158.5 C 453.634,160.966 453.801,163.633 453,166.5C 452.503,163.854 452.336,161.187 452.5,158.5 Z"/></g>
<g><path style="opacity:1" fill="#e9d588" d="M 40.5,151.5 C 41.0534,156.482 41.3867,161.482 41.5,166.5C 40.8333,165.5 40.1667,164.5 39.5,163.5C 39.5,161.833 39.5,160.167 39.5,158.5C 39.1984,155.941 39.5318,153.607 40.5,151.5 Z"/></g>
<g><path style="opacity:0.013" fill="#faffee" d="M 450.5,166.5 C 451.634,168.966 451.801,171.633 451,174.5C 450.503,171.854 450.336,169.187 450.5,166.5 Z"/></g>
<g><path style="opacity:1" fill="#f8efd1" d="M 39.5,163.5 C 40.1667,164.5 40.8333,165.5 41.5,166.5C 41.5,169.833 41.5,173.167 41.5,176.5C 40.6236,176.631 39.9569,176.298 39.5,175.5C 39.6697,171.682 39.6697,167.682 39.5,163.5 Z"/></g>
<g><path style="opacity:1" fill="#e8d77f" d="M 448.5,163.5 C 448.5,167.167 448.5,170.833 448.5,174.5C 447.833,174.5 447.167,174.5 446.5,174.5C 446.116,170.511 446.783,166.845 448.5,163.5 Z"/></g>
<g><path style="opacity:1" fill="#f6f2d9" d="M 446.5,174.5 C 447.167,174.5 447.833,174.5 448.5,174.5C 449.582,176.327 449.582,178.327 448.5,180.5C 448.253,181.713 447.586,182.38 446.5,182.5C 446.5,179.833 446.5,177.167 446.5,174.5 Z"/></g>
<g><path style="opacity:1" fill="#f3e5c0" d="M 41.5,182.5 C 43.4302,186.373 44.0969,190.706 43.5,195.5C 41.7,192.296 40.7,188.63 40.5,184.5C 40.5427,183.584 40.8761,182.917 41.5,182.5 Z"/></g>
<g><path style="opacity:1" fill="#fed83b" d="M 409.5,203.5 C 399.474,316.488 389.807,429.488 380.5,542.5C 366.426,545.771 352.426,549.271 338.5,553C 330.702,557.035 322.368,559.368 313.5,560C 300.843,564.554 287.843,568.221 274.5,571C 269.533,573.235 264.533,575.068 259.5,576.5C 256.833,576.5 254.167,576.5 251.5,576.5C 251.611,575.883 251.944,575.383 252.5,575C 250.866,574.506 249.199,574.34 247.5,574.5C 247.333,557.83 247.5,541.163 248,524.5C 249,522.833 250,521.167 251,519.5C 251.346,521.218 251.846,522.885 252.5,524.5C 256.432,525.8 260.432,526.3 264.5,526C 263.5,525.667 262.5,525.333 261.5,525C 264.833,524.667 268.167,524.333 271.5,524C 269.069,522.908 269.069,521.741 271.5,520.5C 271.5,519.833 271.5,519.167 271.5,518.5C 282.159,515.839 292.826,513.173 303.5,510.5C 306.271,510.579 308.937,510.079 311.5,509C 312.756,508.583 313.423,507.75 313.5,506.5C 324.79,503.356 336.123,500.356 347.5,497.5C 348.636,491.359 349.303,485.026 349.5,478.5C 349.5,475.833 349.5,473.167 349.5,470.5C 351.223,468.22 351.889,465.553 351.5,462.5C 351.84,449.116 352.84,435.783 354.5,422.5C 354.5,419.833 354.5,417.167 354.5,414.5C 356.369,412.365 357.036,409.698 356.5,406.5C 356.5,401.167 356.5,395.833 356.5,390.5C 358.369,388.365 359.036,385.698 358.5,382.5C 358.5,379.833 358.5,377.167 358.5,374.5C 360.43,370.627 361.097,366.294 360.5,361.5C 360.773,354.496 361.106,347.496 361.5,340.5C 343.341,339.503 325.008,339.17 306.5,339.5C 306.5,322.5 306.5,305.5 306.5,288.5C 326.833,288.5 347.167,288.5 367.5,288.5C 367.5,285.167 367.5,281.833 367.5,278.5C 367.833,273.167 368.167,267.833 368.5,262.5C 369.806,257.384 370.473,252.051 370.5,246.5C 372.197,243.165 372.53,239.665 371.5,236C 331.998,235.169 292.665,235.335 253.5,236.5C 252.662,236.842 252.328,237.508 252.5,238.5C 251.833,289.002 251.167,339.668 250.5,390.5C 249.667,339.837 249.167,289.17 249,238.5C 248.667,290.167 248.333,341.833 248,393.5C 247.173,340.305 247.34,287.138 248.5,234C 247.148,231.688 246.481,229.188 246.5,226.5C 247.083,219.849 247.416,213.183 247.5,206.5C 247.495,200.789 246.828,195.456 245.5,190.5C 245.5,189.167 245.5,187.833 245.5,186.5C 300.5,186.5 355.5,186.5 410.5,186.5C 410.24,192.172 409.907,197.839 409.5,203.5 Z"/></g>
<g><path style="opacity:0.02" fill="#fffeee" d="M 39.5,202.5 C 40.5983,203.601 40.765,204.934 40,206.5C 39.51,205.207 39.3433,203.873 39.5,202.5 Z"/></g>
<g><path style="opacity:0.125" fill="#f7ebc1" d="M 446.5,190.5 C 445.886,207.201 444.719,223.867 443,240.5C 442.722,241.416 442.222,242.082 441.5,242.5C 441.684,224.729 443.351,207.396 446.5,190.5 Z"/></g>
<g><path style="opacity:1" fill="#f3e3af" d="M 43.5,198.5 C 45.4424,209.452 46.4424,220.785 46.5,232.5C 44.6944,221.679 43.3611,210.679 42.5,199.5C 42.6236,198.893 42.9569,198.56 43.5,198.5 Z"/></g>
<g><path style="opacity:0.008" fill="#fbfdef" d="M 42.5,230.5 C 42.3505,229.448 42.5172,228.448 43,227.5C 43.7401,228.749 43.5735,229.749 42.5,230.5 Z"/></g>
<g><path style="opacity:0.023" fill="#fdfced" d="M 42.5,230.5 C 42.6641,233.187 42.4974,235.854 42,238.5C 41.1993,235.633 41.3659,232.966 42.5,230.5 Z"/></g>
<g><path style="opacity:1" fill="#f5e050" d="M 253.5,236.5 C 292.665,235.335 331.998,235.169 371.5,236C 372.53,239.665 372.197,243.165 370.5,246.5C 370.81,243.287 370.477,240.287 369.5,237.5C 331.67,236.501 293.67,236.168 255.5,236.5C 254.833,236.5 254.167,236.5 253.5,236.5 Z"/></g>
<g><path style="opacity:0.022" fill="#fdffec" d="M 43.5,238.5 C 44.6341,240.966 44.8007,243.633 44,246.5C 43.5026,243.854 43.3359,241.187 43.5,238.5 Z"/></g>
<g><path style="opacity:1" fill="#fefefd" d="M 229.5,236.5 C 229.5,331.5 229.5,426.5 229.5,521.5C 227.5,521.5 225.5,521.5 223.5,521.5C 209.783,518.831 196.449,515.164 183.5,510.5C 179.503,508.423 175.169,507.09 170.5,506.5C 169.5,506.5 168.5,506.5 167.5,506.5C 166.448,504.744 164.781,504.077 162.5,504.5C 153.862,503.043 145.529,500.71 137.5,497.5C 136.353,491.215 135.686,484.882 135.5,478.5C 135.666,474.154 135.499,469.821 135,465.5C 134.768,464.263 134.268,463.263 133.5,462.5C 133.5,459.833 133.5,457.167 133.5,454.5C 134.126,447.416 133.459,440.75 131.5,434.5C 131.5,433.167 131.5,431.833 131.5,430.5C 131.693,426.434 131.36,422.434 130.5,418.5C 144.203,418.78 157.87,418.446 171.5,417.5C 171.334,421.846 171.501,426.179 172,430.5C 172.21,428.942 172.71,427.609 173.5,426.5C 173.5,430.5 173.5,434.5 173.5,438.5C 173.527,444.051 174.194,449.384 175.5,454.5C 175.5,455.833 175.5,457.167 175.5,458.5C 181.003,457.779 185.836,459.112 190,462.5C 190.5,451.839 190.667,441.172 190.5,430.5C 190.5,425.167 190.5,419.833 190.5,414.5C 189.8,398.513 189.3,382.513 189,366.5C 188.817,363.635 188.317,360.969 187.5,358.5C 187.941,342.295 187.274,326.295 185.5,310.5C 185.5,307.833 185.5,305.167 185.5,302.5C 185.938,291.61 185.272,280.943 183.5,270.5C 183.5,259.167 183.5,247.833 183.5,236.5C 198.833,236.5 214.167,236.5 229.5,236.5 Z"/></g>
<g><path style="opacity:1" fill="#ebe4b9" d="M 231.5,237.5 C 231.5,332.833 231.5,428.167 231.5,523.5C 229.585,523.784 227.919,523.451 226.5,522.5C 227.833,522.5 229.167,522.5 230.5,522.5C 230.167,427.332 230.501,332.332 231.5,237.5 Z"/></g>
<g><path style="opacity:1" fill="#d5bc1d" d="M 232.5,238.5 C 233.833,284.829 234.5,331.495 234.5,378.5C 234.167,425.167 233.833,471.833 233.5,518.5C 232.5,425.169 232.167,331.836 232.5,238.5 Z"/></g>
<g><path style="opacity:1" fill="#fbea9a" d="M 253.5,236.5 C 254.167,236.5 254.833,236.5 255.5,236.5C 254.505,287.762 254.171,339.095 254.5,390.5C 271.17,390.333 287.837,390.5 304.5,391C 305.814,393.605 305.814,396.105 304.5,398.5C 304.5,396.5 304.5,394.5 304.5,392.5C 287.83,392.667 271.163,392.5 254.5,392C 254,391.5 253.5,391 253,390.5C 252.5,339.834 252.333,289.168 252.5,238.5C 252.328,237.508 252.662,236.842 253.5,236.5 Z"/></g>
<g><path style="opacity:1" fill="#fefefe" d="M 255.5,236.5 C 293.67,236.168 331.67,236.501 369.5,237.5C 368.685,239.754 368.019,242.087 367.5,244.5C 368.414,250.459 368.747,256.459 368.5,262.5C 368.167,267.833 367.833,273.167 367.5,278.5C 366.527,280.948 366.194,283.615 366.5,286.5C 345.831,286.333 325.164,286.5 304.5,287C 305.056,287.383 305.389,287.883 305.5,288.5C 304.827,305.569 304.16,322.735 303.5,340C 304.094,340.464 304.761,340.631 305.5,340.5C 323.5,340.5 341.5,340.5 359.5,340.5C 359.722,347.388 359.722,354.388 359.5,361.5C 358.92,365.81 358.586,370.143 358.5,374.5C 358.5,377.167 358.5,379.833 358.5,382.5C 356.631,384.635 355.964,387.302 356.5,390.5C 356.5,395.833 356.5,401.167 356.5,406.5C 354.631,408.635 353.964,411.302 354.5,414.5C 354.5,417.167 354.5,419.833 354.5,422.5C 353.71,421.391 353.21,420.058 353,418.5C 351.338,423.125 351.171,427.792 352.5,432.5C 350.755,442.41 349.755,452.41 349.5,462.5C 349.5,465.167 349.5,467.833 349.5,470.5C 349.5,473.167 349.5,475.833 349.5,478.5C 347.544,484.412 346.877,490.745 347.5,497.5C 336.123,500.356 324.79,503.356 313.5,506.5C 309.687,506.938 306.354,508.271 303.5,510.5C 292.826,513.173 282.159,515.839 271.5,518.5C 266.087,520.585 260.42,521.919 254.5,522.5C 254.5,505.167 254.5,487.833 254.5,470.5C 256.114,468.925 258.114,468.259 260.5,468.5C 263.025,467.36 265.692,466.693 268.5,466.5C 272.397,465.945 276.063,464.945 279.5,463.5C 286.266,461.852 292.933,459.852 299.5,457.5C 299.5,456.5 299.5,455.5 299.5,454.5C 300.222,454.082 300.722,453.416 301,452.5C 301.499,448.848 301.665,445.182 301.5,441.5C 301.5,437.833 301.5,434.167 301.5,430.5C 303.178,425.432 303.844,420.098 303.5,414.5C 303.833,409.167 304.167,403.833 304.5,398.5C 305.814,396.105 305.814,393.605 304.5,391C 287.837,390.5 271.17,390.333 254.5,390.5C 254.171,339.095 254.505,287.762 255.5,236.5 Z"/></g>
<g><path style="opacity:0.022" fill="#ffffec" d="M 445.5,238.5 C 446.634,240.966 446.801,243.633 446,246.5C 445.503,243.854 445.336,241.187 445.5,238.5 Z"/></g>
<g><path style="opacity:1" fill="#fef4cc" d="M 369.5,237.5 C 370.477,240.287 370.81,243.287 370.5,246.5C 370.473,252.051 369.806,257.384 368.5,262.5C 368.747,256.459 368.414,250.459 367.5,244.5C 368.019,242.087 368.685,239.754 369.5,237.5 Z"/></g>
<g><path style="opacity:1" fill="#ebdb92" d="M 46.5,238.5 C 48.369,240.635 49.0356,243.302 48.5,246.5C 47.8333,246.5 47.1667,246.5 46.5,246.5C 46.5,243.833 46.5,241.167 46.5,238.5 Z"/></g>
<g><path style="opacity:1" fill="#fef7e0" d="M 229.5,236.5 C 230.492,236.328 231.158,236.662 231.5,237.5C 230.501,332.332 230.167,427.332 230.5,522.5C 229.167,522.5 227.833,522.5 226.5,522.5C 225.209,522.737 224.209,522.404 223.5,521.5C 225.5,521.5 227.5,521.5 229.5,521.5C 229.5,426.5 229.5,331.5 229.5,236.5 Z"/></g>
<g><path style="opacity:1" fill="#f3cf38" d="M 409.5,203.5 C 409.907,197.839 410.24,192.172 410.5,186.5C 355.5,186.5 300.5,186.5 245.5,186.5C 245.5,187.833 245.5,189.167 245.5,190.5C 245.333,319.5 245.5,448.5 246,577.5C 246.333,576.833 246.667,576.167 247,575.5C 248.27,577.578 249.77,577.912 251.5,576.5C 254.167,576.5 256.833,576.5 259.5,576.5C 254.378,578.027 249.045,579.027 243.5,579.5C 243.333,448.166 243.5,316.833 244,185.5C 299.762,184.502 355.595,184.169 411.5,184.5C 411.915,191.093 411.248,197.426 409.5,203.5 Z"/></g>
<g><path style="opacity:1" fill="#fdd936" d="M 245.5,190.5 C 246.828,195.456 247.495,200.789 247.5,206.5C 247.416,213.183 247.083,219.849 246.5,226.5C 246.481,229.188 247.148,231.688 248.5,234C 247.34,287.138 247.173,340.305 248,393.5C 248.333,341.833 248.667,290.167 249,238.5C 249.167,289.17 249.667,339.837 250.5,390.5C 251.167,339.668 251.833,289.002 252.5,238.5C 252.333,289.168 252.5,339.834 253,390.5C 253.5,391 254,391.5 254.5,392C 271.163,392.5 287.83,392.667 304.5,392.5C 304.5,394.5 304.5,396.5 304.5,398.5C 288.163,398.667 271.83,398.5 255.5,398C 319.5,397.333 319.5,396.667 255.5,396C 271.5,395.667 287.5,395.333 303.5,395C 286.157,394.167 268.824,394.334 251.5,395.5C 253.727,398.619 252.727,399.286 248.5,397.5C 248.167,408.333 247.833,419.167 247.5,430C 247.532,441.453 248.199,452.786 249.5,464C 248.206,473.21 247.54,482.543 247.5,492C 247.667,500.833 247.833,509.667 248,518.5C 248.333,501.833 248.667,485.167 249,468.5C 251.115,464.895 254.281,463.228 258.5,463.5C 260.167,463.667 261.833,463.833 263.5,464C 260.833,464.333 258.167,464.667 255.5,465C 257.167,465.333 258.833,465.667 260.5,466C 259.833,466.333 259.167,466.667 258.5,467C 259.416,467.278 260.082,467.778 260.5,468.5C 258.114,468.259 256.114,468.925 254.5,470.5C 253.169,478.138 252.502,486.138 252.5,494.5C 252.57,504.187 252.903,513.854 253.5,523.5C 259.686,523.451 265.686,522.451 271.5,520.5C 269.069,521.741 269.069,522.908 271.5,524C 268.167,524.333 264.833,524.667 261.5,525C 262.5,525.333 263.5,525.667 264.5,526C 260.432,526.3 256.432,525.8 252.5,524.5C 251.846,522.885 251.346,521.218 251,519.5C 250,521.167 249,522.833 248,524.5C 247.5,541.163 247.333,557.83 247.5,574.5C 249.199,574.34 250.866,574.506 252.5,575C 251.944,575.383 251.611,575.883 251.5,576.5C 249.77,577.912 248.27,577.578 247,575.5C 246.667,576.167 246.333,576.833 246,577.5C 245.5,448.5 245.333,319.5 245.5,190.5 Z"/></g>
<g><path style="opacity:1" fill="#f2e9bf" d="M 441.5,246.5 C 442.097,246.735 442.43,247.235 442.5,248C 441.761,252.127 441.261,256.294 441,260.5C 440.617,261.056 440.117,261.389 439.5,261.5C 439.334,257.486 439.501,253.486 440,249.5C 440.232,248.263 440.732,247.263 441.5,246.5 Z"/></g>
<g><path style="opacity:0.055" fill="#f7f5e0" d="M 46.5,246.5 C 47.1667,246.5 47.8333,246.5 48.5,246.5C 48.5,249.167 48.5,251.833 48.5,254.5C 46.955,253.77 46.1216,252.437 46,250.5C 45.235,248.934 45.4017,247.601 46.5,246.5 Z"/></g>
<g><path style="opacity:1" fill="#f6e7bb" d="M 439.5,266.5 C 438.72,282.858 437.554,299.191 436,315.5C 435.768,316.737 435.268,317.737 434.5,318.5C 435.336,302.478 436.503,286.478 438,270.5C 438.21,268.942 438.71,267.609 439.5,266.5 Z"/></g>
<g><path style="opacity:1" fill="#e6d47c" d="M 183.5,270.5 C 185.272,280.943 185.938,291.61 185.5,302.5C 184.179,292.026 183.512,281.359 183.5,270.5 Z"/></g>
<g><path style="opacity:0.529" fill="#f5ecc5" d="M 48.5,262.5 C 50.7876,275.467 52.4543,288.8 53.5,302.5C 53.5,306.167 53.5,309.833 53.5,313.5C 51.9924,307.709 50.9924,301.709 50.5,295.5C 50.8333,294.833 51.1667,294.167 51.5,293.5C 50.3995,291.358 49.3995,289.192 48.5,287C 49.207,278.909 49.207,270.742 48.5,262.5 Z"/></g>
<g><path style="opacity:1" fill="#fcf1bc" d="M 367.5,278.5 C 367.5,281.833 367.5,285.167 367.5,288.5C 347.167,288.5 326.833,288.5 306.5,288.5C 306.167,288.5 305.833,288.5 305.5,288.5C 305.389,287.883 305.056,287.383 304.5,287C 325.164,286.5 345.831,286.333 366.5,286.5C 366.194,283.615 366.527,280.948 367.5,278.5 Z"/></g>
<g><path style="opacity:0.008" fill="#fffef0" d="M 47.5,294.5 C 48.525,294.897 48.6917,295.563 48,296.5C 47.5357,295.906 47.369,295.239 47.5,294.5 Z"/></g>
<g><path style="opacity:1" fill="#fceeac" d="M 305.5,288.5 C 305.5,305.833 305.5,323.167 305.5,340.5C 304.761,340.631 304.094,340.464 303.5,340C 304.16,322.735 304.827,305.569 305.5,288.5 Z"/></g>
<g><path style="opacity:0.012" fill="#fdfeee" d="M 438.5,294.5 C 439.525,294.897 439.692,295.563 439,296.5C 438.536,295.906 438.369,295.239 438.5,294.5 Z"/></g>
<g><path style="opacity:0.029" fill="#fefeeb" d="M 48.5,310.5 C 49.6341,312.966 49.8007,315.633 49,318.5C 48.5026,315.854 48.3359,313.187 48.5,310.5 Z"/></g>
<g><path style="opacity:1" fill="#e3ce6f" d="M 53.5,302.5 C 55.1554,310.271 55.8221,318.271 55.5,326.5C 54.8333,323.833 54.1667,321.167 53.5,318.5C 53.5,316.833 53.5,315.167 53.5,313.5C 53.5,309.833 53.5,306.167 53.5,302.5 Z"/></g>
<g><path style="opacity:0.059" fill="#f6f2d7" d="M 53.5,318.5 C 54.1667,321.167 54.8333,323.833 55.5,326.5C 55.5,328.167 55.5,329.833 55.5,331.5C 54.8826,331.389 54.3826,331.056 54,330.5C 53.6633,327.139 53.1633,323.806 52.5,320.5C 52.5427,319.584 52.8761,318.917 53.5,318.5 Z"/></g>
<g><path style="opacity:0.011" fill="#fefeef" d="M 435.5,326.5 C 436.598,327.601 436.765,328.934 436,330.5C 435.51,329.207 435.343,327.873 435.5,326.5 Z"/></g>
<g><path style="opacity:1" fill="#eedda5" d="M 185.5,310.5 C 187.274,326.295 187.941,342.295 187.5,358.5C 186.174,342.684 185.508,326.684 185.5,310.5 Z"/></g>
<g><path style="opacity:1" fill="#f8df4d" d="M 305.5,288.5 C 305.833,288.5 306.167,288.5 306.5,288.5C 306.5,305.5 306.5,322.5 306.5,339.5C 325.008,339.17 343.341,339.503 361.5,340.5C 360.833,340.5 360.167,340.5 359.5,340.5C 341.5,340.5 323.5,340.5 305.5,340.5C 305.5,323.167 305.5,305.833 305.5,288.5 Z"/></g>
<g><path style="opacity:0.159" fill="#f5eabe" d="M 434.5,326.5 C 434.34,329.884 434.673,333.217 435.5,336.5C 435.518,338.373 435.018,338.706 434,337.5C 433.667,343.5 433.333,349.5 433,355.5C 432.768,356.737 432.268,357.737 431.5,358.5C 431.5,355.833 431.5,353.167 431.5,350.5C 431.508,342.092 432.508,334.092 434.5,326.5 Z"/></g>
<g><path style="opacity:0.008" fill="#fdffef" d="M 435.5,347.5 C 436.573,348.251 436.74,349.251 436,350.5C 435.517,349.552 435.351,348.552 435.5,347.5 Z"/></g>
<g><path style="opacity:0.605" fill="#f4e7b6" d="M 55.5,334.5 C 56.2679,335.263 56.7679,336.263 57,337.5C 57.499,341.821 57.6657,346.154 57.5,350.5C 58.0543,357.153 58.3877,363.82 58.5,370.5C 57.9017,366.839 56.9017,363.172 55.5,359.5C 55.8824,351.226 55.8824,342.893 55.5,334.5 Z"/></g>
<g><path style="opacity:1" fill="#fdf1bf" d="M 359.5,340.5 C 360.167,340.5 360.833,340.5 361.5,340.5C 361.106,347.496 360.773,354.496 360.5,361.5C 360.167,361.5 359.833,361.5 359.5,361.5C 359.722,354.388 359.722,347.388 359.5,340.5 Z"/></g>
<g><path style="opacity:1" fill="#e9d179" d="M 431.5,350.5 C 431.5,353.167 431.5,355.833 431.5,358.5C 431.5,360.167 431.5,361.833 431.5,363.5C 430.833,364.5 430.167,365.5 429.5,366.5C 429.527,360.949 430.194,355.616 431.5,350.5 Z"/></g>
<g><path style="opacity:1" fill="#fae583" d="M 359.5,361.5 C 359.833,361.5 360.167,361.5 360.5,361.5C 361.097,366.294 360.43,370.627 358.5,374.5C 358.586,370.143 358.92,365.81 359.5,361.5 Z"/></g>
<g><path style="opacity:1" fill="#f8ebc1" d="M 431.5,363.5 C 431.698,368.75 431.031,373.75 429.5,378.5C 429.5,374.5 429.5,370.5 429.5,366.5C 430.167,365.5 430.833,364.5 431.5,363.5 Z"/></g>
<g><path style="opacity:1" fill="#e2ca5e" d="M 57.5,350.5 C 58.9599,357.333 60.1266,364.333 61,371.5C 61.4478,380.508 61.9478,389.508 62.5,398.5C 61.8333,398.5 61.1667,398.5 60.5,398.5C 60.5,395.833 60.5,393.167 60.5,390.5C 60.473,384.949 59.8063,379.616 58.5,374.5C 58.5,373.167 58.5,371.833 58.5,370.5C 58.3877,363.82 58.0543,357.153 57.5,350.5 Z"/></g>
<g><path style="opacity:1" fill="#f8ebc8" d="M 187.5,358.5 C 188.317,360.969 188.817,363.635 189,366.5C 189.3,382.513 189.8,398.513 190.5,414.5C 189.833,414.5 189.167,414.5 188.5,414.5C 188.333,395.83 188,377.163 187.5,358.5 Z"/></g>
<g><path style="opacity:0.086" fill="#f8f0d8" d="M 58.5,374.5 C 59.8063,379.616 60.473,384.949 60.5,390.5C 59.7784,390.082 59.2784,389.416 59,388.5C 58.8029,383.914 58.3029,379.414 57.5,375C 57.7284,374.601 58.0618,374.435 58.5,374.5 Z"/></g>
<g><path style="opacity:0.035" fill="#f8fee9" d="M 56.5,382.5 C 57.6341,384.966 57.8007,387.633 57,390.5C 56.5026,387.854 56.3359,385.187 56.5,382.5 Z"/></g>
<g><path style="opacity:1" fill="#f9ef9e" d="M 358.5,382.5 C 359.036,385.698 358.369,388.365 356.5,390.5C 355.964,387.302 356.631,384.635 358.5,382.5 Z"/></g>
<g><path style="opacity:0.255" fill="#f3e5ba" d="M 429.5,382.5 C 429.666,387.511 429.499,392.511 429,397.5C 428.617,396.944 428.117,396.611 427.5,396.5C 426.897,391.381 427.564,386.715 429.5,382.5 Z"/></g>
<g><path style="opacity:1" fill="#fed83b" d="M 304.5,398.5 C 304.167,403.833 303.833,409.167 303.5,414.5C 302.194,419.616 301.527,424.949 301.5,430.5C 301.5,434.167 301.5,437.833 301.5,441.5C 300.778,441.918 300.278,442.584 300,443.5C 299.501,447.152 299.335,450.818 299.5,454.5C 299.5,455.5 299.5,456.5 299.5,457.5C 292.933,459.852 286.266,461.852 279.5,463.5C 276.807,463.572 274.14,463.905 271.5,464.5C 269.97,464.64 268.97,465.307 268.5,466.5C 265.692,466.693 263.025,467.36 260.5,468.5C 260.082,467.778 259.416,467.278 258.5,467C 259.167,466.667 259.833,466.333 260.5,466C 258.833,465.667 257.167,465.333 255.5,465C 258.167,464.667 260.833,464.333 263.5,464C 261.833,463.833 260.167,463.667 258.5,463.5C 254.281,463.228 251.115,464.895 249,468.5C 248.667,485.167 248.333,501.833 248,518.5C 247.833,509.667 247.667,500.833 247.5,492C 247.54,482.543 248.206,473.21 249.5,464C 248.199,452.786 247.532,441.453 247.5,430C 247.833,419.167 248.167,408.333 248.5,397.5C 252.727,399.286 253.727,398.619 251.5,395.5C 268.824,394.334 286.157,394.167 303.5,395C 287.5,395.333 271.5,395.667 255.5,396C 319.5,396.667 319.5,397.333 255.5,398C 271.83,398.5 288.163,398.667 304.5,398.5 Z"/></g>
<g><path style="opacity:1" fill="#fbebd6" d="M 60.5,398.5 C 61.1667,398.5 61.8333,398.5 62.5,398.5C 62.5,402.167 62.5,405.833 62.5,409.5C 60.5864,406.316 59.9197,402.649 60.5,398.5 Z"/></g>
<g><path style="opacity:1" fill="#fde78b" d="M 356.5,406.5 C 357.036,409.698 356.369,412.365 354.5,414.5C 353.964,411.302 354.631,408.635 356.5,406.5 Z"/></g>
<g><path style="opacity:0.029" fill="#f2ffea" d="M 59.5,414.5 C 60.6341,416.966 60.8007,419.633 60,422.5C 59.5026,419.854 59.3359,417.187 59.5,414.5 Z"/></g>
<g><path style="opacity:1" fill="#f6e7b6" d="M 173.5,426.5 C 172.71,427.609 172.21,428.942 172,430.5C 171.501,426.179 171.334,421.846 171.5,417.5C 157.87,418.446 144.203,418.78 130.5,418.5C 130.389,417.883 130.056,417.383 129.5,417C 144.163,416.5 158.83,416.333 173.5,416.5C 173.5,419.833 173.5,423.167 173.5,426.5 Z"/></g>
<g><path style="opacity:1" fill="#edd786" d="M 62.5,414.5 C 64.369,416.635 65.0356,419.302 64.5,422.5C 63.8333,422.5 63.1667,422.5 62.5,422.5C 62.5,419.833 62.5,417.167 62.5,414.5 Z"/></g>
<g><path style="opacity:0.118" fill="#f6eec9" d="M 427.5,406.5 C 427.245,417.052 426.245,427.386 424.5,437.5C 424.695,430.33 425.028,423.163 425.5,416C 425.515,412.424 426.182,409.258 427.5,406.5 Z"/></g>
<g><path style="opacity:1" fill="#edde97" d="M 130.5,418.5 C 131.36,422.434 131.693,426.434 131.5,430.5C 130.678,427.335 130.011,424.002 129.5,420.5C 129.543,419.584 129.876,418.917 130.5,418.5 Z"/></g>
<g><path style="opacity:1" fill="#ecd489" d="M 188.5,414.5 C 189.167,414.5 189.833,414.5 190.5,414.5C 190.5,419.833 190.5,425.167 190.5,430.5C 188.554,425.604 187.887,420.271 188.5,414.5 Z"/></g>
<g><path style="opacity:1" fill="#fde993" d="M 303.5,414.5 C 303.844,420.098 303.178,425.432 301.5,430.5C 301.527,424.949 302.194,419.616 303.5,414.5 Z"/></g>
<g><path style="opacity:0.004" fill="#f8fff0" d="M 430.5,430.5 C 431.833,431.167 431.833,431.167 430.5,430.5 Z"/></g>
<g><path style="opacity:0.004" fill="#fdfff0" d="M 427.5,437.5 C 428.833,438.167 428.833,438.167 427.5,437.5 Z"/></g>
<g><path style="opacity:1" fill="#fef7d8" d="M 354.5,422.5 C 352.84,435.783 351.84,449.116 351.5,462.5C 350.833,462.5 350.167,462.5 349.5,462.5C 349.755,452.41 350.755,442.41 352.5,432.5C 351.171,427.792 351.338,423.125 353,418.5C 353.21,420.058 353.71,421.391 354.5,422.5 Z"/></g>
<g><path style="opacity:1" fill="#f1e6b8" d="M 131.5,434.5 C 133.459,440.75 134.126,447.416 133.5,454.5C 131.961,448.063 131.294,441.396 131.5,434.5 Z"/></g>
<g><path style="opacity:1" fill="#e8d584" d="M 173.5,438.5 C 174.268,439.263 174.768,440.263 175,441.5C 175.499,445.821 175.666,450.154 175.5,454.5C 174.194,449.384 173.527,444.051 173.5,438.5 Z"/></g>
<g><path style="opacity:1" fill="#fcefb2" d="M 301.5,441.5 C 301.665,445.182 301.499,448.848 301,452.5C 300.722,453.416 300.222,454.082 299.5,454.5C 299.335,450.818 299.501,447.152 300,443.5C 300.278,442.584 300.778,441.918 301.5,441.5 Z"/></g>
<g><path style="opacity:1" fill="#faf4e1" d="M 424.5,438.5 C 426.093,445.038 425.427,451.371 422.5,457.5C 422.5,456.5 422.5,455.5 422.5,454.5C 422.527,448.949 423.194,443.616 424.5,438.5 Z"/></g>
<g><path style="opacity:0.176" fill="#f7ecc9" d="M 62.5,422.5 C 63.1667,422.5 63.8333,422.5 64.5,422.5C 65.1696,437.19 66.1696,451.857 67.5,466.5C 66.0068,460.248 64.6735,453.748 63.5,447C 64.0585,446.275 64.3918,445.442 64.5,444.5C 63.7574,438.863 63.2574,433.196 63,427.5C 61.3227,425.852 61.156,424.185 62.5,422.5 Z"/></g>
<g><path style="opacity:1" fill="#fde680" d="M 279.5,463.5 C 276.063,464.945 272.397,465.945 268.5,466.5C 268.97,465.307 269.97,464.64 271.5,464.5C 274.14,463.905 276.807,463.572 279.5,463.5 Z"/></g>
<g><path style="opacity:0.204" fill="#f0e1a7" d="M 422.5,454.5 C 422.5,455.5 422.5,456.5 422.5,457.5C 422.5,461.833 422.5,466.167 422.5,470.5C 421.833,470.5 421.167,470.5 420.5,470.5C 419.887,464.729 420.554,459.396 422.5,454.5 Z"/></g>
<g><path style="opacity:1" fill="#fbe98e" d="M 349.5,462.5 C 350.167,462.5 350.833,462.5 351.5,462.5C 351.889,465.553 351.223,468.22 349.5,470.5C 349.5,467.833 349.5,465.167 349.5,462.5 Z"/></g>
<g><path style="opacity:1" fill="#fbe993" d="M 254.5,470.5 C 254.5,487.833 254.5,505.167 254.5,522.5C 260.42,521.919 266.087,520.585 271.5,518.5C 271.5,519.167 271.5,519.833 271.5,520.5C 265.686,522.451 259.686,523.451 253.5,523.5C 252.903,513.854 252.57,504.187 252.5,494.5C 252.502,486.138 253.169,478.138 254.5,470.5 Z"/></g>
<g><path style="opacity:1" fill="#ecdb99" d="M 133.5,462.5 C 134.268,463.263 134.768,464.263 135,465.5C 135.499,469.821 135.666,474.154 135.5,478.5C 134.194,473.384 133.527,468.051 133.5,462.5 Z"/></g>
<g><path style="opacity:0.02" fill="#fffeee" d="M 63.5,474.5 C 64.5983,475.601 64.765,476.934 64,478.5C 63.51,477.207 63.3433,475.873 63.5,474.5 Z"/></g>
<g><path style="opacity:0.388" fill="#ead584" d="M 67.5,470.5 C 69.369,472.635 70.0356,475.302 69.5,478.5C 68.8333,478.5 68.1667,478.5 67.5,478.5C 67.1949,475.586 67.1949,472.919 67.5,470.5 Z"/></g>
<g><path style="opacity:0.01" fill="#f6fdec" d="M 420.5,470.5 C 421.167,470.5 421.833,470.5 422.5,470.5C 422.664,473.187 422.497,475.854 422,478.5C 421.722,479.416 421.222,480.082 420.5,480.5C 420.5,479.833 420.5,479.167 420.5,478.5C 420.5,475.833 420.5,473.167 420.5,470.5 Z"/></g>
<g><path style="opacity:0.392" fill="#e7d785" d="M 420.5,478.5 C 420.5,479.167 420.5,479.833 420.5,480.5C 420.5,482.5 420.5,484.5 420.5,486.5C 419.833,486.5 419.167,486.5 418.5,486.5C 417.964,483.302 418.631,480.635 420.5,478.5 Z"/></g>
<g><path style="opacity:1" fill="#f5e8bc" d="M 67.5,478.5 C 68.1667,478.5 68.8333,478.5 69.5,478.5C 70.4678,489.146 71.1345,499.813 71.5,510.5C 71.7509,515.507 72.0843,520.507 72.5,525.5C 70.2672,520.254 69.6005,514.754 70.5,509C 68.862,498.905 67.862,488.738 67.5,478.5 Z"/></g>
<g><path style="opacity:0.024" fill="#faffec" d="M 421.5,486.5 C 422.634,488.966 422.801,491.633 422,494.5C 421.503,491.854 421.336,489.187 421.5,486.5 Z"/></g>
<g><path style="opacity:1" fill="#fdf1c1" d="M 349.5,478.5 C 349.303,485.026 348.636,491.359 347.5,497.5C 346.877,490.745 347.544,484.412 349.5,478.5 Z"/></g>
<g><path style="opacity:0.132" fill="#f7ebc8" d="M 418.5,486.5 C 419.167,486.5 419.833,486.5 420.5,486.5C 419.664,501.887 417.997,516.887 415.5,531.5C 416.748,516.517 417.748,501.517 418.5,486.5 Z"/></g>
<g><path style="opacity:1" fill="#f0da98" d="M 162.5,504.5 C 164.781,504.077 166.448,504.744 167.5,506.5C 165.219,506.923 163.552,506.256 162.5,504.5 Z"/></g>
<g><path style="opacity:0.009" fill="#fffeef" d="M 66.5,507.5 C 67.5735,508.251 67.7401,509.251 67,510.5C 66.5172,509.552 66.3505,508.552 66.5,507.5 Z"/></g>
<g><path style="opacity:1" fill="#f4e5b6" d="M 170.5,506.5 C 175.169,507.09 179.503,508.423 183.5,510.5C 178.601,510.307 174.268,508.974 170.5,506.5 Z"/></g>
<g><path style="opacity:1" fill="#fce586" d="M 313.5,506.5 C 313.423,507.75 312.756,508.583 311.5,509C 308.937,510.079 306.271,510.579 303.5,510.5C 306.354,508.271 309.687,506.938 313.5,506.5 Z"/></g>
<g><path style="opacity:0.004" fill="#fbfff0" d="M 419.5,514.5 C 420.598,515.601 420.765,516.934 420,518.5C 419.51,517.207 419.343,515.873 419.5,514.5 Z"/></g>
<g><path style="opacity:0.004" fill="#fefff0" d="M 420.5,525.5 C 421.833,526.167 421.833,526.167 420.5,525.5 Z"/></g>
<g><path style="opacity:1" fill="#e6ce71" d="M 71.5,510.5 C 72.2679,511.263 72.7679,512.263 73,513.5C 73.5769,520.5 74.0769,527.5 74.5,534.5C 73.8333,534.5 73.1667,534.5 72.5,534.5C 72.5,531.5 72.5,528.5 72.5,525.5C 72.0843,520.507 71.7509,515.507 71.5,510.5 Z"/></g>
<g><path style="opacity:0.048" fill="#f9f3d8" d="M 72.5,534.5 C 73.1667,534.5 73.8333,534.5 74.5,534.5C 74.5,537.5 74.5,540.5 74.5,543.5C 73.6862,545.631 73.1862,547.964 73,550.5C 72.5006,545.177 72.334,539.844 72.5,534.5 Z"/></g>
<g><path style="opacity:0.027" fill="#f8f0d7" d="M 415.5,538.5 C 415.666,543.511 415.499,548.511 415,553.5C 414.768,552.263 414.268,551.263 413.5,550.5C 413.198,546.21 413.864,542.21 415.5,538.5 Z"/></g>
<g><path style="opacity:1" fill="#ecd889" d="M 74.5,550.5 C 76.369,552.635 77.0356,555.302 76.5,558.5C 75.8333,558.5 75.1667,558.5 74.5,558.5C 74.5,555.833 74.5,553.167 74.5,550.5 Z"/></g>
<g><path style="opacity:0.016" fill="#faffed" d="M 72.5,558.5 C 73.6341,560.966 73.8007,563.633 73,566.5C 72.5026,563.854 72.3359,561.187 72.5,558.5 Z"/></g>
<g><path style="opacity:0.294" fill="#f2e8c1" d="M 413.5,558.5 C 414.094,560.091 414.094,561.924 413.5,564C 413.675,565.658 414.342,566.991 415.5,568C 414.552,568.483 413.552,568.649 412.5,568.5C 412.187,564.958 412.521,561.625 413.5,558.5 Z"/></g>
<g><path style="opacity:1" fill="#f7edcd" d="M 74.5,558.5 C 75.1667,558.5 75.8333,558.5 76.5,558.5C 76.335,561.85 76.5017,565.183 77,568.5C 80.0528,569.648 82.8862,570.981 85.5,572.5C 75.7109,572.988 72.0442,568.321 74.5,558.5 Z"/></g>
<g><path style="opacity:0.208" fill="#efeabb" d="M 412.5,568.5 C 413.263,569.268 414.263,569.768 415.5,570C 413.527,570.495 411.527,570.662 409.5,570.5C 409.973,569.094 410.973,568.427 412.5,568.5 Z"/></g>
<g><path style="opacity:1" fill="#faecc6" d="M 409.5,570.5 C 408.833,571.5 408.167,572.5 407.5,573.5C 405.958,572.699 404.292,572.366 402.5,572.5C 404.279,570.656 406.612,569.99 409.5,570.5 Z"/></g>
<g><path style="opacity:0.057" fill="#f7fbe6" d="M 411.5,572.5 C 412.601,571.402 413.934,571.235 415.5,572C 414.207,572.49 412.873,572.657 411.5,572.5 Z"/></g>
<g><path style="opacity:0.247" fill="#eee8b7" d="M 87.5,572.5 C 89.4832,572.157 90.8166,572.824 91.5,574.5C 89.5168,574.843 88.1834,574.176 87.5,572.5 Z"/></g>
<g><path style="opacity:0.067" fill="#f6f0de" d="M 401.5,572.5 C 400.448,574.256 398.781,574.923 396.5,574.5C 397.93,573.463 399.597,572.796 401.5,572.5 Z"/></g>
<g><path style="opacity:0.004" fill="#fefff0" d="M 407.5,573.5 C 408.833,574.167 408.833,574.167 407.5,573.5 Z"/></g>
<g><path style="opacity:0.035" fill="#fbfeea" d="M 411.5,574.5 C 411.897,573.475 412.563,573.308 413.5,574C 412.906,574.464 412.239,574.631 411.5,574.5 Z"/></g>
<g><path style="opacity:0.027" fill="#f7f8e3" d="M 92.5,574.5 C 94.7857,574.595 96.7857,575.262 98.5,576.5C 95.9179,576.975 93.9179,576.308 92.5,574.5 Z"/></g>
<g><path style="opacity:1" fill="#faf1d9" d="M 395.5,574.5 C 394.855,575.812 393.855,576.812 392.5,577.5C 390.872,576.465 389.205,576.465 387.5,577.5C 389.617,575.345 392.284,574.345 395.5,574.5 Z"/></g>
<g><path style="opacity:0.047" fill="#f4f5df" d="M 99.5,576.5 C 101.099,576.232 102.432,576.566 103.5,577.5C 103.083,578.124 102.416,578.457 101.5,578.5C 100.287,578.253 99.62,577.586 99.5,576.5 Z"/></g>
<g><path style="opacity:0.471" fill="#eddf9d" d="M 105.5,577.5 C 110.679,577.454 115.346,578.787 119.5,581.5C 117.473,581.662 115.473,581.495 113.5,581C 110.499,580.262 107.832,579.096 105.5,577.5 Z"/></g>
<g><path style="opacity:0.03" fill="#fffeea" d="M 383.5,580.5 C 385.966,579.366 388.633,579.199 391.5,580C 388.854,580.497 386.187,580.664 383.5,580.5 Z"/></g>
<g><path style="opacity:0.063" fill="#f6fee7" d="M 103.5,579.5 C 105.179,579.892 106.846,580.392 108.5,581C 107.667,581.167 106.833,581.333 106,581.5C 104.624,581.316 103.791,580.649 103.5,579.5 Z"/></g>
<g><path style="opacity:1" fill="#f0d997" d="M 375.5,579.5 C 372.548,581.41 369.214,582.41 365.5,582.5C 368.335,580.587 371.668,579.587 375.5,579.5 Z"/></g>
<g><path style="opacity:0.031" fill="#f9ffea" d="M 383.5,580.5 C 383.103,581.525 382.437,581.692 381.5,581C 382.094,580.536 382.761,580.369 383.5,580.5 Z"/></g>
<g><path style="opacity:0.004" fill="#fcfff0" d="M 374.5,582.5 C 374.897,581.475 375.563,581.308 376.5,582C 375.906,582.464 375.239,582.631 374.5,582.5 Z"/></g>
<g><path style="opacity:1" fill="#f3e6b8" d="M 124.5,582.5 C 130.856,583.839 137.189,585.339 143.5,587C 147.449,587.807 147.449,588.307 143.5,588.5C 141.5,588.5 139.5,588.5 137.5,588.5C 136.922,586.557 135.922,586.223 134.5,587.5C 132.081,585.351 129.414,584.685 126.5,585.5C 125.081,584.995 124.415,583.995 124.5,582.5 Z"/></g>
<g><path style="opacity:0.004" fill="#fbfef0" d="M 366.5,584.5 C 367.833,585.167 367.833,585.167 366.5,584.5 Z"/></g>
<g><path style="opacity:0.047" fill="#f8ebc5" d="M 364.5,582.5 C 364.389,583.117 364.056,583.617 363.5,584C 356.901,586.145 350.235,587.978 343.5,589.5C 344.429,588.685 345.429,587.852 346.5,587C 352.447,585.187 358.447,583.687 364.5,582.5 Z"/></g>
<g><path style="opacity:0.024" fill="#faffed" d="M 127.5,586.5 C 128.289,586.783 128.956,587.283 129.5,588C 128.184,588.528 127.517,588.028 127.5,586.5 Z"/></g>
<g><path style="opacity:0.012" fill="#f9ffee" d="M 357.5,588.5 C 358.601,587.402 359.934,587.235 361.5,588C 360.207,588.49 358.873,588.657 357.5,588.5 Z"/></g>
<g><path style="opacity:0.012" fill="#f7fdee" d="M 137.5,588.5 C 137.103,589.525 136.437,589.692 135.5,589C 136.094,588.536 136.761,588.369 137.5,588.5 Z"/></g>
<g><path style="opacity:0.016" fill="#fcfeed" d="M 143.5,589.5 C 142.833,590.167 142.833,590.167 143.5,589.5 Z"/></g>
<g><path style="opacity:0.004" fill="#f7fff0" d="M 350.5,589.5 C 351.833,590.167 351.833,590.167 350.5,589.5 Z"/></g>
<g><path style="opacity:1" fill="#f6ebbc" d="M 149.5,589.5 C 156.865,591.341 164.199,593.175 171.5,595C 170.944,595.383 170.611,595.883 170.5,596.5C 166.834,596.042 163.334,595.042 160,593.5C 157.936,594.591 155.769,594.758 153.5,594C 154.5,593.667 155.5,593.333 156.5,593C 153.956,591.908 151.289,591.241 148.5,591C 149.056,590.617 149.389,590.117 149.5,589.5 Z"/></g>
<g><path style="opacity:0.239" fill="#f6e8bf" d="M 339.5,589.5 C 339.423,590.75 338.756,591.583 337.5,592C 330.308,594.131 322.974,595.631 315.5,596.5C 322.95,593.025 330.95,590.692 339.5,589.5 Z"/></g>
<g><path style="opacity:1" fill="#f0dd9f" d="M 173.5,596.5 C 176.082,596.025 178.082,596.692 179.5,598.5C 176.99,598.946 174.99,598.28 173.5,596.5 Z"/></g>
<g><path style="opacity:0.114" fill="#fbebcc" d="M 314.5,596.5 C 313.448,598.256 311.781,598.923 309.5,598.5C 310.78,597.069 312.447,596.402 314.5,596.5 Z"/></g>
<g><path style="opacity:0.01" fill="#fcfeee" d="M 327.5,598.5 C 328.251,597.427 329.251,597.26 330.5,598C 329.552,598.483 328.552,598.649 327.5,598.5 Z"/></g>
<g><path style="opacity:1" fill="#f4eece" d="M 179.5,598.5 C 183.702,599.132 187.702,600.132 191.5,601.5C 188.634,601.4 185.634,601.4 182.5,601.5C 181.145,600.812 180.145,599.812 179.5,598.5 Z"/></g>
<g><path style="opacity:0.231" fill="#f6e9bf" d="M 308.5,598.5 C 303.401,601.518 297.734,603.185 291.5,603.5C 294.384,601.914 297.551,600.581 301,599.5C 303.462,598.841 305.962,598.507 308.5,598.5 Z"/></g>
<g><path style="opacity:0.004" fill="#fafff0" d="M 310.5,600.5 C 311.833,601.167 311.833,601.167 310.5,600.5 Z"/></g>
<g><path style="opacity:0.004" fill="#f7fff0" d="M 303.5,603.5 C 302.833,602.167 302.833,602.167 303.5,603.5 Z"/></g>
<g><path style="opacity:0.008" fill="#fafef0" d="M 303.5,603.5 C 304.239,603.369 304.906,603.536 305.5,604C 304.563,604.692 303.897,604.525 303.5,603.5 Z"/></g>
<g><path style="opacity:0.027" fill="#f6fdf0" d="M 191.5,603.5 C 192.473,603.987 193.473,604.487 194.5,605C 192.843,605.725 191.843,605.225 191.5,603.5 Z"/></g>
<g><path style="opacity:0.014" fill="#fcfded" d="M 292.5,605.5 C 293.946,604.387 295.613,604.22 297.5,605C 295.866,605.494 294.199,605.66 292.5,605.5 Z"/></g>
<g><path style="opacity:0.006" fill="#faeed6" d="M 199.5,603.5 C 202.443,603.98 205.11,604.98 207.5,606.5C 204.224,606.856 201.557,605.856 199.5,603.5 Z"/></g>
<g><path style="opacity:0.082" fill="#f9efcc" d="M 287.5,604.5 C 287.5,604.833 287.5,605.167 287.5,605.5C 284.873,606.092 282.206,606.425 279.5,606.5C 281.838,604.96 284.505,604.294 287.5,604.5 Z"/></g>
<g><path style="opacity:0.008" fill="#fafdef" d="M 287.5,605.5 C 288.833,606.167 288.833,606.167 287.5,605.5 Z"/></g>
<g><path style="opacity:0.01" fill="#fbfbef" d="M 301.5,606.5 C 301.897,605.475 302.563,605.308 303.5,606C 302.906,606.464 302.239,606.631 301.5,606.5 Z"/></g>
<g><path style="opacity:0.09" fill="#f5eabe" d="M 279.5,606.5 C 278.653,607.966 277.32,608.8 275.5,609C 268.635,609.848 262.135,611.681 256,614.5C 255.601,614.272 255.435,613.938 255.5,613.5C 258.241,612.288 260.908,610.788 263.5,609C 268.798,607.841 274.131,607.007 279.5,606.5 Z"/></g>
<g><path style="opacity:0.012" fill="#f5feee" d="M 215.5,611.5 C 216.833,612.167 216.833,612.167 215.5,611.5 Z"/></g>
<g><path style="opacity:1" fill="#f6e9c0" d="M 207.5,606.5 C 212.933,606.857 218.266,607.857 223.5,609.5C 228.066,611.142 232.732,612.475 237.5,613.5C 238.713,613.747 239.38,614.414 239.5,615.5C 239.44,616.043 239.107,616.376 238.5,616.5C 228.21,612.736 217.877,609.402 207.5,606.5 Z"/></g>
<g><path style="opacity:0.004" fill="#fcfff0" d="M 218.5,612.5 C 219.833,613.167 219.833,613.167 218.5,612.5 Z"/></g>
<g><path style="opacity:0.01" fill="#fafaee" d="M 268.5,613.5 C 269.251,612.427 270.251,612.26 271.5,613C 270.552,613.483 269.552,613.649 268.5,613.5 Z"/></g>
<g><path style="opacity:0.006" fill="#f6fff0" d="M 223.5,614.5 C 223.897,613.475 224.563,613.308 225.5,614C 224.906,614.464 224.239,614.631 223.5,614.5 Z"/></g>
<g><path style="opacity:0.082" fill="#f3eccb" d="M 254.5,613.5 C 252.426,615.736 250.092,616.403 247.5,615.5C 249.279,613.656 251.612,612.99 254.5,613.5 Z"/></g>
<g><path style="opacity:1" fill="#f8f3e6" d="M 242.5,615.5 C 243.833,615.5 245.167,615.5 246.5,615.5C 245.739,616.391 244.739,617.058 243.5,617.5C 242.702,617.043 242.369,616.376 242.5,615.5 Z"/></g>
</svg>
