<?xml version="1.0" encoding="UTF-8"?>
<!DOCTYPE svg PUBLIC "-//W3C//DTD SVG 1.1//EN" "http://www.w3.org/Graphics/SVG/1.1/DTD/svg11.dtd">
<svg xmlns="http://www.w3.org/2000/svg" version="1.1" width="1280px" height="691px" style="shape-rendering:geometricPrecision; text-rendering:geometricPrecision; image-rendering:optimizeQuality; fill-rule:evenodd; clip-rule:evenodd" xmlns:xlink="http://www.w3.org/1999/xlink">
<g><path style="opacity:0.99" fill="#adb1d4" d="M 630.5,17.5 C 633.836,25.5044 637.169,33.5044 640.5,41.5C 627.323,41.1712 614.323,41.5045 601.5,42.5C 508.113,44.5778 416.78,59.0778 327.5,86C 266.427,104.375 209.427,131.042 156.5,166C 141.254,177.122 126.587,188.955 112.5,201.5C 109.627,193.155 107.627,184.488 106.5,175.5C 149.212,139.114 196.879,110.281 249.5,89C 347.72,49.5543 449.72,26.5543 555.5,20C 580.464,18.0842 605.464,17.2509 630.5,17.5 Z"/></g>
<g><path style="opacity:0.997" fill="#a3a7cd" d="M 630.5,17.5 C 643.5,17.5 656.5,17.5 669.5,17.5C 672.791,25.2041 675.791,33.0375 678.5,41C 665.838,41.4999 653.171,41.6666 640.5,41.5C 637.169,33.5044 633.836,25.5044 630.5,17.5 Z"/></g>
<g><path style="opacity:0.986" fill="#9599c2" d="M 669.5,17.5 C 694.874,18.102 720.208,19.4354 745.5,21.5C 745.196,22.1499 744.863,22.8165 744.5,23.5C 746.654,30.4495 748.654,37.4495 750.5,44.5C 750.457,45.4164 750.124,46.0831 749.5,46.5C 700.232,43.0086 650.898,41.6753 601.5,42.5C 614.323,41.5045 627.323,41.1712 640.5,41.5C 653.171,41.6666 665.838,41.4999 678.5,41C 675.791,33.0375 672.791,25.2041 669.5,17.5 Z"/></g>
<g><path style="opacity:0.983" fill="#8387b5" d="M 745.5,21.5 C 764.576,23.3231 783.576,25.6564 802.5,28.5C 804.325,36.8012 805.992,45.1345 807.5,53.5C 788.049,51.0068 768.716,48.6734 749.5,46.5C 750.124,46.0831 750.457,45.4164 750.5,44.5C 748.654,37.4495 746.654,30.4495 744.5,23.5C 744.863,22.8165 745.196,22.1499 745.5,21.5 Z"/></g>
<g><path style="opacity:0.988" fill="#7579ab" d="M 802.5,28.5 C 817.868,30.6169 833.201,32.9503 848.5,35.5C 850.171,44.1975 851.838,52.8642 853.5,61.5C 838.042,58.7925 822.709,56.1258 807.5,53.5C 805.992,45.1345 804.325,36.8012 802.5,28.5 Z"/></g>
<g><path style="opacity:1" fill="#777bb3" d="M 601.5,42.5 C 650.898,41.6753 700.232,43.0086 749.5,46.5C 768.716,48.6734 788.049,51.0068 807.5,53.5C 822.709,56.1258 838.042,58.7925 853.5,61.5C 869.609,64.6554 885.609,68.3221 901.5,72.5C 914.347,75.2638 927.014,78.5972 939.5,82.5C 954.146,87.1629 968.813,91.8295 983.5,96.5C 1039.63,116.063 1091.63,143.229 1139.5,178C 1170.09,201.064 1195.25,228.898 1215,261.5C 1245.24,317.627 1244.91,373.627 1214,429.5C 1193.1,463.076 1166.6,491.576 1134.5,515C 1093.95,543.781 1050.28,567.114 1003.5,585C 906.719,620.783 806.719,641.116 703.5,646C 687.497,646.5 671.497,647 655.5,647.5C 632.486,647.733 609.486,647.4 586.5,646.5C 552.715,644.671 519.048,641.671 485.5,637.5C 444.046,631.722 403.046,623.722 362.5,613.5C 332.18,605.061 302.18,595.394 272.5,584.5C 232.3,568.065 193.967,547.898 157.5,524C 127.375,503.599 101.042,479.099 78.5,450.5C 60.4056,425.292 48.5722,397.292 43,366.5C 42.5002,355.839 42.3335,345.172 42.5,334.5C 43.0418,316.335 47.0418,299.002 54.5,282.5C 60.298,268.23 67.6313,254.897 76.5,242.5C 87.0105,227.648 99.0105,213.981 112.5,201.5C 126.587,188.955 141.254,177.122 156.5,166C 209.427,131.042 266.427,104.375 327.5,86C 416.78,59.0778 508.113,44.5778 601.5,42.5 Z"/></g>
<g><path style="opacity:0.986" fill="#686ca1" d="M 848.5,35.5 C 865.202,38.9075 881.869,42.5742 898.5,46.5C 899.874,55.1216 900.874,63.7883 901.5,72.5C 885.609,68.3221 869.609,64.6554 853.5,61.5C 851.838,52.8642 850.171,44.1975 848.5,35.5 Z"/></g>
<g><path style="opacity:0.993" fill="#5f639a" d="M 898.5,46.5 C 912.108,49.5662 925.442,53.2329 938.5,57.5C 937.414,57.62 936.747,58.2867 936.5,59.5C 937.72,67.144 938.72,74.8107 939.5,82.5C 927.014,78.5972 914.347,75.2638 901.5,72.5C 900.874,63.7883 899.874,55.1216 898.5,46.5 Z"/></g>
<g><path style="opacity:0.988" fill="#525690" d="M 938.5,57.5 C 953.013,61.2263 967.346,65.5597 981.5,70.5C 982.707,79.1135 983.374,87.7801 983.5,96.5C 968.813,91.8295 954.146,87.1629 939.5,82.5C 938.72,74.8107 937.72,67.144 936.5,59.5C 936.747,58.2867 937.414,57.62 938.5,57.5 Z"/></g>
<g><path style="opacity:0.989" fill="#484c89" d="M 981.5,70.5 C 1047.38,92.4309 1107.71,124.264 1162.5,166C 1195.93,192.759 1222.77,224.925 1243,262.5C 1271.94,325.786 1268.28,387.12 1232,446.5C 1206.88,484.623 1175.38,516.456 1137.5,542C 1078.55,581.115 1014.89,610.449 946.5,630C 834.704,661.848 720.704,675.681 604.5,671.5C 621.862,664.319 638.862,656.319 655.5,647.5C 671.497,647 687.497,646.5 703.5,646C 806.719,641.116 906.719,620.783 1003.5,585C 1050.28,567.114 1093.95,543.781 1134.5,515C 1166.6,491.576 1193.1,463.076 1214,429.5C 1244.91,373.627 1245.24,317.627 1215,261.5C 1195.25,228.898 1170.09,201.064 1139.5,178C 1091.63,143.229 1039.63,116.063 983.5,96.5C 983.374,87.7801 982.707,79.1135 981.5,70.5 Z"/></g>
<g><path style="opacity:1" fill="#fafafa" d="M 576.5,99.5 C 603.169,99.3334 629.835,99.5 656.5,100C 664.538,103.243 667.371,109.077 665,117.5C 660.25,140.414 656.084,163.414 652.5,186.5C 677.855,186.138 703.189,186.638 728.5,188C 748.648,189.606 767.315,195.606 784.5,206C 798.954,217.729 807.621,232.896 810.5,251.5C 814.522,232.89 818.356,214.223 822,195.5C 823.833,191.667 826.667,188.833 830.5,187C 883.5,186.333 936.5,186.333 989.5,187C 1016.43,188.752 1040.76,197.419 1062.5,213C 1089.48,237.925 1100.65,268.758 1096,305.5C 1091.09,360.007 1065.93,402.173 1020.5,432C 993.719,446.577 965.053,453.911 934.5,454C 913.169,454.5 891.836,454.667 870.5,454.5C 865.788,481.68 860.288,508.68 854,535.5C 851.9,538.467 849.066,540.3 845.5,541C 819.5,541.667 793.5,541.667 767.5,541C 761.061,538.559 757.727,533.893 757.5,527C 762.895,502.27 767.395,477.437 771,452.5C 769.933,453.191 768.766,453.691 767.5,454C 741.5,454.667 715.5,454.667 689.5,454C 684.64,452.474 681.474,449.307 680,444.5C 679.522,439.132 679.855,433.799 681,428.5C 690.333,380.5 699.667,332.5 709,284.5C 709.791,280.074 709.457,275.741 708,271.5C 704.204,269.012 700.038,267.512 695.5,267C 675.503,266.5 655.503,266.333 635.5,266.5C 624.786,325.569 613.62,384.569 602,443.5C 600.526,448.974 597.026,452.474 591.5,454C 565.833,454.667 540.167,454.667 514.5,454C 507.771,451.448 504.438,446.615 504.5,439.5C 508.032,418.682 511.865,398.015 516,377.5C 487.984,423.108 447.15,448.275 393.5,453C 366.517,454.309 339.517,454.809 312.5,454.5C 307.659,481.218 302.492,507.885 297,534.5C 294.635,537.869 291.468,540.036 287.5,541C 261.5,541.667 235.5,541.667 209.5,541C 201.085,536.652 198.252,529.819 201,520.5C 221.463,415.854 241.796,311.187 262,206.5C 261.887,197.543 265.721,191.043 273.5,187C 326.167,186.333 378.833,186.333 431.5,187C 462.229,188.21 488.896,199.043 511.5,219.5C 524.442,233.046 532.942,249.046 537,267.5C 547.588,215.226 557.922,162.892 568,110.5C 569.553,105.788 572.386,102.121 576.5,99.5 Z"/></g>
<g><path style="opacity:1" fill="#555555" d="M 581.5,113.5 C 604.994,112.502 628.661,112.169 652.5,112.5C 652.737,113.791 652.404,114.791 651.5,115.5C 628.524,113.51 605.191,112.843 581.5,113.5 Z"/></g>
<g><path style="opacity:1" fill="#000000" d="M 581.5,113.5 C 605.191,112.843 628.524,113.51 651.5,115.5C 646.244,142.115 641.244,168.782 636.5,195.5C 635.549,196.919 635.216,198.585 635.5,200.5C 659.167,200.5 682.833,200.5 706.5,200.5C 730.039,199.977 752.372,204.81 773.5,215C 790.122,226.75 797.789,242.917 796.5,263.5C 796.46,270.535 795.96,277.535 795,284.5C 784.774,336.632 774.607,388.632 764.5,440.5C 740.833,440.5 717.167,440.5 693.5,440.5C 693.5,439.5 693.5,438.5 693.5,437.5C 702.6,390.168 711.766,342.834 721,295.5C 728.959,269.192 719.459,255.026 692.5,253C 669.927,252.173 647.427,252.34 625,253.5C 612.655,314.752 600.822,376.085 589.5,437.5C 588.596,438.209 588.263,439.209 588.5,440.5C 564.809,441.157 541.476,440.49 518.5,438.5C 539.378,330.109 560.378,221.776 581.5,113.5 Z"/></g>
<g><path style="opacity:1" fill="#7a7a7a" d="M 636.5,195.5 C 636.5,196.833 636.5,198.167 636.5,199.5C 660.006,199.169 683.339,199.502 706.5,200.5C 682.833,200.5 659.167,200.5 635.5,200.5C 635.216,198.585 635.549,196.919 636.5,195.5 Z"/></g>
<g><path style="opacity:1" fill="#000000" d="M 363.5,440.5 C 342.473,439.845 321.806,440.512 301.5,442.5C 295.653,470.734 290.32,499.067 285.5,527.5C 261.833,527.5 238.167,527.5 214.5,527.5C 214.5,526.5 214.5,525.5 214.5,524.5C 235.553,416.569 256.22,308.569 276.5,200.5C 329.501,200.333 382.501,200.5 435.5,201C 464.44,202.744 488.607,214.244 508,235.5C 520.258,252.279 526.092,271.112 525.5,292C 523.956,355.464 494.956,401.131 438.5,429C 414.218,437.405 389.218,441.239 363.5,440.5 Z"/></g>
<g><path style="opacity:1" fill="#000000" d="M 834.5,200.5 C 887.168,200.333 939.834,200.5 992.5,201C 1054.66,207.15 1084.83,241.317 1083,303.5C 1077.69,360.765 1049.52,402.265 998.5,428C 978.231,435.72 957.231,439.72 935.5,440C 910.16,440.167 884.827,440.667 859.5,441.5C 853.741,469.815 848.074,498.149 842.5,526.5C 818.843,527.5 795.176,527.833 771.5,527.5C 792.407,418.481 813.407,309.481 834.5,200.5 Z"/></g>
<g><path style="opacity:0.986" fill="#9a9ec6" d="M 106.5,175.5 C 107.627,184.488 109.627,193.155 112.5,201.5C 99.0105,213.981 87.0105,227.648 76.5,242.5C 75.5028,242.53 74.8361,242.03 74.5,241C 71.7983,233.228 69.2983,225.395 67,217.5C 66.6174,218.056 66.1174,218.389 65.5,218.5C 77.4035,202.594 91.0702,188.261 106.5,175.5 Z"/></g>
<g><path style="opacity:0.988" fill="#8f93be" d="M 76.5,242.5 C 67.6313,254.897 60.298,268.23 54.5,282.5C 53.325,282.719 52.325,282.386 51.5,281.5C 47.6115,272.48 43.9449,263.48 40.5,254.5C 47.3668,241.416 55.7002,229.416 65.5,218.5C 66.1174,218.389 66.6174,218.056 67,217.5C 69.2983,225.395 71.7983,233.228 74.5,241C 74.8361,242.03 75.5028,242.53 76.5,242.5 Z"/></g>
<g><path style="opacity:1" fill="#fafafa" d="M 338.5,251.5 C 359.169,251.333 379.836,251.5 400.5,252C 414.725,252.294 427.725,256.294 439.5,264C 444.956,269.41 448.456,275.91 450,283.5C 452.438,311.242 446.438,336.908 432,360.5C 422.23,373.312 409.396,381.478 393.5,385C 387.833,386 382.167,387 376.5,388C 355.169,388.5 333.836,388.667 312.5,388.5C 320.981,342.804 329.647,297.137 338.5,251.5 Z"/></g>
<g><path style="opacity:1" fill="#fafafb" d="M 918.5,388.5 C 902.132,389.151 886.132,388.485 870.5,386.5C 878.677,341.783 887.177,297.116 896,252.5C 916.094,251.341 936.26,251.174 956.5,252C 969.939,252.526 982.605,255.859 994.5,262C 1004.78,270.745 1009.45,281.912 1008.5,295.5C 1008.13,316.756 1002.96,336.756 993,355.5C 981.938,372.29 966.438,382.457 946.5,386C 937.265,387.916 927.931,388.749 918.5,388.5 Z"/></g>
<g><path style="opacity:1" fill="#777bb3" d="M 349.5,265.5 C 367.503,265.333 385.503,265.5 403.5,266C 412.421,266.319 420.755,268.652 428.5,273C 433.205,276.226 436.038,280.726 437,286.5C 438.225,308.818 433.559,329.818 423,349.5C 414.856,361.334 403.69,368.834 389.5,372C 369.284,375.065 348.951,376.231 328.5,375.5C 335.757,338.881 342.757,302.215 349.5,265.5 Z"/></g>
<g><path style="opacity:1" fill="#777bb3" d="M 907.5,265.5 C 925.17,265.333 942.836,265.5 960.5,266C 969.595,266.774 978.261,269.107 986.5,273C 990.666,276.165 993.166,280.332 994,285.5C 996.142,310.018 990.808,332.685 978,353.5C 966.306,366.095 951.806,372.929 934.5,374C 918.529,375.301 902.529,375.801 886.5,375.5C 892.986,338.738 899.986,302.071 907.5,265.5 Z"/></g>
<g><path style="opacity:0.99" fill="#8488b5" d="M 40.5,254.5 C 43.9449,263.48 47.6115,272.48 51.5,281.5C 52.325,282.386 53.325,282.719 54.5,282.5C 47.0418,299.002 43.0418,316.335 42.5,334.5C 41.6721,340.653 41.1721,346.987 41,353.5C 33.3017,341.431 26.135,329.098 19.5,316.5C 22.9124,294.596 29.9124,273.929 40.5,254.5 Z"/></g>
<g><path style="opacity:0.992" fill="#797dad" d="M 19.5,316.5 C 26.135,329.098 33.3017,341.431 41,353.5C 41.1721,346.987 41.6721,340.653 42.5,334.5C 42.3335,345.172 42.5002,355.839 43,366.5C 48.5722,397.292 60.4056,425.292 78.5,450.5C 57.9484,431.122 39.7818,409.788 24,386.5C 23.31,385.262 22.81,385.262 22.5,386.5C 20.157,379.131 18.657,371.464 18,363.5C 16.9938,347.72 17.4938,332.054 19.5,316.5 Z"/></g>
<g><path style="opacity:1" fill="#747474" d="M 870.5,386.5 C 886.132,388.485 902.132,389.151 918.5,388.5C 902.342,389.496 886.009,389.83 869.5,389.5C 869.263,388.209 869.596,387.209 870.5,386.5 Z"/></g>
<g><path style="opacity:0.995" fill="#7276a8" d="M 78.5,450.5 C 101.042,479.099 127.375,503.599 157.5,524C 193.967,547.898 232.3,568.065 272.5,584.5C 195.715,564.751 128.715,527.917 71.5,474C 69.7834,472.441 67.7834,471.608 65.5,471.5C 44.5925,446.687 30.2592,418.354 22.5,386.5C 22.81,385.262 23.31,385.262 24,386.5C 39.7818,409.788 57.9484,431.122 78.5,450.5 Z"/></g>
<g><path style="opacity:1" fill="#cacaca" d="M 363.5,440.5 C 342.931,441.178 322.265,441.844 301.5,442.5C 321.806,440.512 342.473,439.845 363.5,440.5 Z"/></g>
<g><path style="opacity:1" fill="#c9c9c9" d="M 589.5,437.5 C 589.5,438.833 589.5,440.167 589.5,441.5C 565.5,441.5 541.5,441.5 517.5,441.5C 517.263,440.209 517.596,439.209 518.5,438.5C 541.476,440.49 564.809,441.157 588.5,440.5C 588.263,439.209 588.596,438.209 589.5,437.5 Z"/></g>
<g><path style="opacity:1" fill="#c9c9c9" d="M 693.5,437.5 C 693.5,438.5 693.5,439.5 693.5,440.5C 717.167,440.5 740.833,440.5 764.5,440.5C 740.672,441.498 716.672,441.831 692.5,441.5C 692.232,439.901 692.566,438.568 693.5,437.5 Z"/></g>
<g><path style="opacity:0.984" fill="#6e72a5" d="M 65.5,471.5 C 67.7834,471.608 69.7834,472.441 71.5,474C 128.715,527.917 195.715,564.751 272.5,584.5C 302.18,595.394 332.18,605.061 362.5,613.5C 304.911,609.936 249.578,596.936 196.5,574.5C 145.588,549.525 101.922,515.191 65.5,471.5 Z"/></g>
<g><path style="opacity:1" fill="#a8a8a8" d="M 214.5,524.5 C 214.5,525.5 214.5,526.5 214.5,527.5C 238.167,527.5 261.833,527.5 285.5,527.5C 261.672,528.498 237.672,528.831 213.5,528.5C 213.232,526.901 213.566,525.568 214.5,524.5 Z"/></g>
<g><path style="opacity:0.985" fill="#686ca1" d="M 196.5,574.5 C 249.578,596.936 304.911,609.936 362.5,613.5C 403.046,623.722 444.046,631.722 485.5,637.5C 475.074,639.922 464.407,641.755 453.5,643C 436.371,644.792 419.371,646.292 402.5,647.5C 330.334,632.669 261.667,608.336 196.5,574.5 Z"/></g>
<g><path style="opacity:0.989" fill="#5f639a" d="M 485.5,637.5 C 519.048,641.671 552.715,644.671 586.5,646.5C 566.825,654.169 546.825,660.836 526.5,666.5C 484.704,662.958 443.371,656.625 402.5,647.5C 419.371,646.292 436.371,644.792 453.5,643C 464.407,641.755 475.074,639.922 485.5,637.5 Z"/></g>
<g><path style="opacity:0.986" fill="#555993" d="M 586.5,646.5 C 609.486,647.4 632.486,647.733 655.5,647.5C 638.862,656.319 621.862,664.319 604.5,671.5C 578.367,671.069 552.367,669.402 526.5,666.5C 546.825,660.836 566.825,654.169 586.5,646.5 Z"/></g>
</svg>
