<?xml version="1.0" encoding="UTF-8"?>
<!DOCTYPE svg PUBLIC "-//W3C//DTD SVG 1.1//EN" "http://www.w3.org/Graphics/SVG/1.1/DTD/svg11.dtd">
<svg xmlns="http://www.w3.org/2000/svg" version="1.1" width="2048px" height="2048px" style="shape-rendering:geometricPrecision; text-rendering:geometricPrecision; image-rendering:optimizeQuality; fill-rule:evenodd; clip-rule:evenodd" xmlns:xlink="http://www.w3.org/1999/xlink">
<g><path style="opacity:0.998" fill="#3777ac" d="M 963.5,-0.5 C 1000.5,-0.5 1037.5,-0.5 1074.5,-0.5C 1083.68,0.30886 1093.01,0.975526 1102.5,1.5C 1012.75,92.2486 922.418,182.249 831.5,271.5C 840.382,229.288 827.382,195.788 792.5,171C 781.348,164.338 769.348,160.172 756.5,158.5C 756.369,157.761 756.536,157.094 757,156.5C 809.007,105.66 860.507,54.3263 911.5,2.5C 928.995,1.63947 946.329,0.639472 963.5,-0.5 Z"/></g>
<g><path style="opacity:0.999" fill="#3775a9" d="M 1102.5,1.5 C 1147.61,3.54838 1192.27,8.88171 1236.5,17.5C 1088.45,165.221 940.446,312.887 792.5,460.5C 742.5,460.5 692.5,460.5 642.5,460.5C 685.495,418.505 727.829,375.838 769.5,332.5C 800.132,322.201 820.798,301.868 831.5,271.5C 922.418,182.249 1012.75,92.2486 1102.5,1.5 Z"/></g>
<g><path style="opacity:0.996" fill="#3779b0" d="M 911.5,2.5 C 860.507,54.3263 809.007,105.66 757,156.5C 756.536,157.094 756.369,157.761 756.5,158.5C 714.257,155.701 683.424,173.034 664,210.5C 657.607,225.527 655.107,241.194 656.5,257.5C 615.174,298.66 573.674,339.66 532,380.5C 531.617,379.944 531.117,379.611 530.5,379.5C 530.805,325.658 530.472,271.824 529.5,218C 531.623,180.936 545.123,148.769 570,121.5C 599.479,90.9993 633.979,67.8326 673.5,52C 729.229,30.0522 786.895,15.7189 846.5,9C 868.135,6.43651 889.802,4.26984 911.5,2.5 Z"/></g>
<g><path style="opacity:0.999" fill="#3773a5" d="M 1236.5,17.5 C 1296.69,27.5069 1353.36,47.3402 1406.5,77C 1429.37,90.7032 1450.04,107.203 1468.5,126.5C 1467.76,126.369 1467.09,126.536 1466.5,127C 1384.81,209.027 1302.81,290.694 1220.5,372C 857.605,734.395 494.605,1096.56 131.5,1458.5C 106.981,1435.48 86.8148,1409.15 71,1379.5C 46.6437,1332.6 29.1437,1283.26 18.5,1231.5C 253.139,998.194 487.473,764.527 721.5,530.5C 823.833,530.5 926.167,530.5 1028.5,530.5C 1028.5,507.167 1028.5,483.833 1028.5,460.5C 949.833,460.5 871.167,460.5 792.5,460.5C 940.446,312.887 1088.45,165.221 1236.5,17.5 Z"/></g>
<g><path style="opacity:0.999" fill="#3770a1" d="M 1468.5,126.5 C 1483.95,142.298 1496.28,160.298 1505.5,180.5C 1232.76,452.908 960.092,725.242 687.5,997.5C 591.363,1013.82 525.197,1067.15 489,1157.5C 482.391,1175.62 476.891,1193.96 472.5,1212.5C 376.449,1306.05 280.782,1400.88 185.5,1497C 184.906,1497.46 184.239,1497.63 183.5,1497.5C 164.011,1487.42 146.678,1474.42 131.5,1458.5C 494.605,1096.56 857.605,734.395 1220.5,372C 1302.81,290.694 1384.81,209.027 1466.5,127C 1467.09,126.536 1467.76,126.369 1468.5,126.5 Z"/></g>
<g><path style="opacity:1" fill="#366f9e" d="M 1505.5,180.5 C 1515.99,201.156 1522.16,223.156 1524,246.5C 1523.62,300.826 1523.45,355.159 1523.5,409.5C 1328.47,603.193 1133.81,797.193 939.5,991.5C 867.157,991.099 794.824,991.599 722.5,993C 710.696,993.811 699.029,995.311 687.5,997.5C 960.092,725.242 1232.76,452.908 1505.5,180.5 Z"/></g>
<g><path style="opacity:0.996" fill="#3777ac" d="M 656.5,257.5 C 664.56,300.727 690.227,326.561 733.5,335C 745.674,336.16 757.674,335.327 769.5,332.5C 727.829,375.838 685.495,418.505 642.5,460.5C 605.167,460.5 567.833,460.5 530.5,460.5C 530.5,433.5 530.5,406.5 530.5,379.5C 531.117,379.611 531.617,379.944 532,380.5C 573.674,339.66 615.174,298.66 656.5,257.5 Z"/></g>
<g><path style="opacity:0.999" fill="#366c99" d="M 1523.5,409.5 C 1523.5,521.167 1523.5,632.833 1523.5,744.5C 1441.45,826.221 1359.45,907.888 1277.5,989.5C 1274.02,990.323 1270.36,990.823 1266.5,991C 1157.5,991.5 1048.5,991.667 939.5,991.5C 1133.81,797.193 1328.47,603.193 1523.5,409.5 Z"/></g>
<g><path style="opacity:0.996" fill="#ffd646" d="M 1901.5,566.5 C 1901.63,567.239 1901.46,567.906 1901,568.5C 1779.1,695.308 1657.44,822.308 1536,949.5C 1531.24,954.766 1526.07,959.433 1520.5,963.5C 1555.57,919.997 1577.07,870.331 1585,814.5C 1586.93,802.232 1588.26,789.898 1589,777.5C 1589.5,690.501 1589.67,603.501 1589.5,516.5C 1653.83,516.333 1718.17,516.5 1782.5,517C 1827.06,522.337 1866.73,538.837 1901.5,566.5 Z"/></g>
<g><path style="opacity:0.996" fill="#3779af" d="M 381.5,530.5 C 256.449,655.051 131.449,779.884 6.5,905C 5.90558,905.464 5.23891,905.631 4.5,905.5C 10.6333,845.967 24.4667,788.301 46,732.5C 108.177,583.789 220.01,516.455 381.5,530.5 Z"/></g>
<g><path style="opacity:0.999" fill="#3777ac" d="M 381.5,530.5 C 444.833,530.5 508.167,530.5 571.5,530.5C 381.779,720.221 191.779,909.554 1.5,1098.5C 1.02,1089.34 0.353333,1080.34 -0.5,1071.5C -0.5,1037.83 -0.5,1004.17 -0.5,970.5C 1.02556,948.973 2.69222,927.306 4.5,905.5C 5.23891,905.631 5.90558,905.464 6.5,905C 131.449,779.884 256.449,655.051 381.5,530.5 Z"/></g>
<g><path style="opacity:0.999" fill="#3775a9" d="M 571.5,530.5 C 621.5,530.5 671.5,530.5 721.5,530.5C 487.473,764.527 253.139,998.194 18.5,1231.5C 9.63559,1187.58 3.96892,1143.25 1.5,1098.5C 191.779,909.554 381.779,720.221 571.5,530.5 Z"/></g>
<g><path style="opacity:1" fill="#ffd444" d="M 1901.5,566.5 C 1907.77,570.441 1913.44,575.108 1918.5,580.5C 1917.5,580.586 1916.67,580.252 1916,579.5C 1914.33,581.167 1912.67,582.833 1911,584.5C 1484.9,1029.69 1058.56,1474.69 632,1919.5C 625.27,1926.72 618.77,1934.06 612.5,1941.5C 607.514,1937.85 602.847,1933.85 598.5,1929.5C 599.072,1927.74 599.906,1926.08 601,1924.5C 899.198,1613.97 1197.03,1303.14 1494.5,992C 1494.27,991.601 1493.94,991.435 1493.5,991.5C 1503.17,982.827 1512.17,973.494 1520.5,963.5C 1526.07,959.433 1531.24,954.766 1536,949.5C 1657.44,822.308 1779.1,695.308 1901,568.5C 1901.46,567.906 1901.63,567.239 1901.5,566.5 Z"/></g>
<g><path style="opacity:0.999" fill="#ffd141" d="M 1918.5,580.5 C 1951.42,611.318 1977.26,647.318 1996,688.5C 2018.15,738.092 2033.32,789.758 2041.5,843.5C 2041.65,844.552 2041.48,845.552 2041,846.5C 1827.96,1068.7 1615.13,1291.04 1402.5,1513.5C 1277.17,1513.5 1151.83,1513.5 1026.5,1513.5C 1026.5,1536.83 1026.5,1560.17 1026.5,1583.5C 1129.17,1583.5 1231.83,1583.5 1334.5,1583.5C 1189.86,1735.47 1044.86,1887.14 899.5,2038.5C 825.75,2032.48 754.75,2015.31 686.5,1987C 659.595,1975.07 634.928,1959.9 612.5,1941.5C 618.77,1934.06 625.27,1926.72 632,1919.5C 1058.56,1474.69 1484.9,1029.69 1911,584.5C 1912.67,582.833 1914.33,581.167 1916,579.5C 1916.67,580.252 1917.5,580.586 1918.5,580.5 Z"/></g>
<g><path style="opacity:0.998" fill="#366995" d="M 1523.5,744.5 C 1514.86,866.624 1451.86,944.791 1334.5,979C 1315.8,984.227 1296.8,987.727 1277.5,989.5C 1359.45,907.888 1441.45,826.221 1523.5,744.5 Z"/></g>
<g><path style="opacity:1" fill="#ffcf3d" d="M 2041.5,843.5 C 2043.66,851.911 2044.99,860.577 2045.5,869.5C 1839.86,1084.14 1634.19,1298.81 1428.5,1513.5C 1419.83,1513.5 1411.17,1513.5 1402.5,1513.5C 1615.13,1291.04 1827.96,1068.7 2041,846.5C 2041.48,845.552 2041.65,844.552 2041.5,843.5 Z"/></g>
<g><path style="opacity:1" fill="#ffcc3b" d="M 2045.5,869.5 C 2046.17,872.167 2046.83,874.833 2047.5,877.5C 2047.5,972.5 2047.5,1067.5 2047.5,1162.5C 2042.59,1196.36 2035.26,1229.7 2025.5,1262.5C 2025.63,1261.76 2025.46,1261.09 2025,1260.5C 2023.33,1262.17 2021.67,1263.83 2020,1265.5C 1942.99,1346.67 1865.83,1427.67 1788.5,1508.5C 1771.7,1512.42 1754.53,1514.42 1737,1514.5C 1634.17,1513.53 1531.34,1513.2 1428.5,1513.5C 1634.19,1298.81 1839.86,1084.14 2045.5,869.5 Z"/></g>
<g><path style="opacity:0.999" fill="#ffd647" d="M 1493.5,991.5 C 1493.94,991.435 1494.27,991.601 1494.5,992C 1197.03,1303.14 899.198,1613.97 601,1924.5C 599.906,1926.08 599.072,1927.74 598.5,1929.5C 555.955,1891.07 533.288,1843.07 530.5,1785.5C 531.436,1732.51 531.769,1679.51 531.5,1626.5C 569.8,1587.37 607.966,1548.03 646,1508.5C 791.371,1356.63 936.537,1204.63 1081.5,1052.5C 1158.83,1052.67 1236.17,1052.5 1313.5,1052C 1368.7,1051.82 1420.04,1037.82 1467.5,1010C 1476.34,1003.98 1485.01,997.811 1493.5,991.5 Z"/></g>
<g><path style="opacity:0.998" fill="#ffdc4d" d="M 1003.5,1052.5 C 846.503,1216.83 689.17,1380.83 531.5,1544.5C 531.333,1460.83 531.5,1377.17 532,1293.5C 542.356,1175.59 604.189,1099.76 717.5,1066C 741.068,1059.29 765.068,1054.96 789.5,1053C 860.833,1052.5 932.166,1052.33 1003.5,1052.5 Z"/></g>
<g><path style="opacity:1" fill="#ffd94b" d="M 1003.5,1052.5 C 1029.5,1052.5 1055.5,1052.5 1081.5,1052.5C 936.537,1204.63 791.371,1356.63 646,1508.5C 607.966,1548.03 569.8,1587.37 531.5,1626.5C 531.5,1599.17 531.5,1571.83 531.5,1544.5C 689.17,1380.83 846.503,1216.83 1003.5,1052.5 Z"/></g>
<g><path style="opacity:0.997" fill="#366f9f" d="M 472.5,1212.5 C 469.54,1229.39 467.373,1246.39 466,1263.5C 465.5,1351.5 465.333,1439.5 465.5,1527.5C 400.832,1527.67 336.166,1527.5 271.5,1527C 239.858,1523.62 210.525,1513.79 183.5,1497.5C 184.239,1497.63 184.906,1497.46 185.5,1497C 280.782,1400.88 376.449,1306.05 472.5,1212.5 Z"/></g>
<g><path style="opacity:0.99" fill="#ffc937" d="M 2025.5,1262.5 C 2008.66,1324.88 1978.82,1379.88 1936,1427.5C 1895.37,1469.74 1846.2,1496.74 1788.5,1508.5C 1865.83,1427.67 1942.99,1346.67 2020,1265.5C 2021.67,1263.83 2023.33,1262.17 2025,1260.5C 2025.46,1261.09 2025.63,1261.76 2025.5,1262.5 Z"/></g>
<g><path style="opacity:0.999" fill="#fece3d" d="M 1334.5,1583.5 C 1343.17,1583.5 1351.83,1583.5 1360.5,1583.5C 1215.2,1736.14 1069.53,1888.47 923.5,2040.5C 915.454,2040.25 907.454,2039.59 899.5,2038.5C 1044.86,1887.14 1189.86,1735.47 1334.5,1583.5 Z"/></g>
<g><path style="opacity:0.996" fill="#ffcc3b" d="M 1360.5,1583.5 C 1415.17,1583.5 1469.83,1583.5 1524.5,1583.5C 1524.5,1649.5 1524.5,1715.5 1524.5,1781.5C 1521.94,1785.24 1519.11,1788.91 1516,1792.5C 1448,1863.17 1380,1933.83 1312,2004.5C 1307.93,2009.06 1304.1,2013.73 1300.5,2018.5C 1246.18,2030.95 1191.18,2038.78 1135.5,2042C 1064.76,2046.84 994.098,2046.34 923.5,2040.5C 1069.53,1888.47 1215.2,1736.14 1360.5,1583.5 Z M 1298.5,1708.5 C 1344.77,1706.54 1376.6,1726.87 1394,1769.5C 1404.34,1807.3 1395.18,1839.47 1366.5,1866C 1328.49,1893.33 1290.49,1893.33 1252.5,1866C 1221.82,1837.43 1213.32,1803.26 1227,1763.5C 1241.42,1732.92 1265.25,1714.58 1298.5,1708.5 Z"/></g>
<g><path style="opacity:0.992" fill="#ffc937" d="M 1524.5,1781.5 C 1533.9,1844.8 1514.9,1897.64 1467.5,1940C 1435.87,1966.16 1400.54,1986.16 1361.5,2000C 1341.45,2007.26 1321.12,2013.43 1300.5,2018.5C 1304.1,2013.73 1307.93,2009.06 1312,2004.5C 1380,1933.83 1448,1863.17 1516,1792.5C 1519.11,1788.91 1521.94,1785.24 1524.5,1781.5 Z"/></g>
</svg>
